<?xml version="1.0" standalone="no"?>
<!DOCTYPE svg PUBLIC "-//W3C//DTD SVG 1.1//EN" "http://www.w3.org/Graphics/SVG/1.1/DTD/svg11.dtd" >
<svg xmlns="http://www.w3.org/2000/svg" xmlns:xlink="http://www.w3.org/1999/xlink" version="1.1">
<metadata>
Created by FontForge 20170731 at Tue Sep  8 14:33:11 2020
 By Aleksey,,,
Copyright 2019 The Commissioner Project Authors (https://github.com/kosbarts/Commissioner)
</metadata>
<defs>
<font id="Commissioner-Regular" horiz-adv-x="0" >
  <font-face 
    font-family="Commissioner"
    font-weight="400"
    font-stretch="normal"
    units-per-em="2000"
    panose-1="0 0 0 0 0 0 0 0 0 0"
    ascent="1600"
    descent="-400"
    x-height="992"
    cap-height="1426"
    bbox="-260 -570 2678 2321"
    underline-thickness="50"
    underline-position="-225"
    unicode-range="U+000D-FB02"
  />
<missing-glyph horiz-adv-x="1254" 
d="M84 -384v2020h1086v-2020h-1086zM171 -297h912v1846h-912v-1846zM642 404q-96 0 -149.5 44.5t-53.5 118.5q0 79 53 131.5t118 99.5q41 30 79 62.5t62.5 72t24.5 89.5q0 66 -47.5 101.5t-131.5 35.5q-37 0 -76.5 -7t-80 -21.5t-81.5 -36.5l-7 121q29 12 69.5 26t91 24
t107.5 10q131 0 208.5 -58t77.5 -172q0 -77 -32.5 -132.5t-81 -97t-95.5 -77.5q-53 -39 -94 -77.5t-41 -87.5q0 -53 34 -73.5t78 -20.5q30 0 55.5 7t41.5 13l7 -75q-15 -5 -36.5 -9.5t-47.5 -7.5t-52 -3zM608 19q-49 0 -78.5 29.5t-29.5 76.5q0 48 29.5 77t78.5 29
q51 0 80 -29t29 -77q0 -47 -29 -76.5t-80 -29.5z" />
    <glyph glyph-name="fi" unicode="fi" horiz-adv-x="1304" 
d="M237 0v213v225v100v128.5v140.5v151.5v163.5q0 106 28.5 177t79 113t115.5 60.5t139 18.5q36 0 70 -3.5t62.5 -9.5t48.5 -14l-15 -143q-32 12 -68.5 18.5t-76.5 6.5q-117 0 -170.5 -56.5t-53.5 -171.5v-69.5v-56.5l6 -37v-517v-225v-213h-165zM49 861v131h689v-131h-195
h-191h-68h-235zM964 0v213v225v100v164.5v146v143.5l166 6v-145.5v-148v-166.5v-100v-225v-213h-166zM1045 1221q-54 0 -88 30t-34 92q0 61 34 91.5t90 30.5q55 0 88 -31.5t33 -90.5q0 -62 -33 -92t-90 -30z" />
    <glyph glyph-name="fl" unicode="fl" horiz-adv-x="1299" 
d="M237 0v213v225v100v128.5v140.5v152v163q0 106 28.5 177t79 113t115.5 60.5t139 18.5q34 0 64.5 -3t57 -8t44.5 -11v-148q-32 12 -68.5 18.5t-76.5 6.5q-117 0 -170.5 -56.5t-53.5 -171.5v-69.5v-56.5l6 -37v-517v-225v-213h-165zM49 862v130h689v-130h-195h-191h-68
h-235zM962 0v213v225v549v245v232l165 20v-242.5v-254.5v-549v-225v-213h-165z" />
    <glyph glyph-name="f_f" unicode="ff" horiz-adv-x="1535" 
d="M982 0v213v225v100v128.5v140.5v152v163q0 106 28.5 177t78.5 113t115.5 60.5t139.5 18.5q36 0 69.5 -3.5t62.5 -9.5t49 -14l-15 -143q-32 12 -68.5 18.5t-76.5 6.5q-117 0 -170.5 -56.5t-53.5 -171.5v-69.5v-56.5l6 -37v-517v-225v-213h-165zM794 861v131h689v-131h-195
h-191h-68h-235zM237 0v213v225v100v128.5v140.5v152v163q0 106 28.5 177t79 113t115.5 60.5t139 18.5q36 0 70 -3.5t62.5 -9.5t48.5 -14l-15 -143q-32 12 -68.5 18.5t-76.5 6.5q-117 0 -170.5 -56.5t-53.5 -171.5v-69.5v-56.5l6 -37v-517v-225v-213h-165zM49 861v131h689
v-131h-195h-191h-68h-235z" />
    <glyph glyph-name="f_f_i" unicode="ffi" horiz-adv-x="2049" 
d="M982 0v213v225v100v128.5v140.5v152v163q0 106 28.5 177t78.5 113t115.5 60.5t139.5 18.5q36 0 69.5 -3.5t62.5 -9.5t49 -14l-15 -143q-32 12 -68.5 18.5t-76.5 6.5q-117 0 -170.5 -56.5t-53.5 -171.5v-69.5v-56.5l6 -37v-517v-225v-213h-165zM794 861v131h689v-131h-195
h-191h-68h-235zM237 0v213v225v100v128.5v140.5v152v163q0 106 28.5 177t79 113t115.5 60.5t139 18.5q36 0 70 -3.5t62.5 -9.5t48.5 -14l-15 -143q-32 12 -68.5 18.5t-76.5 6.5q-117 0 -170.5 -56.5t-53.5 -171.5v-69.5v-56.5l6 -37v-517v-225v-213h-165zM49 861v131h689
v-131h-195h-191h-68h-235zM1709 0v213v225v100v164.5v146v143.5l166 6v-145.5v-148v-166.5v-100v-225v-213h-166zM1790 1221q-54 0 -88 30t-34 92q0 61 34 91.5t90 30.5q55 0 88 -31.5t33 -90.5q0 -62 -33 -92t-90 -30z" />
    <glyph glyph-name="f_f_l" unicode="ffl" horiz-adv-x="2044" 
d="M237 0v213v225v100v128.5v140.5v152v163q0 106 28.5 177t79 113t115.5 60.5t139 18.5q36 0 70 -3.5t62.5 -9.5t48.5 -14l-15 -143q-32 12 -68.5 18.5t-76.5 6.5q-117 0 -170.5 -56.5t-53.5 -171.5v-69.5v-56.5l6 -37v-517v-225v-213h-165zM49 861v131h689v-131h-195h-191
h-68h-235zM982 0v213v225v100v128.5v140.5v152v163q0 106 28.5 177t78.5 113t115.5 60.5t139.5 18.5q34 0 64.5 -3t57 -8t44.5 -11v-148q-32 12 -68.5 18.5t-76.5 6.5q-117 0 -170.5 -56.5t-53.5 -171.5v-69.5v-56.5l6 -37v-517v-225v-213h-165zM794 861v131h689v-131h-195
h-191h-68h-235zM1707 0v213v225v549v245v232l165 20v-242.5v-254.5v-549v-225v-213h-165z" />
    <glyph glyph-name=".notdef" horiz-adv-x="1254" 
d="M84 -384v2020h1086v-2020h-1086zM171 -297h912v1846h-912v-1846zM642 404q-96 0 -149.5 44.5t-53.5 118.5q0 79 53 131.5t118 99.5q41 30 79 62.5t62.5 72t24.5 89.5q0 66 -47.5 101.5t-131.5 35.5q-37 0 -76.5 -7t-80 -21.5t-81.5 -36.5l-7 121q29 12 69.5 26t91 24
t107.5 10q131 0 208.5 -58t77.5 -172q0 -77 -32.5 -132.5t-81 -97t-95.5 -77.5q-53 -39 -94 -77.5t-41 -87.5q0 -53 34 -73.5t78 -20.5q30 0 55.5 7t41.5 13l7 -75q-15 -5 -36.5 -9.5t-47.5 -7.5t-52 -3zM608 19q-49 0 -78.5 29.5t-29.5 76.5q0 48 29.5 77t78.5 29
q51 0 80 -29t29 -77q0 -47 -29 -76.5t-80 -29.5z" />
    <glyph glyph-name=".null" 
 />
    <glyph glyph-name="nonmarkingreturn" horiz-adv-x="666" 
 />
    <glyph glyph-name="NULL" 
 />
    <glyph glyph-name="NULL" 
 />
    <glyph glyph-name="CR" unicode="&#xd;" horiz-adv-x="383" 
 />
    <glyph glyph-name="space" unicode=" " horiz-adv-x="383" 
 />
    <glyph glyph-name="exclam" unicode="!" horiz-adv-x="472" 
d="M170 495q-3 247 -12.5 488.5t-19.5 481.5l200 6q-10 -241 -19 -484.5t-13 -489.5zM236 -22q-41 0 -70.5 17t-45.5 46t-16 68q0 59 36 94t96 35q42 0 71 -16t45.5 -45t16.5 -68q0 -58 -35.5 -94.5t-97.5 -36.5z" />
    <glyph glyph-name="quotedbl" unicode="&#x22;" horiz-adv-x="743" 
d="M118 873q-3 155 -12 308t-19 303l187 5q-10 -151 -19 -305t-12 -309zM457 873q-3 155 -12 308t-19 303l187 5q-10 -151 -19 -305t-12 -309z" />
    <glyph glyph-name="numbersign" unicode="#" horiz-adv-x="1366" 
d="M35 308v128h182h164h491h164.5h181.5v-128h-181.5h-164.5h-491h-164h-182zM239 0q21 102 40 199t45 224l91 457q18 88 32.5 159.5t28 138.5t27.5 139h134q-14 -70 -27.5 -137t-28 -139.5t-32.5 -161.5l-92 -456q-25 -126 -44 -222.5t-40 -200.5h-134zM147 875v128h182
h164h492h164.5h181.5v-128h-181.5h-164.5h-492h-164h-182zM716 0q21 102 40 199t44 224l92 456q18 89 32 160.5t27.5 138.5t28.5 139h133q-14 -70 -27.5 -137t-28 -139.5t-31.5 -161.5l-92 -456q-25 -126 -44 -222.5t-41 -200.5h-133z" />
    <glyph glyph-name="dollar" unicode="$" horiz-adv-x="1124" 
d="M575 -21q-85 0 -171 15.5t-158.5 39.5t-117.5 50l16 153q64 -35 133.5 -60t142.5 -39t150 -14q89 0 160 24.5t112.5 78.5t41.5 143q0 72 -44 118t-126.5 80t-196.5 70q-130 41 -221 88.5t-138.5 117.5t-47.5 177t49.5 191.5t148 133t244.5 48.5q61 0 121 -8.5
t113.5 -23.5t99 -33t76.5 -38l-17 -156q-58 39 -123 63.5t-130 36t-122 11.5q-78 0 -147 -23t-111.5 -72.5t-42.5 -128.5q0 -65 36 -107t112.5 -75t196.5 -72q163 -53 257 -107t133.5 -123.5t39.5 -167.5q0 -111 -49.5 -199.5t-153 -140t-266.5 -51.5zM508 -274v172.5v164
v160.5v161v564v161v160.5v164.5v172h131v-172v-164.5v-160.5v-161v-564v-161.5v-161v-163.5v-172h-131z" />
    <glyph glyph-name="percent" unicode="%" horiz-adv-x="1761" 
d="M391 0q64 110 124.5 216.5t138.5 242.5l284 496q54 94 99 172t86.5 150.5t84.5 148.5h155q-44 -76 -85.5 -148.5t-86 -150.5t-98.5 -172l-285 -496q-78 -136 -138.5 -242.5t-123.5 -216.5h-155zM441 743q-108 0 -192 43.5t-132 123t-48 186.5q0 102 48 182.5t132 127
t194 46.5q108 0 192 -46.5t131.5 -127t47.5 -182.5q0 -107 -47.5 -186.5t-131.5 -123t-194 -43.5zM441 860q114 0 177 62.5t63 172.5q0 70 -28.5 124.5t-82 85t-127.5 30.5q-112 0 -177 -66.5t-65 -173.5q0 -110 65 -172.5t175 -62.5zM1314 -22q-108 0 -192 43.5t-132 123
t-48 186.5q0 102 48 182.5t132 127t194 46.5q108 0 192 -46.5t131.5 -127t47.5 -182.5q0 -107 -47.5 -186.5t-131.5 -123t-194 -43.5zM1314 95q114 0 177 62.5t63 172.5q0 71 -28.5 125t-82 84.5t-127.5 30.5q-112 0 -177 -66.5t-65 -173.5q0 -110 65 -172.5t175 -62.5z" />
    <glyph glyph-name="ampersand" unicode="&#x26;" horiz-adv-x="1468" 
d="M1225 0q-67 67 -135 136t-135 136l-462 466q-94 94 -148 182.5t-54 197.5q0 104 47.5 179t127.5 115t178 40q97 0 177 -37t127.5 -108t47.5 -170q0 -84 -30.5 -146t-81.5 -106.5t-110.5 -76.5t-116.5 -56l-75 104q75 30 133.5 66.5t92 87.5t33.5 123q0 84 -54 136.5
t-136 52.5q-88 0 -140.5 -57.5t-52.5 -145.5q0 -75 40.5 -142t128.5 -156l452 -458q90 -90 179 -181l178 -182h-211zM539 -20q-147 0 -245 52.5t-147 141t-49 195.5q0 122 54 210t137.5 149.5t173.5 101.5l73 -109q-80 -36 -142 -84t-97.5 -110.5t-35.5 -141.5
q0 -78 34.5 -137.5t101 -92.5t161.5 -33q68 0 128 24t115.5 73.5t109.5 125.5l99 -95l7 -32h-26q-61 -76 -127 -129t-145.5 -81t-179.5 -28zM1100 329l-103 97q60 94 115.5 182t112.5 178l140 -88q-66 -93 -131.5 -184t-133.5 -185z" />
    <glyph glyph-name="quotesingle" unicode="'" horiz-adv-x="404" 
d="M118 873q-3 155 -12 308t-19 303l187 5q-10 -151 -19 -305t-12 -309z" />
    <glyph glyph-name="parenleft" unicode="(" horiz-adv-x="770" 
d="M572 -242q-98 71 -181 160t-144 198t-95 241t-34 290q0 160 34 292t95 241t144 197.5t181 159.5l117 -56q-105 -85 -196.5 -200t-148.5 -271t-57 -363q0 -205 57 -361t148.5 -271.5t196.5 -200.5z" />
    <glyph glyph-name="parenright" unicode=")" horiz-adv-x="770" 
d="M198 -242l-117 56q105 85 197 200.5t148.5 271t56.5 361.5t-56.5 362t-148.5 271.5t-197 200.5l117 56q99 -71 181.5 -160t143.5 -198t95 -241t34 -291t-34 -291t-95 -241t-143.5 -197.5t-181.5 -159.5z" />
    <glyph glyph-name="asterisk" unicode="*" horiz-adv-x="946" 
d="M830 746q-94 65 -187.5 128t-188.5 127q-100 56 -199.5 111t-199.5 110l61 103q95 -63 188.5 -127.5t189.5 -128.5q98 -54 198 -109l200 -110zM116 746l-61 104q99 56 199 111t200 109q95 65 188.5 128.5t187.5 126.5l62 -103l-200 -110t-198 -109q-94 -64 -188.5 -128
t-189.5 -129zM412 581q6 114 11.5 227.5t10.5 228.5q-5 113 -10.5 226.5t-11.5 227.5h122q-6 -114 -11 -227.5t-11 -226.5q5 -115 11 -228.5t11 -227.5h-122z" />
    <glyph glyph-name="plus" unicode="+" horiz-adv-x="1176" 
d="M513 119v181.5v164.5v266v164.5v181.5h151v-181.5v-164.5v-266v-164.5v-181.5h-151zM124 524v147h182h164h237h164.5h181.5v-147h-181.5h-164.5h-237h-164h-182z" />
    <glyph glyph-name="comma" unicode="," horiz-adv-x="460" 
d="M62 -314q39 56 61.5 112t32.5 117t10 132v95v97l84 6q55 -4 80 -41.5t25 -91.5q0 -62 -16.5 -123t-45.5 -117t-65 -102.5t-75 -80.5z" />
    <glyph glyph-name="hyphen" unicode="-" horiz-adv-x="845" 
d="M124 521v148h157.5h141.5h142h157v-148h-157h-142h-141.5h-157.5z" />
    <glyph glyph-name="period" unicode="." horiz-adv-x="472" 
d="M236 -22q-41 0 -70.5 17t-45.5 46t-16 68q0 59 36 94t96 35q42 0 71 -16t45.5 -45t16.5 -68q0 -58 -35.5 -94.5t-97.5 -36.5z" />
    <glyph glyph-name="slash" unicode="/" horiz-adv-x="890" 
d="M59 0q47 112 91.5 216t103.5 240l211 496q61 142 107.5 250.5t95.5 223.5h164q-33 -77 -64 -150t-65 -152t-76 -176l-210 -492q-58 -136 -102.5 -241t-91.5 -215h-164z" />
    <glyph glyph-name="zero" unicode="0" horiz-adv-x="1305" 
d="M658 -21q-142 0 -245.5 52.5t-170.5 148.5t-99 225.5t-32 282.5q0 213 60.5 372.5t181 248t299.5 88.5q137 0 238 -51t169 -145t101.5 -224t33.5 -288q0 -217 -61.5 -376.5t-181 -246.5t-293.5 -87zM654 128q131 0 211 73t117 200t37 288q0 170 -39 295.5t-120 194.5
t-206 69q-129 0 -210 -72t-119 -198.5t-38 -288.5q0 -163 37 -290t117.5 -199t212.5 -72z" />
    <glyph glyph-name="one" unicode="1" horiz-adv-x="855" 
d="M105 976l-41 139q123 66 246.5 131t247.5 131l-5 -159q-112 -61 -223.5 -121t-224.5 -121zM472 0v213v225v430v214v215l86 80l83 -6v-231v-245v-457v-225v-213h-169z" />
    <glyph glyph-name="two" unicode="2" horiz-adv-x="1109" 
d="M97 0v122q61 53 122.5 107t122.5 106q145 126 247.5 235.5t157.5 211.5t55 204q0 130 -71 195.5t-214 65.5q-48 0 -98.5 -9t-102.5 -26.5t-104 -43.5t-103 -60l-18 169q45 25 98 47t112 38t120.5 25.5t123.5 9.5q138 0 234.5 -47.5t146.5 -135.5t50 -209
q0 -113 -52 -225.5t-154.5 -230t-252.5 -245.5l-223 -189l-25 35h278h228h228v-150h-906z" />
    <glyph glyph-name="three" unicode="3" horiz-adv-x="1141" 
d="M553 -22q-64 0 -128 8.5t-124.5 23.5t-114 35.5t-97.5 43.5l17 162q54 -30 109.5 -53t110.5 -38.5t108.5 -23.5t103.5 -8q173 0 250 70.5t77 178.5q0 130 -105 198t-293 68h-64.5h-63.5v142h59.5h60.5q127 0 206 33t116.5 89t37.5 127q0 109 -78.5 161t-199.5 52
q-47 0 -97.5 -9.5t-102 -27t-103 -43.5t-100.5 -60l-20 165q44 26 96 49t110 40t118.5 27t120.5 10q128 0 225 -41t151 -116.5t54 -178.5q0 -86 -36 -152.5t-96 -110t-132 -60.5v-17q55 -10 109.5 -35.5t100 -69t73 -105.5t27.5 -146q0 -109 -53 -197t-161 -139.5
t-272 -51.5z" />
    <glyph glyph-name="four" unicode="4" horiz-adv-x="1200" 
d="M722 0v181v200l5 31v450v213.5v212.5l129 40q-57 -82 -111.5 -159t-109.5 -155l-239 -339q-48 -68 -95 -135t-96 -135l-6 61h567h29h116h126.5h110.5v-150h-110.5h-126.5h-116h-735v118q43 60 94 132.5t103.5 146.5t97.5 137l176 250l96 136l96 136h168v-243.5v-238.5
v-509v-200v-181h-169z" />
    <glyph glyph-name="five" unicode="5" horiz-adv-x="1149" 
d="M548 -22q-64 0 -127 8.5t-122.5 24t-112.5 35.5t-97 43l17 162q54 -30 109.5 -53t110 -38.5t107 -23.5t101.5 -8q172 0 255.5 82.5t83.5 230.5q0 109 -43 174.5t-116.5 95t-163.5 29.5q-78 0 -149 -19t-151 -74l-76 7v214v261.5v242.5h791v-150h-241.5h-241.5h-203l60 58
q0 -93 -0.5 -185.5t-1.5 -184.5v-92h17q57 31 123.5 48.5t139.5 17.5q118 0 215.5 -47.5t156 -144.5t58.5 -245q0 -140 -56.5 -245.5t-168 -164.5t-274.5 -59z" />
    <glyph glyph-name="six" unicode="6" horiz-adv-x="1214" 
d="M635 -22q-169 0 -286 78t-177.5 229t-60.5 372q0 181 36 319.5t106 232t170.5 141t230.5 47.5q53 0 104 -7t98.5 -20t91.5 -30.5t83 -39.5l-20 -160q-40 27 -83.5 47t-88 33t-89 19.5t-87.5 6.5q-135 0 -220 -67.5t-125 -199.5t-40 -326q0 -175 40.5 -291.5t118.5 -175
t192 -58.5q109 0 178 46t102 119.5t33 155.5t-32 149t-99.5 107t-173.5 40q-43 0 -87.5 -8t-90.5 -27.5t-93 -53t-95 -85.5q-17 32 -22 56.5t0 48.5t21 56l29 -2q39 39 82.5 68.5t91 49.5t99.5 30t108 10q133 0 229.5 -54.5t149 -151.5t52.5 -224q0 -124 -52.5 -233.5
t-158.5 -178t-265 -68.5z" />
    <glyph glyph-name="seven" unicode="7" horiz-adv-x="1056" 
d="M219 0q62 136 124.5 271.5t122.5 267.5l191 416q36 76 71 152t69 153l34 -38h-281h-249h-251v149h927v-117q-56 -123 -110 -242t-111 -245l-127 -279q-54 -120 -110 -242.5t-111 -245.5h-189z" />
    <glyph glyph-name="eight" unicode="8" horiz-adv-x="1214" 
d="M608 -22q-172 0 -284 54t-167 146t-55 206q0 113 45.5 186.5t111.5 114t126 53.5v17q-61 17 -115 57t-88 101.5t-34 142.5q0 103 56 180t159.5 119.5t244.5 42.5q140 0 242.5 -42.5t159 -119.5t56.5 -180q0 -81 -34 -142.5t-88.5 -101.5t-115.5 -57v-17q61 -13 127 -53.5
t111.5 -114.5t45.5 -186q0 -114 -55 -206t-166.5 -146t-282.5 -54zM608 130q117 0 191 35t108.5 96t34.5 138q0 90 -44 149.5t-120.5 89t-171.5 29.5q-94 0 -170 -29.5t-120 -89t-44 -149.5q0 -77 34.5 -138t108.5 -96t193 -35zM608 803q139 0 215.5 65.5t76.5 166.5
q0 105 -80 160t-212 55q-134 0 -213.5 -55t-79.5 -160q0 -68 34.5 -120t99.5 -82t159 -30z" />
    <glyph glyph-name="nine" unicode="9" horiz-adv-x="1214" 
d="M560 -22q-53 0 -104 7.5t-99 20.5t-92 31t-83 39l20 160q41 -27 84 -47t87.5 -33t89.5 -19.5t87 -6.5q136 0 221 67.5t124.5 199.5t39.5 326q0 175 -40.5 291.5t-118.5 174.5t-191 58q-110 0 -179 -45.5t-101.5 -119t-32.5 -155.5t32 -149t99 -107t173 -40q43 0 87.5 8
t91 27.5t93.5 53t94 85.5q17 -32 22.5 -56.5t0 -49t-21.5 -55.5l-28 2q-40 -38 -83.5 -68t-91 -50t-99.5 -30t-108 -10q-132 0 -229 54.5t-149.5 151.5t-52.5 224q0 124 53 233.5t158.5 177.5t265.5 68q169 0 285.5 -77.5t177.5 -229t61 -371.5q0 -182 -36.5 -320.5
t-106 -231.5t-170.5 -141t-230 -48z" />
    <glyph glyph-name="colon" unicode=":" horiz-adv-x="472" 
d="M236 756q-41 0 -70.5 17t-45.5 46t-16 68q0 59 36 94t96 35q42 0 71 -16t45.5 -45t16.5 -68q0 -58 -35.5 -94.5t-97.5 -36.5zM236 -22q-41 0 -70.5 17t-45.5 46t-16 68q0 59 36 94t96 35q42 0 71 -16t45.5 -45t16.5 -68q0 -58 -35.5 -94.5t-97.5 -36.5z" />
    <glyph glyph-name="semicolon" unicode=";" horiz-adv-x="472" 
d="M236 756q-41 0 -70.5 17t-45.5 46t-16 68q0 59 36 94t96 35q42 0 71 -16t45.5 -45t16.5 -68q0 -58 -35.5 -94.5t-97.5 -36.5zM75 -314q39 56 61.5 112t32.5 117t10 132v95v97l84 6q55 -4 80 -41.5t25 -91.5q0 -62 -16.5 -123t-45.5 -117t-65 -102.5t-75 -80.5z" />
    <glyph glyph-name="less" unicode="&#x3c;" horiz-adv-x="1136" 
d="M1013 146q-93 39 -181.5 76t-167.5 70l-196 84q-76 32 -164 69t-180 76v150q93 40 181 77t164 69l196 83q78 33 166.5 70t181.5 77v-158q-107 -45 -216.5 -92t-219.5 -93l-231 -99v-18l231 -98q109 -46 219.5 -93t216.5 -93v-157z" />
    <glyph glyph-name="equal" unicode="=" horiz-adv-x="1136" 
d="M129 300v148h182h164h186h165h181v-148h-181h-165h-186h-164h-182zM129 748v147h182h164h186h165h181v-147h-181h-165h-186h-164h-182z" />
    <glyph glyph-name="greater" unicode="&#x3e;" horiz-adv-x="1136" 
d="M124 146v157q106 46 216.5 93t219.5 93l230 98v18l-230 98l-220 94t-216 92v158q93 -39 181.5 -76.5t165.5 -70.5l197 -83q76 -32 164 -69.5t181 -76.5v-150q-93 -39 -181 -76t-164 -69l-197 -84q-77 -33 -165.5 -70t-181.5 -76z" />
    <glyph glyph-name="question" unicode="?" horiz-adv-x="856" 
d="M433 441q-117 0 -181.5 54.5t-64.5 144.5q0 64 29.5 112.5t76.5 88.5t100 78q50 37 95.5 76t75 86.5t29.5 107.5q0 81 -56.5 123t-158.5 42q-46 0 -93.5 -9t-97 -26.5t-98.5 -43.5l-10 149q27 12 62 24.5t77 24t89.5 18.5t99.5 7q106 0 184 -31t121 -94t43 -156
q0 -92 -39.5 -160t-98 -119t-116.5 -93q-65 -47 -114 -93.5t-49 -104.5q0 -63 40.5 -87.5t94.5 -24.5q37 0 67.5 8t50.5 16l7 -92q-18 -7 -44.5 -12.5t-57.5 -9.5t-63 -4zM394 -22q-40 0 -69.5 17t-46 46t-16.5 68q0 59 36 94t97 35q41 0 70.5 -16t45.5 -45t16 -68
q0 -58 -35 -94.5t-98 -36.5z" />
    <glyph glyph-name="at" unicode="@" horiz-adv-x="1765" 
d="M945 -263q-235 0 -407.5 79t-278 214t-141.5 306t2 354q36 172 113.5 296.5t187 205.5t241.5 120t276 39q186 0 332 -67t242.5 -185.5t133 -273.5t2.5 -331q-19 -100 -60 -170t-92 -114.5t-104.5 -65t-98.5 -20.5q-77 0 -128 22.5t-80.5 57t-40.5 72.5h-14
q-50 -69 -123 -101t-137 -32q-118 0 -189.5 65.5t-95 171.5t1.5 228q23 109 75.5 191.5t128.5 128.5t169 46q57 0 105 -16t86 -43.5t65 -62.5h15l25 102l125 9q-23 -113 -48.5 -235.5t-52.5 -245.5l-8 -40q-22 -109 11 -156t102 -47q43 0 82 20t72 56.5t57.5 88t36.5 113.5
q31 152 2 283.5t-109 230.5t-204.5 154t-286.5 55q-176 0 -319.5 -63.5t-241.5 -190.5t-139 -317q-35 -161 -6 -309t119.5 -263.5t240 -182t356.5 -66.5q79 0 171 13.5t191.5 50t203.5 104.5v-128q-81 -53 -175.5 -86.5t-194 -49t-196.5 -15.5zM805 269q62 0 120.5 34.5
t101.5 109.5l70 332q-38 44 -88.5 72t-119.5 28q-109 0 -175 -74t-90 -185q-18 -87 -4 -159t60 -115t125 -43z" />
    <glyph glyph-name="A" unicode="A" horiz-adv-x="1380" 
d="M59 0q42 115 87.5 242t87.5 241l177 490q47 132 86 238.5t78 214.5h238q39 -110 77 -216t85 -238l176 -491q42 -118 86.5 -242.5t85.5 -238.5h-188q-43 125 -88.5 257.5t-85.5 249.5l-260 756h-17l-262 -749q-43 -122 -89 -255.5t-91 -258.5h-183zM323 358l16 142h722
l13 -142h-751z" />
    <glyph glyph-name="B" unicode="B" horiz-adv-x="1291" 
d="M629 0h-185h-151h-108v229v242v479v245v231h247.5h276.5q125 0 212.5 -23.5t142.5 -67t81 -105.5t26 -140q0 -91 -33 -159t-89.5 -113t-128.5 -67v-18q74 -14 140 -52t107 -108.5t41 -180.5q0 -84 -28.5 -155.5t-94 -124.5t-177 -82.5t-279.5 -29.5zM362 150h281
q136 0 219.5 31t121 88t37.5 136q0 131 -92 187.5t-258 56.5h-349v145h349q110 0 179.5 36t101.5 94t32 127q0 117 -72.5 171t-215.5 54h-334v-173v-189v-409v-185v-170z" />
    <glyph glyph-name="C" unicode="C" horiz-adv-x="1370" 
d="M831 -22q-169 0 -304.5 55t-230.5 154.5t-145.5 234t-50.5 293.5q0 216 89 382.5t247 260.5t368 94q71 0 138 -10t127 -27t111 -37t88 -41l-16 -174q-78 46 -151.5 74.5t-144 41.5t-137.5 13q-154 0 -274 -70t-188.5 -199.5t-68.5 -308.5q0 -119 35.5 -224t106 -185
t175 -125.5t243.5 -45.5q51 0 102 6.5t101 20.5t98.5 37.5t95.5 55.5l14 -172q-42 -27 -92.5 -47t-106 -32.5t-113.5 -18.5t-116 -6z" />
    <glyph glyph-name="D" unicode="D" horiz-adv-x="1473" 
d="M185 0v229v242v478v246.5v230.5h172h163h166q165 0 293 -47.5t215.5 -139t133 -222.5t45.5 -298q0 -151 -40 -281.5t-127.5 -229t-229 -153.5t-344.5 -55h-159h-142.5h-145.5zM366 151h267q204 0 325 74.5t174 204t53 292.5q0 125 -31.5 227t-96 175t-165 112t-237.5 39
h-289v-171.5v-187.5v-410v-185v-170z" />
    <glyph glyph-name="E" unicode="E" horiz-adv-x="1187" 
d="M185 0v229v242v479v245v231h886v-155h-214.5h-270.5h-324l100 129v-231.5v-244.5v-426v-241.5v-229.5l-90 128h330h247.5h223.5v-155h-888zM323 647v151h277h238h193v-151h-197.5h-234.5h-276z" />
    <glyph glyph-name="F" unicode="F" horiz-adv-x="1147" 
d="M185 0v229v242v478v246.5v230.5h869v-156h-214.5h-269.5h-284l77 130v-231.5v-245.5v-452v-242v-229h-178zM320 638v151h263h238h193v-151h-198.5h-234.5h-261z" />
    <glyph glyph-name="G" unicode="G" horiz-adv-x="1466" 
d="M860 -21q-186 0 -327.5 55.5t-237.5 155.5t-145.5 234.5t-49.5 291.5q0 215 88.5 381.5t250 260.5t380.5 94q75 0 145.5 -10t133 -27.5t115 -37.5t90.5 -40l-16 -174q-83 46 -161 74.5t-152 41.5t-144 13q-119 0 -218.5 -39t-172.5 -114t-112.5 -182t-39.5 -242
q0 -122 34.5 -228t106 -186t182.5 -124.5t263 -44.5q56 0 112 5.5t110.5 18t107.5 32t103 46.5l21 -170q-34 -16 -84.5 -31t-112.5 -27.5t-130.5 -19.5t-139.5 -7zM1156 61v185v158v166v146h171v-146v-166v-157.5v-182.5z" />
    <glyph glyph-name="H" unicode="H" horiz-adv-x="1499" 
d="M1133 0v229v242v478v246.5v230.5h181v-230.5v-246.5v-478v-242v-229h-181zM185 0v229v242v478v246.5v230.5h181v-230.5v-246.5v-478v-242v-229h-181zM303 644v156h899v-156h-899z" />
    <glyph glyph-name="I" unicode="I" horiz-adv-x="559" 
d="M188 0v229v242v478v246.5v230.5h184v-230.5v-246.5v-478v-242v-229h-184z" />
    <glyph glyph-name="J" unicode="J" horiz-adv-x="582" 
d="M30 -316q58 65 99 131t62.5 143t21.5 178v411v402v246.5v230.5h182v-230.5v-246.5v-357v-243v-230q0 -81 -14.5 -146.5t-39.5 -118t-57.5 -94t-67.5 -76.5h-186z" />
    <glyph glyph-name="K" unicode="K" horiz-adv-x="1342" 
d="M1055 0q-95 103 -178.5 193.5t-162.5 176.5l-271 293h-98v149h97l235 245q83 86 164 171t188 198h220q-110 -113 -214.5 -221.5t-208.5 -216.5l-264 -275l-3 80l293 -323q69 -74 146.5 -160t152.5 -167t131 -143h-227zM185 0v229v242v478v246.5v230.5h181v-230.5v-246.5
v-478v-242v-229h-181z" />
    <glyph glyph-name="L" unicode="L" horiz-adv-x="1145" 
d="M185 0v229v242v478v246.5v230.5h181v-230.5v-246.5v-450v-242v-229l-68 133h262h201.5h162h152.5v-161h-891z" />
    <glyph glyph-name="M" unicode="M" horiz-adv-x="1915" 
d="M134 0q14 116 28.5 229t30.5 246l59 470q16 131 30 244t30 237h182q62 -152 120 -293.5t115 -281.5l226 -554h14l224 553q57 142 114 282t118 294h182q15 -122 28.5 -235t30.5 -245l58 -475q16 -130 30 -241.5t28 -229.5h-173q-23 190 -44 361t-39 319l-52 426h-13
l-181 -459q-66 -167 -132 -334.5t-123 -312.5h-123q-36 91 -80 200t-90.5 223t-90.5 221l-187 462h-13l-52 -425q-18 -149 -38.5 -320t-43.5 -361h-173z" />
    <glyph glyph-name="N" unicode="N" horiz-adv-x="1508" 
d="M185 0v229v242v478v246.5v230.5h163q128 -180 246 -347t233 -329l309 -436h15v635v246.5v230.5h172v-230.5v-246.5v-478v-242v-229h-161q-106 150 -223 315.5t-257 363.5l-311 439h-14v-647v-242v-229h-172z" />
    <glyph glyph-name="O" unicode="O" horiz-adv-x="1634" 
d="M824 -22q-181 0 -317 58.5t-226.5 161t-135.5 235.5t-45 281q0 208 84.5 375t244.5 265t389 98q174 0 307.5 -57t224.5 -158t137 -235t46 -287q0 -211 -84 -377.5t-243 -263t-382 -96.5zM819 134q137 0 236 47.5t163.5 129.5t95.5 186.5t31 217.5q0 122 -33.5 227.5
t-100 185t-164.5 124t-228 44.5q-134 0 -233.5 -47t-165.5 -128.5t-99 -186t-33 -219.5q0 -116 32 -220t97.5 -185.5t165.5 -128.5t236 -47z" />
    <glyph glyph-name="P" unicode="P" horiz-adv-x="1255" 
d="M185 0v229v242v479v245v231h209.5h294.5q163 0 269.5 -43t159.5 -133.5t53 -231.5q0 -131 -48.5 -232.5t-162 -159.5t-309.5 -58h-107h-111h-94v150h278q128 0 209.5 30t120.5 96t39 173q0 88 -28.5 140t-75 77.5t-100.5 33.5t-105 8h-402l88 124v-231.5v-244.5v-453
v-242v-229h-178z" />
    <glyph glyph-name="Q" unicode="Q" horiz-adv-x="1634" 
d="M1291 -337q-63 53 -125.5 104.5t-125.5 103.5l-161 134l99 104l200 -155q65 -51 130.5 -101.5t144.5 -112.5zM824 -22q-181 0 -317 58.5t-226.5 161t-135.5 235.5t-45 281q0 208 84.5 375t244.5 265t389 98q174 0 307.5 -57t224.5 -158t137 -235t46 -287
q0 -211 -84 -377.5t-243 -263t-382 -96.5zM819 134q137 0 236 47.5t163.5 129.5t95.5 186.5t31 217.5q0 122 -33.5 227.5t-100 185t-164.5 124t-228 44.5q-134 0 -233.5 -47t-165.5 -128.5t-99 -186t-33 -219.5q0 -116 32 -220t97.5 -185.5t165.5 -128.5t236 -47z" />
    <glyph glyph-name="R" unicode="R" horiz-adv-x="1340" 
d="M185 0v229v242v479v245v231h131.5h163h187.5q163 0 271.5 -38.5t163 -123.5t54.5 -224q0 -117 -45.5 -214t-151.5 -155.5t-287 -59.5l57 79l225 -281q53 -65 112 -139t115 -144.5t100 -125.5h-212q-71 90 -136.5 174t-129.5 164l-256 330l111 -89h-327v149h271
q125 0 206 29t121 93.5t40 171.5q0 89 -28.5 140.5t-75 75.5t-100.5 31t-104 7h-420l121 124v-234v-242v-453v-242v-229h-177z" />
    <glyph glyph-name="S" unicode="S" horiz-adv-x="1173" 
d="M599 -22q-89 0 -179.5 16.5t-167 41t-123.5 49.5l17 171q67 -37 139.5 -64.5t148 -42.5t154.5 -15q89 0 160.5 24.5t113 78t41.5 140.5q0 76 -43 125.5t-124.5 85.5t-197.5 72q-136 43 -232 93t-146.5 123.5t-50.5 187.5q0 111 52.5 199t156.5 138.5t258 50.5
q64 0 126.5 -9t119.5 -24.5t104 -34.5t80 -39l-18 -172q-61 41 -129 68.5t-135 41t-124 13.5q-81 0 -149 -24t-109.5 -73.5t-41.5 -127.5q0 -68 35 -113t110.5 -80.5t194.5 -73.5q172 -54 270.5 -109.5t140 -128.5t41.5 -179q0 -117 -51.5 -209t-160.5 -146t-281 -54z" />
    <glyph glyph-name="T" unicode="T" horiz-adv-x="1282" 
d="M551 0v229v242v452v245.5v231.5l72 -135h-169h-214.5h-177.5v161h1158v-161h-177h-215h-169l73 135v-231.5v-245.5v-452v-242v-229h-181z" />
    <glyph glyph-name="U" unicode="U" horiz-adv-x="1461" 
d="M731 -22q-199 0 -323.5 68.5t-183 193t-58.5 290.5v108.5v147.5v163v246.5v230.5h180v-230.5v-246.5v-401q0 -129 38 -222t122.5 -142.5t224.5 -49.5q141 0 224.5 49.5t120.5 142.5t37 224v399v246.5v230.5h180v-230.5v-246.5v-163.5v-148.5v-107q0 -166 -59 -290.5
t-183 -193t-320 -68.5z" />
    <glyph glyph-name="V" unicode="V" horiz-adv-x="1373" 
d="M565 0q-38 107 -81.5 228t-80.5 224l-160 447q-27 77 -59.5 166.5t-65.5 182.5t-64 178h201q52 -153 112 -327t112 -327l201 -585h17l203 588q53 156 111 324t112 327h194q-30 -86 -62.5 -177.5t-64.5 -181t-59 -166.5l-160 -450q-37 -104 -79 -223t-81 -228h-246z" />
    <glyph glyph-name="W" unicode="W" horiz-adv-x="2040" 
d="M465 0q-30 106 -65 227t-65 224l-128 446q-34 119 -75 261.5t-77 267.5h200q42 -153 87 -322t86 -322l153 -568h17l149 575q26 99 54.5 208.5l57 219t54.5 209.5h210q40 -153 84 -318.5t85 -320.5l152 -573h17l155 576q40 149 85 318t85 318h201q-37 -127 -77.5 -267
t-75.5 -258l-130 -450q-31 -107 -65.5 -227.5t-65.5 -223.5h-232q-40 147 -84.5 310t-83.5 306l-152 556h-18l-149 -556q-38 -144 -82 -308t-83 -308h-224z" />
    <glyph glyph-name="X" unicode="X" horiz-adv-x="1357" 
d="M73 0q60 97 122 197t130 209l219 352v-53l-191 292q-67 101 -134.5 204t-146.5 225h209q63 -96 122 -188.5t113 -175.5l138 -215h17l135 217q53 83 110.5 176t115.5 186h204q-71 -114 -136 -217t-120 -190l-205 -327v58l212 -312q78 -114 150 -219.5t149 -218.5h-216
q-63 95 -119.5 179.5t-109.5 162.5l-172 258h-18l-161 -259q-51 -83 -102.5 -165t-109.5 -176h-205z" />
    <glyph glyph-name="Y" unicode="Y" horiz-adv-x="1304" 
d="M568 557l-311 527q-50 84 -96 162.5t-106 179.5h207q55 -96 94 -165t74 -130.5t77 -135.5l138 -243h18l134 234q45 79 81.5 143t76.5 133.5t94 163.5h203q-51 -87 -101.5 -172.5t-99.5 -168.5l-311 -528h-172zM564 0v229v242v237h181v-237v-242v-229h-181z" />
    <glyph glyph-name="Z" unicode="Z" horiz-adv-x="1343" 
d="M96 0v104q56 74 126.5 166t142 185t131.5 171l543 709l42 -64h-407h-267.5h-294.5v155h1119v-130q-94 -121 -183.5 -238t-179.5 -234l-573 -745l-27 76h372h198h214.5h186.5v-155h-1143z" />
    <glyph glyph-name="bracketleft" unicode="[" horiz-adv-x="745" 
d="M191 -234v229.5v241.5v819v245.5v231.5h520v-139h-138.5h-175.5h-125l74 112v-230.5v-245.5v-765v-242v-229l-65 110h126h159.5h145.5v-138h-521z" />
    <glyph glyph-name="backslash" unicode="\" horiz-adv-x="890" 
d="M668 0q-48 112 -92.5 216t-102.5 240l-210 492q-41 97 -75 176t-65.5 152t-63.5 150h164q49 -115 95.5 -223.5t106.5 -250.5l212 -496q58 -136 102.5 -240t92.5 -216h-164z" />
    <glyph glyph-name="bracketright" unicode="]" horiz-adv-x="745" 
d="M34 -234v138h139h175h124l-73 -112v232.5v244.5v765v242.5v228.5l65 -111h-127h-158.5h-146.5v139h521v-229v-242v-819v-245v-232h-519z" />
    <glyph glyph-name="asciicircum" unicode="^" horiz-adv-x="1217" 
d="M937 758q-79 118 -159.5 235.5t-160.5 234.5h-17q-80 -115 -160 -231.5t-159 -232.5h-160q96 153 192 304t192 303h207q96 -152 192.5 -305t191.5 -306z" />
    <glyph glyph-name="underscore" unicode="_" horiz-adv-x="804" 
d="M-20 -242v138h182h164h152h164.5h181.5v-138h-181.5h-164.5h-152h-164h-182z" />
    <glyph glyph-name="grave" unicode="`" horiz-adv-x="1200" 
d="M614 1154q-53 66 -106.5 131.5t-107 132.5t-108.5 134l184 4q68 -99 136 -198.5t136 -201.5z" />
    <glyph glyph-name="a" unicode="a" horiz-adv-x="1046" 
d="M404 -20q-89 0 -156 34.5t-104.5 98.5t-37.5 154q0 81 29 136.5t76 90.5t104 54.5t114 29.5l311 54q4 101 -26.5 152.5t-85.5 69.5t-122 18q-34 0 -73 -5t-82.5 -15.5t-91.5 -26.5t-101 -39l-9 151q36 15 81.5 29t97 25.5t105.5 17.5t109 6q111 0 191.5 -35t123.5 -110
t43 -196v-117v-135v-129v-138.5v-154.5h-150l-9 141h-16q-31 -40 -78 -77t-108.5 -60.5t-134.5 -23.5zM452 117q53 0 106 22t99.5 65.5t78.5 109.5l1 214q-16 -9 -42.5 -18t-79 -20.5t-145.5 -28.5q-57 -10 -101 -32.5t-69.5 -61t-25.5 -93.5q0 -86 51.5 -121.5t126.5 -35.5
z" />
    <glyph glyph-name="b" unicode="b" horiz-adv-x="1183" 
d="M658 -22q-69 0 -127 18.5t-106 53t-87 83.5h-16l-14 -133h-136v213v225v549v245v232l165 20v-242.5v-254.5v-106h17q28 37 72.5 67.5t102.5 49t126 18.5q136 0 231.5 -67.5t145.5 -184.5t50 -265q0 -139 -46.5 -257.5t-141 -191t-236.5 -72.5zM608 126q107 0 174.5 53
t99 137.5t31.5 181.5q0 101 -33.5 184.5t-101.5 133.5t-173 50q-52 0 -102 -15.5t-92.5 -46t-73.5 -75.5v-441q30 -51 69.5 -87t89.5 -55.5t112 -19.5z" />
    <glyph glyph-name="c" unicode="c" horiz-adv-x="989" 
d="M604 -20q-161 0 -273.5 68t-171.5 185t-59 264t56.5 264.5t165 185.5t264.5 68q58 0 114.5 -10t106.5 -26.5t89 -38.5l-15 -152q-56 32 -105.5 49.5t-92 24t-78.5 6.5q-152 0 -244 -99.5t-92 -268.5q0 -106 40.5 -191.5t122 -135t202.5 -49.5q43 0 85.5 8t84.5 23.5
t81 40.5l14 -151q-33 -18 -77 -32.5t-98.5 -23.5t-119.5 -9z" />
    <glyph glyph-name="d" unicode="d" horiz-adv-x="1155" 
d="M525 -22q-142 0 -236 72.5t-141 191t-47 257.5q0 148 50 265t145.5 184.5t231.5 67.5q69 0 126.5 -18.5t101.5 -49t73 -67.5h17v106v244.5v232.5l165 20v-242.5v-254.5v-549v-225v-213h-144l-8 136h-16q-39 -51 -87 -86t-105.5 -53.5t-125.5 -18.5zM575 126
q62 0 112 19.5t89.5 55.5t69.5 87v441q-31 45 -73.5 75.5t-92.5 46t-102 15.5q-105 0 -173 -50t-101.5 -133.5t-33.5 -184.5q0 -97 32 -181.5t99 -137.5t174 -53z" />
    <glyph glyph-name="e" unicode="e" horiz-adv-x="1055" 
d="M620 -22q-178 0 -293 68t-171 186t-56 270q0 150 55 266t158 181.5t246 65.5q126 0 216.5 -49t139.5 -143.5t49 -233.5q0 -37 -1.5 -66.5t-6.5 -59.5l-145 73q2 16 2.5 30.5t0.5 28.5q0 141 -70 214.5t-183 73.5q-91 0 -156.5 -46.5t-101.5 -128.5t-36 -187v-23
q0 -116 40 -200t121.5 -129.5t207.5 -45.5q47 0 99.5 7.5t104 23.5t98.5 42l7 -149q-38 -21 -88 -36.5t-110 -24t-127 -8.5zM169 463v118l686 6l101 -38v-86h-787z" />
    <glyph glyph-name="f" unicode="f" horiz-adv-x="790" 
d="M237 0v213v225v100v128.5v140.5v151.5v163.5q0 106 28.5 177t79 113t115.5 60.5t139 18.5q36 0 70 -3.5t62.5 -9.5t48.5 -14l-15 -143q-32 12 -68.5 18.5t-76.5 6.5q-117 0 -170.5 -56.5t-53.5 -171.5v-69.5v-56.5l6 -37v-517v-225v-213h-165zM49 861v131h689v-131h-195
h-191h-68h-235z" />
    <glyph glyph-name="g" unicode="g" horiz-adv-x="1084" 
d="M488 -406q-111 0 -185 20t-117 54t-61.5 75.5t-18.5 84.5q0 67 33 112.5t77 71.5t77 36v14q-17 5 -41 21.5t-43 46.5t-19 76q0 35 13.5 65t41.5 53t69 40v15q-23 8 -59 30t-72.5 59.5t-61.5 92.5t-25 130q0 97 47.5 170t135 113.5t205.5 40.5q48 0 83.5 -5t73.5 -10.5
t93 -5.5h309v-124h-193h-189l47 78q88 -42 126.5 -111.5t38.5 -156.5q0 -98 -40 -165.5t-113 -109t-170 -63.5q-105 -25 -156 -45.5t-51 -61.5q0 -29 21 -45t66.5 -23t120.5 -7h43q138 0 226 -21.5t130.5 -71.5t42.5 -133q0 -86 -45 -150.5t-120 -106.5t-163.5 -62.5
t-176.5 -20.5zM502 -272q110 0 184.5 30.5t111.5 72.5t37 78q0 38 -22 63t-82 37.5t-174 12.5h-37q-64 -1 -124 -21t-98.5 -55.5t-38.5 -82.5q0 -26 12.5 -50.5t41 -43.5t75 -30t114.5 -11zM473 459q37 6 79.5 18.5t80 35.5t61.5 61t24 96q0 72 -37 117t-91.5 66.5
t-105.5 21.5q-61 0 -114 -21.5t-86 -65t-33 -109.5t32.5 -112t83 -73t106.5 -35z" />
    <glyph glyph-name="h" unicode="h" horiz-adv-x="1146" 
d="M172 0v213v225v549v245v232l165 20v-241.5v-255.5v-160h18q30 42 77.5 86t113 73.5t149.5 29.5q158 0 231 -91t73 -264v-115v-108v-222.5v-215.5h-165v214.5v216.5v188q0 119 -42.5 180t-153.5 61q-67 0 -122 -27t-99.5 -72.5t-79.5 -100.5v-229v-218.5v-212.5h-165z" />
    <glyph glyph-name="i" unicode="i" horiz-adv-x="514" 
d="M174 0v213v225v100v164.5v146v143.5l166 6v-145.5v-148v-166.5v-100v-225v-213h-166zM254 1221q-54 0 -88 30t-34 92q0 61 34 91.5t90 30.5q55 0 88 -31.5t33 -90.5q0 -62 -33 -92t-90 -30z" />
    <glyph glyph-name="j" unicode="j" horiz-adv-x="510" 
d="M10 -390q58 63 94.5 128.5t53 143t16.5 179.5v377v100v164.5v146v143.5l166 6v-145.5v-148v-166.5v-203v-158v-139q0 -75 -10.5 -138t-31 -115t-48.5 -94t-63 -75zM254 1221q-54 0 -88 30t-34 92q0 61 34 91.5t90 30.5q55 0 88 -31.5t33 -90.5q0 -62 -33 -92t-90 -30z
" />
    <glyph glyph-name="k" unicode="k" horiz-adv-x="1084" 
d="M830 0q-67 68 -135.5 136t-135.5 135l-171 171h-70v118h80l144 153q66 69 133 139.5t132 139.5h204q-86 -87 -171 -174t-169 -174l-169 -172l-6 80l196 -202q89 -88 177.5 -175.5t175.5 -174.5h-215zM172 0v213v225v549v245v232l165 20v-241.5v-255.5v-575v-209v-203
h-165z" />
    <glyph glyph-name="l" unicode="l" horiz-adv-x="508" 
d="M172 0v213v225v549v245v232l165 20v-242.5v-254.5v-549v-225v-213h-165z" />
    <glyph glyph-name="m" unicode="m" horiz-adv-x="1745" 
d="M172 0v213v225v100v225v229l144 10l5 -182h18q31 44 78.5 89.5t112.5 76t149 30.5q122 0 187.5 -60.5t85.5 -173.5l10 -6q4 -27 6.5 -55.5t2.5 -59.5v-115v-108v-222.5v-215.5h-165v214.5v216.5v188q0 119 -40 180t-145 61q-64 0 -115.5 -27.5t-93 -73t-75.5 -99.5v-229
v-218.5v-212.5h-165zM1432 0v214.5v216.5v188q0 119 -40 180t-145 61q-63 0 -114.5 -27t-94 -72.5t-75.5 -100.5l-24 156h18q34 46 83.5 92.5t115.5 77t150 30.5q156 0 223.5 -93t67.5 -262v-115v-108v-222.5v-215.5h-165z" />
    <glyph glyph-name="n" unicode="n" horiz-adv-x="1146" 
d="M172 0v213v225v100v225v229l144 10l5 -184h18q32 45 82 91t118 76.5t156 30.5q158 0 231 -91t73 -264v-115v-108v-222.5v-215.5h-165v214.5v216.5v188q0 119 -42.5 180t-153.5 61q-67 0 -122 -27t-99.5 -72.5t-79.5 -100.5v-229v-218.5v-212.5h-165z" />
    <glyph glyph-name="o" unicode="o" horiz-adv-x="1195" 
d="M601 -22q-123 0 -216.5 42.5t-156.5 115.5t-95.5 167.5t-32.5 198.5q0 149 60.5 264.5t172 182.5t265.5 67q119 0 211 -39t156 -109t97 -163.5t33 -202.5q0 -147 -60 -266t-170.5 -188.5t-263.5 -69.5zM601 122q109 0 181 54t108 141t36 185q0 112 -40 195t-113 129
t-173 46q-108 0 -182 -49t-111.5 -133t-37.5 -188q0 -98 36.5 -185t110.5 -141t185 -54z" />
    <glyph glyph-name="p" unicode="p" horiz-adv-x="1183" 
d="M172 -390v215.5v228.5v484v225v229l150 10l4 -129h17q30 39 76 71.5t105.5 52t130.5 19.5q136 0 231.5 -67.5t145.5 -184.5t50 -265q0 -139 -46.5 -257.5t-141 -191t-236.5 -72.5q-66 0 -122 17.5t-101.5 50t-82.5 79.5h-15v-78v-218.5v-212.5zM608 126q107 0 174.5 53
t99 137.5t31.5 181.5q0 101 -33.5 184.5t-101.5 133.5t-173 50q-52 0 -102 -15.5t-92.5 -46t-73.5 -75.5v-441q30 -51 69.5 -87t89.5 -55.5t112 -19.5z" />
    <glyph glyph-name="q" unicode="q" horiz-adv-x="1169" 
d="M846 -390v215v222v79h-14q-38 -47 -84 -80t-101.5 -50.5t-121.5 -17.5q-142 0 -236 72.5t-141 191t-47 257.5q0 148 50 265t145.5 184.5t231.5 67.5q71 0 130.5 -19.5t105.5 -52t76 -71.5h17l4 119l150 10v-229.5v-234.5v-484v-225v-213zM575 126q62 0 112 19.5
t89.5 55.5t69.5 87v441q-31 45 -73.5 75.5t-92.5 46t-102 15.5q-105 0 -173 -50t-101.5 -133.5t-33.5 -184.5q0 -97 32 -181.5t99 -137.5t174 -53z" />
    <glyph glyph-name="r" unicode="r" horiz-adv-x="799" 
d="M172 0v213v225v100v225v229l144 10l5 -202h17q41 91 94.5 137.5t108.5 62.5t101 16q28 0 56 -4t53 -13l-15 -166q-33 6 -59.5 10t-61.5 4q-29 0 -65.5 -8.5t-75 -35t-74.5 -79t-63 -139.5v-154v-218.5v-212.5h-165z" />
    <glyph glyph-name="s" unicode="s" horiz-adv-x="910" 
d="M452 -22q-62 0 -124.5 10t-117.5 26.5t-96 37.5l13 155q46 -26 98.5 -45.5t109 -30t113.5 -10.5q55 0 101.5 12.5t74 46t27.5 97.5q0 42 -24 69t-80.5 49t-152.5 49q-79 22 -141 54t-97.5 86t-35.5 141q0 135 88.5 212.5t238.5 77.5q62 0 120 -10.5t107 -27.5t85 -36
l-14 -155q-48 30 -99 49.5t-98 28t-83 8.5q-41 0 -81.5 -11.5t-67.5 -42t-27 -87.5q0 -41 19 -69t66 -50t130 -46q99 -29 169.5 -60.5t108.5 -82.5t38 -141q0 -87 -38 -155.5t-119 -108.5t-211 -40z" />
    <glyph glyph-name="t" unicode="t" horiz-adv-x="820" 
d="M548 -22q-99 0 -168 34.5t-104.5 105t-35.5 180.5v172.5v168v159v146.5v189v181l163 36v-137v-127v-142v-607q0 -107 45.5 -161t139.5 -54q37 0 81 12.5t78 39.5l14 -145q-20 -15 -54 -26.5t-75 -18t-84 -6.5zM49 861v131h702v-131h-201.5h-197.5h-68h-235z" />
    <glyph glyph-name="u" unicode="u" horiz-adv-x="1117" 
d="M451 -22q-158 0 -231 91t-73 264v114.5v95.5v163.5v143.5v142l165 7v-216v-223v-188q0 -118 43 -179.5t153 -61.5q64 0 117 27.5t97 72.5t80 100v229v220v212h165v-214v-235v-105v-225v-213h-144l-6 175h-18q-31 -45 -80.5 -90.5t-116.5 -76t-151 -30.5z" />
    <glyph glyph-name="v" unicode="v" horiz-adv-x="1026" 
d="M420 0q-35 93 -70.5 189t-69.5 186l-66 176q-41 109 -82.5 220.5t-81.5 220.5l177 7q44 -126 85.5 -250t84.5 -250l109 -318h17l109 319q44 127 85.5 249.5t82.5 242.5h176q-41 -109 -82.5 -221t-81.5 -222l-66 -178q-35 -94 -69 -185.5t-69 -185.5h-188z" />
    <glyph glyph-name="w" unicode="w" horiz-adv-x="1601" 
d="M374 0q-30 94 -61 187.5t-63 190.5l-57 176q-36 110 -71.5 218.5t-71.5 219.5l174 7q37 -122 77.5 -256.5t77.5 -258.5l92 -307h16l90 314q36 125 72 249.5t73 251.5h160q36 -121 73 -247.5t73 -249.5l93 -318h16l94 322q35 121 73.5 252.5t70.5 240.5h176
q-35 -109 -70.5 -219t-70.5 -219l-56 -174q-32 -97 -63 -192.5t-61 -187.5h-195q-35 115 -72 238.5t-72 234.5l-87 289h-17l-86 -292q-33 -111 -69 -233t-71 -237h-187z" />
    <glyph glyph-name="x" unicode="x" horiz-adv-x="1064" 
d="M58 0q45 68 78.5 117.5t63 94t63.5 94.5l150 224l2 -47l-147 213q-35 50 -65.5 94t-64 92t-76.5 110l187 7q47 -70 83.5 -126t77.5 -119l106 -160h14l105 160q40 63 76 117.5t79 120.5h190q-45 -64 -77.5 -110.5t-61.5 -87.5t-64 -91l-150 -214l-8 44l167 -228
q53 -73 102.5 -140.5t120.5 -164.5h-200q-45 65 -81 117.5t-81 116.5l-121 176h-14l-110 -168q-43 -66 -78.5 -120.5t-79.5 -121.5h-186z" />
    <glyph glyph-name="y" unicode="y" horiz-adv-x="1035" 
d="M268 -390q40 98 80 198t80 198v-42q-38 102 -76 207t-75 204l-66 180q-39 107 -80.5 219t-80.5 218l177 7l84 -252t84 -251l105 -319h18l115 320q45 125 89 248t89 247h175q-32 -80 -61.5 -154.5t-65 -164.5t-84.5 -214l-110 -279l-127.5 -323t-95.5 -241z" />
    <glyph glyph-name="z" unicode="z" horiz-adv-x="994" 
d="M77 0v85q85 111 166 217.5t153 200.5l318 417l24 -60h-219h-128.5h-155.5h-154v132h810v-99q-39 -50 -90.5 -117t-106 -138.5t-104.5 -135.5l-316 -413l-18 43h242h127.5h151.5h145v-132h-845z" />
    <glyph glyph-name="braceleft" unicode="{" horiz-adv-x="809" 
d="M603 -234q-102 0 -174.5 33t-112 96.5t-39.5 154.5v67.5v67v67.5v67.5v67.5q0 71 -26.5 115t-68.5 64t-91 20h-66v126h66q49 0 91 19.5t68.5 63.5t26.5 116v67.5v67.5v67.5v67.5v68q0 136 87 210t239 74h172v-139h-86h-66q-94 0 -142.5 -43t-48.5 -126v-312
q0 -78 -19.5 -126t-56 -78t-86.5 -51v-17q50 -22 86.5 -52t56 -78.5t19.5 -126.5v-310q0 -83 48.5 -126.5t142.5 -43.5h65h90v-138h-175z" />
    <glyph glyph-name="bar" unicode="|" horiz-adv-x="528" 
d="M190 -313v172.5v164v160.5v161v564v161v160.5v164.5v172h148v-172v-164.5v-160.5v-161v-564v-161v-160.5v-164v-172.5h-148z" />
    <glyph glyph-name="braceright" unicode="}" horiz-adv-x="809" 
d="M34 -234v138h86h65q95 0 143.5 43.5t48.5 126.5v312q0 77 19.5 125.5t56 78t86.5 51.5v17q-50 22 -86.5 52t-56 78.5t-19.5 126.5v310q0 83 -48.5 126t-143.5 43h-64h-90v139h175q101 0 174 -33t112 -97t39 -154v-68v-67.5v-67v-67v-67.5q0 -72 26.5 -116t69 -63.5
t90.5 -19.5h66v-126h-66q-48 0 -90.5 -19.5t-69 -63.5t-26.5 -116v-67.5v-67.5v-68v-67.5v-67.5q0 -136 -86.5 -210t-238.5 -74h-172z" />
    <glyph glyph-name="asciitilde" unicode="~" horiz-adv-x="1136" 
d="M793 442q-67 0 -125 25t-109 57.5t-98.5 57.5t-93.5 25q-56 0 -93 -33t-40 -101h-110q0 134 63.5 208t161.5 74q67 0 124.5 -25t107.5 -57.5t98 -57.5t95 -25q55 0 90.5 33t37.5 101h111q0 -134 -62 -208t-158 -74z" />
    <glyph glyph-name="uni00A0" unicode="&#xa0;" horiz-adv-x="383" 
 />
    <glyph glyph-name="exclamdown" unicode="&#xa1;" horiz-adv-x="472" 
d="M134 -395q10 240 19.5 484t12.5 489l136 3q4 -246 13 -488t19 -482zM236 838q-41 0 -70.5 17t-45.5 46t-16 68q0 59 36 93.5t96 34.5q42 0 71 -15.5t45.5 -44.5t16.5 -68q0 -58 -35.5 -94.5t-97.5 -36.5z" />
    <glyph glyph-name="cent" unicode="&#xa2;" horiz-adv-x="989" 
d="M500 -274v172.5v164v160.5v161v207v161v160.5v164.5v172h125v-172v-164.5v-160.5v-161v-207v-161.5v-161v-164v-171.5h-125zM604 -20q-161 0 -273.5 68t-171.5 185t-59 264t56.5 264.5t165 185.5t264.5 68q58 0 114.5 -10t106.5 -26.5t89 -38.5l-15 -152
q-56 32 -105.5 49.5t-92 24t-78.5 6.5q-152 0 -244 -99.5t-92 -268.5q0 -106 40.5 -191.5t122 -135t202.5 -49.5q43 0 85.5 8t84.5 23.5t81 40.5l14 -151q-33 -18 -77 -32.5t-98.5 -23.5t-119.5 -9z" />
    <glyph glyph-name="sterling" unicode="&#xa3;" horiz-adv-x="1182" 
d="M128 0v99q64 55 97 114.5t45 121.5t12 124v223v222q0 248 121 370.5t343 122.5q59 0 116 -9.5t107 -26.5t89 -39l-17 -154q-58 31 -108 48t-93.5 23t-80.5 6q-151 0 -227 -85t-76 -265v-396q0 -73 -15 -138.5t-55.5 -127.5t-117.5 -124l-16 44h285h226.5h182h169.5v-153
h-987zM119 690v123h182.5h164.5h67h165h182v-123h-182h-165h-67h-164.5h-182.5z" />
    <glyph glyph-name="currency" unicode="&#xa4;" horiz-adv-x="1246" 
d="M620 231q-90 0 -166 27.5t-131.5 81t-86 129.5t-30.5 172q0 121 53.5 213.5t148 144t216.5 51.5q89 0 165 -29.5t131.5 -84t86 -129.5t30.5 -166q0 -129 -54 -221t-148.5 -140.5t-214.5 -48.5zM196 108l-106 106q66 67 128.5 129t115.5 116l106 -106q-53 -54 -115 -116z
M620 374q112 0 188.5 65.5t76.5 201.5q0 83 -34.5 143t-94 92t-133.5 32t-134 -31.5t-95.5 -91.5t-35.5 -144q0 -91 35 -150t94.5 -88t132.5 -29zM335 825q-53 55 -115 117t-129 128l104 104l128 -128t116 -117zM1051 109q-65 67 -127.5 129t-116.5 116l104 104l116 -116
t128 -129zM912 824l-106 106q54 55 116 117l128 128l106 -106l-128 -128t-116 -117z" />
    <glyph glyph-name="yen" unicode="&#xa5;" horiz-adv-x="1248" 
d="M542 539l-295 504q-28 48 -53.5 92t-58 99t-80.5 137h199q51 -92 88 -157.5t70 -124t73 -130.5l130 -234h19l132 236q40 70 73.5 129.5t71 125t88.5 155.5h194q-46 -79 -95.5 -163.5t-95.5 -163.5l-294 -505h-166zM539 0v220v232v228h173v-228v-232v-220h-173zM160 283
v111h182h164h239h164.5h181.5v-111h-181.5h-164.5h-239h-164h-182zM160 569v112h182h164h239h164.5h181.5v-112h-181.5h-164.5h-239h-164h-182z" />
    <glyph glyph-name="brokenbar" unicode="&#xa6;" horiz-adv-x="528" 
d="M190 727v182v161v160.5v164.5v172h148v-172v-164.5v-160.5v-161v-182h-148zM190 -313v172.5v164v160.5v161v182h148v-182v-161v-160.5v-164v-172.5h-148z" />
    <glyph glyph-name="section" unicode="&#xa7;" horiz-adv-x="1093" 
d="M492 -251q-75 0 -149.5 12t-141 33t-115.5 48l15 153q55 -33 117.5 -56.5t129 -36.5t131.5 -13q73 0 133.5 18.5t96 63.5t35.5 125q0 58 -30.5 94t-100.5 64.5t-189 65.5q-97 30 -171 71t-115.5 102t-41.5 152q0 72 27.5 134t81.5 108t132 70l100 -103q-43 -8 -82 -32
t-64 -65.5t-25 -101.5q0 -59 27.5 -98.5t86.5 -68.5t153 -57q120 -35 205 -74t130 -101t45 -164q0 -96 -43.5 -173.5t-136.5 -123.5t-241 -46zM792 256l-102 94q71 19 114.5 73t43.5 138q0 61 -30.5 100t-101 69.5t-188.5 65.5q-92 26 -167 66t-119 103t-44 160
q0 147 102 237t279 90q71 0 138.5 -12t125 -32.5t101.5 -45.5l-13 -153q-61 39 -119.5 62t-110.5 32t-95 9q-35 0 -76 -7.5t-77.5 -28t-59.5 -58t-23 -96.5q0 -54 27.5 -91t86 -66t153.5 -57q119 -35 204 -75.5t130.5 -101.5t45.5 -156q0 -105 -54 -189t-171 -130z" />
    <glyph glyph-name="dieresis" unicode="&#xa8;" horiz-adv-x="1200" 
d="M809 1207q-49 0 -79 29t-30 87q0 57 30.5 87t80.5 30t79 -31.5t29 -85.5q0 -58 -29.5 -87t-80.5 -29zM385 1207q-49 0 -79 29t-30 87q0 57 30.5 87t80.5 30t79 -31.5t29 -85.5q0 -58 -29.5 -87t-80.5 -29z" />
    <glyph glyph-name="copyright" unicode="&#xa9;" horiz-adv-x="1635" 
d="M825 -22q-182 0 -317.5 56.5t-226 155t-136 226.5t-45.5 272q0 200 84.5 360.5t245.5 254.5t388 94q232 0 392 -95t242.5 -256t82.5 -357q0 -204 -85 -364.5t-244 -253.5t-381 -93zM842 311q-117 0 -199.5 50t-125.5 135t-43 192t41.5 192.5t121 135.5t192.5 50
q42 0 83.5 -7t78.5 -19.5t65 -28.5l-12 -122q-61 38 -111.5 49t-90.5 11q-102 0 -168 -66.5t-66 -191.5q0 -119 65.5 -192t190.5 -73q48 0 93.5 13t88.5 40l12 -121q-24 -12 -56.5 -23t-72.5 -17.5t-87 -6.5zM824 87q184 0 318 74t207 209.5t73 318.5q0 181 -72 316
t-207.5 209.5t-323.5 74.5q-187 0 -323 -75t-209.5 -210.5t-73.5 -315.5q0 -181 72 -316t208.5 -210t330.5 -75z" />
    <glyph glyph-name="ordfeminine" unicode="&#xaa;" horiz-adv-x="791" 
d="M301 665q-107 0 -164 59t-57 148q0 64 22.5 108.5t58.5 73t77.5 45t78.5 23.5l244 49q3 68 -19.5 104t-63.5 49t-94 13q-33 0 -73.5 -6t-88 -20.5t-101.5 -40.5l-8 124q29 12 63.5 22t74 18.5t80.5 13t82 4.5q123 0 195 -61t72 -199v-89v-101v-89v-108.5v-124.5h-112
l-6 120h-12q-24 -37 -62 -67.5t-86 -49t-101 -18.5zM347 775q38 0 77.5 14t74 44.5t59.5 78.5v183q-12 -7 -31 -14.5t-56 -17t-102 -22.5q-41 -8 -78.5 -24t-61 -44.5t-23.5 -74.5q0 -66 40 -94.5t101 -28.5z" />
    <glyph glyph-name="guillemotleft" unicode="&#xab;" horiz-adv-x="1136" 
d="M894 -4q-94 127 -187.5 253.5t-187.5 252.5q94 127 187.5 253.5t187.5 253.5l168 -10q-91 -122 -181.5 -244.5t-181.5 -245.5v-17q91 -122 181.5 -243.5t181.5 -243.5zM434 -4q-94 127 -187.5 253.5t-187.5 252.5q94 127 187.5 253.5t187.5 253.5l168 -10
q-91 -122 -181.5 -244.5t-181.5 -245.5v-17q91 -122 181.5 -243.5t181.5 -243.5z" />
    <glyph glyph-name="logicalnot" unicode="&#xac;" horiz-adv-x="1136" 
d="M862 318v182v164v162l120 -103h-165.5h-149.5h-197h-164h-182v148h182h164h197h164.5h181.5v-207v-164v-182h-151z" />
    <glyph glyph-name="uni00AD" unicode="&#xad;" horiz-adv-x="845" 
d="M124 521v148h157.5h141.5h142h157v-148h-157h-142h-141.5h-157.5z" />
    <glyph glyph-name="registered" unicode="&#xae;" horiz-adv-x="1138" 
d="M574 510q-169 0 -280.5 68t-166.5 179.5t-55 242.5q0 138 57 249.5t168 176.5t272 65q162 0 273 -66t167.5 -177.5t56.5 -246.5q0 -141 -58 -252t-168.5 -175t-265.5 -64zM372 728v92v96v192v97.5v92.5l89 -13v-90v-95v-184v-96v-92h-89zM573 585q131 0 223 52.5
t140.5 146t48.5 217.5q0 122 -47.5 215.5t-140.5 146t-228 52.5q-134 0 -227.5 -52.5t-142 -146.5t-48.5 -216q0 -90 27 -166.5t80 -132t132 -86t183 -30.5zM717 728q-28 39 -52.5 72.5t-49.5 66.5l-94 129l55 -35h-132v67h102q61 0 98.5 22.5t37.5 82.5q0 43 -19.5 62
t-46.5 23t-48 4h-136l-60 76h84.5h115.5q93 0 147.5 -36.5t54.5 -121.5q0 -70 -43.5 -120.5t-150.5 -50.5l34 38l86 -114q32 -42 65.5 -87t58.5 -78h-107z" />
    <glyph glyph-name="macron" unicode="&#xaf;" horiz-adv-x="1200" 
d="M286 1252v129h150h164h164.5h149.5v-129h-149.5h-164.5h-164h-150z" />
    <glyph glyph-name="degree" unicode="&#xb0;" horiz-adv-x="957" 
d="M478 630q-118 0 -209 47t-142.5 133t-51.5 202q0 110 52 197t143 137.5t210 50.5q118 0 208.5 -50.5t142 -137.5t51.5 -197q0 -116 -51.5 -202t-142.5 -133t-210 -47zM478 757q121 0 190.5 68t69.5 186q0 75 -31.5 133.5t-89.5 92.5t-137 34q-120 0 -190.5 -73
t-70.5 -187q0 -79 31.5 -135.5t90 -87.5t137.5 -31z" />
    <glyph glyph-name="plusminus" unicode="&#xb1;" horiz-adv-x="1136" 
d="M124 0v148h182h164h197h164.5h181.5v-148h-181.5h-164.5h-197h-164h-182zM124 717v148h182h164h197h164.5h181.5v-148h-181.5h-164.5h-197h-164h-182zM493 323v182v164v244v165v181h151v-181v-165v-244v-164v-182h-151z" />
    <glyph glyph-name="uni00B2" unicode="&#xb2;" horiz-adv-x="804" 
d="M70 603v95q42 34 84.5 69t85.5 70q101 82 172.5 152t109 135t37.5 132q0 81 -47 123t-147 42q-44 0 -92 -11t-97 -32t-97 -51l-14 136q32 16 70 30.5t80 25.5t86.5 17t89.5 6q100 0 169.5 -32.5t106 -92.5t36.5 -143q0 -74 -35.5 -147.5t-106.5 -150t-177 -159.5
l-155 -122l-22 30h152h181h180v-122h-650z" />
    <glyph glyph-name="uni00B3" unicode="&#xb3;" horiz-adv-x="828" 
d="M400 586q-45 0 -91 5.5t-89.5 15.5t-81.5 23.5t-70 29.5l14 127q38 -20 77 -35.5t77.5 -26t76 -15.5t72.5 -5q120 0 171 45t51 115q0 81 -70.5 124t-198.5 43h-46.5h-46.5v97h43.5h43.5q126 0 184.5 45t58.5 114t-51 102t-138 33q-46 0 -93.5 -11t-95.5 -32t-94 -50
l-13 131q31 16 68 30.5t77.5 26t84.5 18t88 6.5q93 0 163 -28t108.5 -79t38.5 -121q0 -86 -54.5 -141.5t-127.5 -72.5v-11q50 -9 99.5 -37.5t82 -78t32.5 -123.5q0 -113 -86 -188.5t-264 -75.5z" />
    <glyph glyph-name="acute" unicode="&#xb4;" horiz-adv-x="1200" 
d="M452 1154q68 100 136.5 200t134.5 198l185 4q-55 -68 -109 -135t-107 -133l-106 -132z" />
    <glyph glyph-name="uni00B5" unicode="&#xb5;" horiz-adv-x="1149" 
d="M172 -390v215.5v228.5v489v163.5v143.5v142l165 7v-145v-143.5v-150.5v-188q0 -118 42.5 -179.5t153.5 -61.5q63 0 116.5 27.5t97.5 72.5t80 100v229v220v212h165v-143.5v-145v-160.5v-229v-146.5v-167.5h-143q-2 44 -4 88.5t-4 88.5h-18q-29 -45 -75.5 -91t-109 -77
t-140.5 -31q-80 0 -134 27t-88 84h61v-42v-218.5v-212.5z" />
    <glyph glyph-name="paragraph" unicode="&#xb6;" horiz-adv-x="1094" 
d="M443 599q-121 0 -205.5 58.5t-128 154t-43.5 207.5q0 118 47 210t132 144.5t198 52.5h41v-827h-41zM448 -350v336.5v321.5v460v321.5v336.5h115v-336.5v-321.5v-460v-321.5v-336.5h-115zM741 -350v336.5v321.5v460v321.5v336.5h114v-336.5v-321.5v-460v-321.5v-336.5
h-114zM497 1317v109h197h164h182v-109h-182h-164h-197z" />
    <glyph glyph-name="periodcentered" unicode="&#xb7;" horiz-adv-x="472" 
d="M236 509q-41 0 -70.5 17t-45.5 46t-16 68q0 59 36 94t96 35q42 0 71 -16t45.5 -45t16.5 -68q0 -58 -35.5 -94.5t-97.5 -36.5z" />
    <glyph glyph-name="cedilla" unicode="&#xb8;" horiz-adv-x="1200" 
d="M550 -430q-21 0 -44 2t-43.5 5.5t-35.5 8.5v106q14 -5 41.5 -9.5t60.5 -4.5q70 0 98 23t28 57q0 20 -14 39t-51 34t-107 23l78 183h96v-37l-50 -115q72 -11 112 -34t56 -53.5t16 -63.5q0 -45 -24 -82.5t-77 -59.5t-140 -22z" />
    <glyph glyph-name="uni00B9" unicode="&#xb9;" horiz-adv-x="636" 
d="M80 1238l-32 111q91 46 179.5 90t176.5 87l-4 -127q-71 -36 -150.5 -76t-169.5 -85zM334 603v142.5v151.5v280v144.5v142.5l70 62l67 -3v-157.5v-164.5v-304v-151.5v-142.5h-137z" />
    <glyph glyph-name="ordmasculine" unicode="&#xba;" horiz-adv-x="911" 
d="M458 664q-124 0 -209 56t-129 146.5t-44 196.5q0 112 46 200t131 138.5t203 50.5q120 0 205 -51.5t129 -139.5t44 -198q0 -112 -45.5 -202.5t-130 -143.5t-200.5 -53zM457 778q82 0 136 40.5t80.5 105.5t26.5 139q0 124 -65 199.5t-178 75.5q-80 0 -135 -37t-83.5 -99
t-28.5 -139q0 -73 27.5 -138.5t82.5 -106t137 -40.5z" />
    <glyph glyph-name="guillemotright" unicode="&#xbb;" horiz-adv-x="1136" 
d="M702 -4l-168 10q91 122 181.5 244.5t181.5 244.5v18q-91 122 -181.5 243.5t-181.5 243.5l168 9q94 -127 187.5 -253.5t187.5 -253.5q-94 -126 -187.5 -252.5t-187.5 -253.5zM243 -4l-168 10q91 122 181 244.5t181 244.5v18q-91 122 -181 243.5t-181 243.5l168 9
q94 -127 187 -253.5t187 -253.5q-94 -126 -187 -252.5t-187 -253.5z" />
    <glyph glyph-name="onequarter" unicode="&#xbc;" horiz-adv-x="1886" 
d="M80 1141l-32 111q91 46 179.5 90t176.5 87l-4 -127q-71 -36 -150.5 -76t-169.5 -85zM334 506v142.5v151.5v280v144.5v142.5l70 62l67 -3v-157.5v-164.5v-304v-151.5v-142.5h-137zM454 0q60 110 117.5 216t132.5 243l270 495q51 94 93.5 172.5t82 151t81.5 148.5h165
q-41 -76 -80.5 -148.5t-82 -151t-94.5 -172.5l-270 -495q-74 -137 -131.5 -243t-117.5 -216h-166zM1531 0v120.5v135.5l12 23v293v141v142l96 48q-39 -53 -77.5 -104t-77.5 -103l-168 -225q-35 -47 -67.5 -90.5t-66.5 -88.5l-5 23h391l20 11h130h125v-122h-125h-130h-522v94
q27 35 63.5 84t75 100t69.5 93l123 164q34 45 68.5 91l67.5 90h136v-165v-160v-339v-135.5v-120.5h-138z" />
    <glyph glyph-name="onehalf" unicode="&#xbd;" horiz-adv-x="2018" 
d="M80 1141l-32 111q91 46 179.5 90t176.5 87l-4 -127q-71 -36 -150.5 -76t-169.5 -85zM334 506v142.5v151.5v280v144.5v142.5l70 62l67 -3v-157.5v-164.5v-304v-151.5v-142.5h-137zM454 0q60 110 117.5 216t132.5 243l270 495q51 94 93.5 172.5t82 151t81.5 148.5h165
q-41 -76 -80.5 -148.5t-82 -151t-94.5 -172.5l-270 -495q-74 -137 -131.5 -243t-117.5 -216h-166zM1284 0v95q42 34 84.5 69t85.5 70q101 82 172.5 152t109 135t37.5 132q0 81 -47 123t-147 42q-44 0 -92 -11t-97 -32t-97 -51l-14 136q32 16 70 30.5t80 25.5t86.5 17t89.5 6
q100 0 169.5 -32.5t106 -92.5t36.5 -143q0 -74 -35.5 -147.5t-106.5 -150t-177 -159.5l-155 -122l-22 30h152h181h180v-122h-650z" />
    <glyph glyph-name="threequarters" unicode="&#xbe;" horiz-adv-x="1995" 
d="M400 489q-45 0 -91 5.5t-89.5 15.5t-81.5 23.5t-70 29.5l14 127q38 -20 77 -35.5t77.5 -26t76 -15.5t72.5 -5q120 0 171 45t51 115q0 81 -70.5 124t-198.5 43h-46.5h-46.5v97h43.5h43.5q126 0 184.5 45t58.5 114t-51 102t-138 33q-46 0 -93.5 -11t-95.5 -32t-94 -50
l-13 131q31 16 68 30.5t77.5 26t84.5 18t88 6.5q93 0 163 -28t108.5 -79t38.5 -121q0 -86 -54.5 -141.5t-127.5 -72.5v-11q50 -9 99.5 -37.5t82 -78t32.5 -123.5q0 -113 -86 -188.5t-264 -75.5zM563 0q60 110 117.5 216t132.5 243l270 495q51 94 93.5 172.5t82 151
t81.5 148.5h165q-41 -76 -80.5 -148.5t-82 -151t-94.5 -172.5l-270 -495q-74 -137 -131.5 -243t-117.5 -216h-166zM1641 0v120.5v135.5l12 23v293v141v142l96 48q-39 -53 -77.5 -104t-77.5 -103l-168 -225q-35 -47 -67.5 -90.5t-66.5 -88.5l-5 23h391l20 11h130h125v-122
h-125h-130h-522v94q27 35 63.5 84t75 100t69.5 93l123 164q34 45 68.5 91l67.5 90h136v-165v-160v-339v-135.5v-120.5h-138z" />
    <glyph glyph-name="questiondown" unicode="&#xbf;" horiz-adv-x="796" 
d="M449 -422q-106 0 -184 31.5t-121 93.5t-43 156q0 92 39 159.5t97.5 118.5t116.5 93q65 48 114 94t49 104q0 64 -40 88.5t-94 24.5q-36 0 -66.5 -7.5t-51.5 -16.5l-7 92q18 6 44.5 12t57.5 10t63 4q117 0 181 -54t64 -145q0 -64 -29.5 -112.5t-76.5 -88.5t-99 -78
q-50 -37 -96 -76t-75 -86.5t-29 -107.5q0 -80 56.5 -122.5t158.5 -42.5q45 0 93 9t97 26t99 43l9 -149q-26 -11 -61.5 -23.5t-77.5 -24t-89.5 -18.5t-98.5 -7zM461 838q-41 0 -70.5 17t-46 46t-16.5 68q0 59 36.5 93.5t96.5 34.5q41 0 70.5 -15.5t45.5 -44.5t16 -68
q0 -58 -35 -94.5t-97 -36.5z" />
    <glyph glyph-name="Agrave" unicode="&#xc0;" horiz-adv-x="1380" 
d="M59 0q42 115 87.5 242t87.5 241l177 490q47 132 86 238.5t78 214.5h238q39 -110 77 -216t85 -238l176 -491q42 -118 86.5 -242.5t85.5 -238.5h-188q-43 125 -88.5 257.5t-85.5 249.5l-260 756h-17l-262 -749q-43 -122 -89 -255.5t-91 -258.5h-183zM323 358l16 142h722
l13 -142h-751zM704 1573q-53 60 -106 119.5t-106.5 120t-109.5 123.5l184 2q68 -90 136 -181t136 -181z" />
    <glyph glyph-name="Aacute" unicode="&#xc1;" horiz-adv-x="1380" 
d="M59 0q42 115 87.5 242t87.5 241l177 490q47 132 86 238.5t78 214.5h238q39 -110 77 -216t85 -238l176 -491q42 -118 86.5 -242.5t85.5 -238.5h-188q-43 125 -88.5 257.5t-85.5 249.5l-260 756h-17l-262 -749q-43 -122 -89 -255.5t-91 -258.5h-183zM323 358l16 142h722
l13 -142h-751zM542 1573l136.5 182t134.5 181l185 2q-55 -62 -108.5 -122.5t-107 -120.5t-106.5 -119z" />
    <glyph glyph-name="Acircumflex" unicode="&#xc2;" horiz-adv-x="1380" 
d="M59 0q42 115 87.5 242t87.5 241l177 490q47 132 86 238.5t78 214.5h238q39 -110 77 -216t85 -238l176 -491q42 -118 86.5 -242.5t85.5 -238.5h-188q-43 125 -88.5 257.5t-85.5 249.5l-260 756h-17l-262 -749q-43 -122 -89 -255.5t-91 -258.5h-183zM323 358l16 142h722
l13 -142h-751zM916 1571q-63 75 -125.5 147.5t-127.5 148.5h48q-64 -75 -125.5 -147t-125.5 -145h-134q67 89 135 179.5t136 181.5h181q68 -91 136 -181.5t136 -180.5z" />
    <glyph glyph-name="Atilde" unicode="&#xc3;" horiz-adv-x="1380" 
d="M59 0q42 115 87.5 242t87.5 241l177 490q47 132 86 238.5t78 214.5h238q39 -110 77 -216t85 -238l176 -491q42 -118 86.5 -242.5t85.5 -238.5h-188q-43 125 -88.5 257.5t-85.5 249.5l-260 756h-17l-262 -749q-43 -122 -89 -255.5t-91 -258.5h-183zM323 358l16 142h722
l13 -142h-751zM859 1568q-60 0 -103.5 26t-78.5 60.5t-66.5 60.5t-67.5 26q-58 0 -81 -37t-26 -105h-101q0 130 51.5 199.5t139.5 69.5q59 0 102 -26t77 -60t66 -60t69 -26q57 0 79.5 37t24.5 105h101q0 -131 -50 -200.5t-136 -69.5z" />
    <glyph glyph-name="Adieresis" unicode="&#xc4;" horiz-adv-x="1380" 
d="M59 0q42 115 87.5 242t87.5 241l177 490q47 132 86 238.5t78 214.5h238q39 -110 77 -216t85 -238l176 -491q42 -118 86.5 -242.5t85.5 -238.5h-188q-43 125 -88.5 257.5t-85.5 249.5l-260 756h-17l-262 -749q-43 -122 -89 -255.5t-91 -258.5h-183zM323 358l16 142h722
l13 -142h-751zM901 1626q-49 0 -79 29.5t-30 86.5t30.5 87t80.5 30t79 -31.5t29 -85.5q0 -57 -29.5 -86.5t-80.5 -29.5zM477 1626q-49 0 -79 29.5t-30 86.5t30.5 87t80.5 30t79 -31.5t29 -85.5q0 -57 -29.5 -86.5t-80.5 -29.5z" />
    <glyph glyph-name="Aring" unicode="&#xc5;" horiz-adv-x="1380" 
d="M59 0q42 115 87.5 242t87.5 241l177 490q47 132 86 238.5t78 214.5h238q39 -110 77 -216t85 -238l176 -491q42 -118 86.5 -242.5t85.5 -238.5h-188q-43 125 -88.5 257.5t-85.5 249.5l-260 756h-17l-262 -749q-43 -122 -89 -255.5t-91 -258.5h-183zM323 358l16 142h722
l13 -142h-751zM688 1559q-67 0 -118 24.5t-80 71.5t-29 114q0 94 63.5 150.5t165.5 56.5q67 0 118.5 -26t80 -73t28.5 -108q0 -68 -29 -114.5t-80.5 -71t-119.5 -24.5zM688 1647q57 0 93.5 30.5t36.5 90.5q0 55 -36 88.5t-92 33.5q-57 0 -93.5 -33t-36.5 -89
q0 -60 36.5 -90.5t91.5 -30.5z" />
    <glyph glyph-name="AE" unicode="&#xc6;" horiz-adv-x="1941" 
d="M29 0q63 115 131.5 241.5t130.5 241.5l268 493q68 127 126.5 234.5t116.5 215.5h1023v-155h-139h-156.5h-188.5h-280l56 129v-231.5v-244.5v-426v-241.5v-229.5l-53 128h292h168h156.5h147.5v-155h-889v229v242v479v243v217l89 -134h-126l-408 -762
q-66 -122 -137.5 -255.5t-138.5 -258.5h-189zM364 358l16 143h627l13 -143h-656zM1077 647v151h277h238.5h192.5v-151h-97.5h-100h-109h-124.5h-277z" />
    <glyph glyph-name="Ccedilla" unicode="&#xc7;" horiz-adv-x="1370" 
d="M831 -22q-169 0 -304.5 55t-230.5 154.5t-145.5 234t-50.5 293.5q0 216 89 382.5t247 260.5t368 94q71 0 138 -10t127 -27t111 -37t88 -41l-16 -174q-78 46 -151.5 74.5t-144 41.5t-137.5 13q-154 0 -274 -70t-188.5 -199.5t-68.5 -308.5q0 -119 35.5 -224t106 -185
t175 -125.5t243.5 -45.5q51 0 102 6.5t101 20.5t98.5 37.5t95.5 55.5l14 -172q-42 -27 -92.5 -47t-106 -32.5t-113.5 -18.5t-116 -6zM749 -430q-21 0 -44 2t-43.5 5.5t-35.5 8.5v106q14 -5 41.5 -9.5t60.5 -4.5q70 0 98 23t28 57q0 20 -14 39t-51 34t-107 23l78 183h96v-37
l-50 -115q72 -11 112 -34t56 -53.5t16 -63.5q0 -45 -24 -82.5t-77 -59.5t-140 -22z" />
    <glyph glyph-name="Egrave" unicode="&#xc8;" horiz-adv-x="1187" 
d="M185 0v229v242v479v245v231h886v-155h-214.5h-270.5h-324l100 129v-231.5v-244.5v-426v-241.5v-229.5l-90 128h330h247.5h223.5v-155h-888zM323 647v151h277h238h193v-151h-197.5h-234.5h-276zM645 1573q-53 60 -106 119.5t-106.5 120t-109.5 123.5l184 2
q68 -90 136 -181t136 -181z" />
    <glyph glyph-name="Eacute" unicode="&#xc9;" horiz-adv-x="1187" 
d="M185 0v229v242v479v245v231h886v-155h-214.5h-270.5h-324l100 129v-231.5v-244.5v-426v-241.5v-229.5l-90 128h330h247.5h223.5v-155h-888zM323 647v151h277h238h193v-151h-197.5h-234.5h-276zM483 1573l136.5 182t134.5 181l185 2q-55 -62 -108.5 -122.5t-107 -120.5
t-106.5 -119z" />
    <glyph glyph-name="Ecircumflex" unicode="&#xca;" horiz-adv-x="1187" 
d="M185 0v229v242v479v245v231h886v-155h-214.5h-270.5h-324l100 129v-231.5v-244.5v-426v-241.5v-229.5l-90 128h330h247.5h223.5v-155h-888zM323 647v151h277h238h193v-151h-197.5h-234.5h-276zM857 1571q-63 75 -125.5 147.5t-127.5 148.5h48q-64 -75 -125.5 -147
t-125.5 -145h-134q67 89 135 179.5t136 181.5h181q68 -91 136 -181.5t136 -180.5z" />
    <glyph glyph-name="Edieresis" unicode="&#xcb;" horiz-adv-x="1187" 
d="M185 0v229v242v479v245v231h886v-155h-214.5h-270.5h-324l100 129v-231.5v-244.5v-426v-241.5v-229.5l-90 128h330h247.5h223.5v-155h-888zM323 647v151h277h238h193v-151h-197.5h-234.5h-276zM842 1626q-49 0 -79 29.5t-30 86.5t30.5 87t80.5 30t79 -31.5t29 -85.5
q0 -57 -29.5 -86.5t-80.5 -29.5zM418 1626q-49 0 -79 29.5t-30 86.5t30.5 87t80.5 30t79 -31.5t29 -85.5q0 -57 -29.5 -86.5t-80.5 -29.5z" />
    <glyph glyph-name="Igrave" unicode="&#xcc;" horiz-adv-x="559" 
d="M188 0v229v242v478v246.5v230.5h184v-230.5v-246.5v-478v-242v-229h-184zM291 1573q-53 60 -106 119.5t-106.5 120t-109.5 123.5l184 2q68 -90 136 -181t136 -181z" />
    <glyph glyph-name="Iacute" unicode="&#xcd;" horiz-adv-x="559" 
d="M188 0v229v242v478v246.5v230.5h184v-230.5v-246.5v-478v-242v-229h-184zM129 1573l136.5 182t134.5 181l185 2q-55 -62 -108.5 -122.5t-107 -120.5t-106.5 -119z" />
    <glyph glyph-name="Icircumflex" unicode="&#xce;" horiz-adv-x="559" 
d="M188 0v229v242v478v246.5v230.5h184v-230.5v-246.5v-478v-242v-229h-184zM503 1571q-63 75 -125.5 147.5t-127.5 148.5h48q-64 -75 -125.5 -147t-125.5 -145h-134q67 89 135 179.5t136 181.5h181q68 -91 136 -181.5t136 -180.5z" />
    <glyph glyph-name="Idieresis" unicode="&#xcf;" horiz-adv-x="559" 
d="M188 0v229v242v478v246.5v230.5h184v-230.5v-246.5v-478v-242v-229h-184zM488 1626q-49 0 -79 29.5t-30 86.5t30.5 87t80.5 30t79 -31.5t29 -85.5q0 -57 -29.5 -86.5t-80.5 -29.5zM64 1626q-49 0 -79 29.5t-30 86.5t30.5 87t80.5 30t79 -31.5t29 -85.5q0 -57 -29.5 -86.5
t-80.5 -29.5z" />
    <glyph glyph-name="Eth" unicode="&#xd0;" horiz-adv-x="1473" 
d="M-23 632v132h178.5h160.5h93h161h178v-132h-178h-161h-93h-160.5h-178.5zM185 0v229v242v478v246.5v230.5h172h163h166q165 0 293 -47.5t215.5 -139t133 -222.5t45.5 -298q0 -151 -40 -281.5t-127.5 -229t-229 -153.5t-344.5 -55h-159h-142.5h-145.5zM366 151h267
q204 0 325 74.5t174 204t53 292.5q0 125 -31.5 227t-96 175t-165 112t-237.5 39h-289v-171.5v-187.5v-410v-185v-170z" />
    <glyph glyph-name="Ntilde" unicode="&#xd1;" horiz-adv-x="1508" 
d="M185 0v229v242v478v246.5v230.5h163q128 -180 246 -347t233 -329l309 -436h15v635v246.5v230.5h172v-230.5v-246.5v-478v-242v-229h-161q-106 150 -223 315.5t-257 363.5l-311 439h-14v-647v-242v-229h-172zM924 1568q-60 0 -103.5 26t-78.5 60.5t-66.5 60.5t-67.5 26
q-58 0 -81 -37t-26 -105h-101q0 130 51.5 199.5t139.5 69.5q59 0 102 -26t77 -60t66 -60t69 -26q57 0 79.5 37t24.5 105h101q0 -131 -50 -200.5t-136 -69.5z" />
    <glyph glyph-name="Ograve" unicode="&#xd2;" horiz-adv-x="1634" 
d="M824 -22q-181 0 -317 58.5t-226.5 161t-135.5 235.5t-45 281q0 208 84.5 375t244.5 265t389 98q174 0 307.5 -57t224.5 -158t137 -235t46 -287q0 -211 -84 -377.5t-243 -263t-382 -96.5zM819 134q137 0 236 47.5t163.5 129.5t95.5 186.5t31 217.5q0 122 -33.5 227.5
t-100 185t-164.5 124t-228 44.5q-134 0 -233.5 -47t-165.5 -128.5t-99 -186t-33 -219.5q0 -116 32 -220t97.5 -185.5t165.5 -128.5t236 -47zM830 1573q-53 60 -106 119.5t-106.5 120t-109.5 123.5l184 2q68 -90 136 -181t136 -181z" />
    <glyph glyph-name="Oacute" unicode="&#xd3;" horiz-adv-x="1634" 
d="M824 -22q-181 0 -317 58.5t-226.5 161t-135.5 235.5t-45 281q0 208 84.5 375t244.5 265t389 98q174 0 307.5 -57t224.5 -158t137 -235t46 -287q0 -211 -84 -377.5t-243 -263t-382 -96.5zM819 134q137 0 236 47.5t163.5 129.5t95.5 186.5t31 217.5q0 122 -33.5 227.5
t-100 185t-164.5 124t-228 44.5q-134 0 -233.5 -47t-165.5 -128.5t-99 -186t-33 -219.5q0 -116 32 -220t97.5 -185.5t165.5 -128.5t236 -47zM668 1573l136.5 182t134.5 181l185 2q-55 -62 -108.5 -122.5t-107 -120.5t-106.5 -119z" />
    <glyph glyph-name="Ocircumflex" unicode="&#xd4;" horiz-adv-x="1634" 
d="M824 -22q-181 0 -317 58.5t-226.5 161t-135.5 235.5t-45 281q0 208 84.5 375t244.5 265t389 98q174 0 307.5 -57t224.5 -158t137 -235t46 -287q0 -211 -84 -377.5t-243 -263t-382 -96.5zM819 134q137 0 236 47.5t163.5 129.5t95.5 186.5t31 217.5q0 122 -33.5 227.5
t-100 185t-164.5 124t-228 44.5q-134 0 -233.5 -47t-165.5 -128.5t-99 -186t-33 -219.5q0 -116 32 -220t97.5 -185.5t165.5 -128.5t236 -47zM1042 1571q-63 75 -125.5 147.5t-127.5 148.5h48q-64 -75 -125.5 -147t-125.5 -145h-134q67 89 135 179.5t136 181.5h181
q68 -91 136 -181.5t136 -180.5z" />
    <glyph glyph-name="Otilde" unicode="&#xd5;" horiz-adv-x="1634" 
d="M824 -22q-181 0 -317 58.5t-226.5 161t-135.5 235.5t-45 281q0 208 84.5 375t244.5 265t389 98q174 0 307.5 -57t224.5 -158t137 -235t46 -287q0 -211 -84 -377.5t-243 -263t-382 -96.5zM819 134q137 0 236 47.5t163.5 129.5t95.5 186.5t31 217.5q0 122 -33.5 227.5
t-100 185t-164.5 124t-228 44.5q-134 0 -233.5 -47t-165.5 -128.5t-99 -186t-33 -219.5q0 -116 32 -220t97.5 -185.5t165.5 -128.5t236 -47zM985 1568q-60 0 -103.5 26t-78.5 60.5t-66.5 60.5t-67.5 26q-58 0 -81 -37t-26 -105h-101q0 130 51.5 199.5t139.5 69.5
q59 0 102 -26t77 -60t66 -60t69 -26q57 0 79.5 37t24.5 105h101q0 -131 -50 -200.5t-136 -69.5z" />
    <glyph glyph-name="Odieresis" unicode="&#xd6;" horiz-adv-x="1634" 
d="M824 -22q-181 0 -317 58.5t-226.5 161t-135.5 235.5t-45 281q0 208 84.5 375t244.5 265t389 98q174 0 307.5 -57t224.5 -158t137 -235t46 -287q0 -211 -84 -377.5t-243 -263t-382 -96.5zM819 134q137 0 236 47.5t163.5 129.5t95.5 186.5t31 217.5q0 122 -33.5 227.5
t-100 185t-164.5 124t-228 44.5q-134 0 -233.5 -47t-165.5 -128.5t-99 -186t-33 -219.5q0 -116 32 -220t97.5 -185.5t165.5 -128.5t236 -47zM1027 1626q-49 0 -79 29.5t-30 86.5t30.5 87t80.5 30t79 -31.5t29 -85.5q0 -57 -29.5 -86.5t-80.5 -29.5zM603 1626q-49 0 -79 29.5
t-30 86.5t30.5 87t80.5 30t79 -31.5t29 -85.5q0 -57 -29.5 -86.5t-80.5 -29.5z" />
    <glyph glyph-name="multiply" unicode="&#xd7;" horiz-adv-x="1132" 
d="M901 157q-66 67 -129 130t-117 116l-285 285q-54 54 -116 116.5t-129 127.5l106 106q67 -65 129 -128t117 -118l284 -283q55 -55 117.5 -117t128.5 -129zM231 157l-106 106q45 44 87.5 86.5l82.5 82.5t76 77l285 284l117 117l128 128l106 -106q-66 -65 -128.5 -127.5
l-117.5 -117.5l-284 -284l-116 -116z" />
    <glyph glyph-name="Oslash" unicode="&#xd8;" horiz-adv-x="1634" 
d="M824 -22q-181 0 -317 58.5t-226.5 161t-135.5 235.5t-45 281q0 208 84.5 375t244.5 265t389 98q174 0 307.5 -57t224.5 -158t137 -235t46 -287q0 -211 -84 -377.5t-243 -263t-382 -96.5zM819 134q137 0 236 47.5t163.5 129.5t95.5 186.5t31 217.5q0 122 -33.5 227.5
t-100 185t-164.5 124t-228 44.5q-134 0 -233.5 -47t-165.5 -128.5t-99 -186t-33 -219.5q0 -116 32 -220t97.5 -185.5t165.5 -128.5t236 -47zM263 -130l-92 78q104 137 196.5 257.5t200.5 260.5l393 515q110 144 205.5 268.5t195.5 255.5l96 -73q-102 -133 -196 -256
t-204 -266l-397 -519q-108 -142 -203.5 -266.5t-194.5 -254.5z" />
    <glyph glyph-name="Ugrave" unicode="&#xd9;" horiz-adv-x="1461" 
d="M731 -22q-199 0 -323.5 68.5t-183 193t-58.5 290.5v108.5v147.5v163v246.5v230.5h180v-230.5v-246.5v-401q0 -129 38 -222t122.5 -142.5t224.5 -49.5q141 0 224.5 49.5t120.5 142.5t37 224v399v246.5v230.5h180v-230.5v-246.5v-163.5v-148.5v-107q0 -166 -59 -290.5
t-183 -193t-320 -68.5zM746 1573q-53 60 -106 119.5t-106.5 120t-109.5 123.5l184 2q68 -90 136 -181t136 -181z" />
    <glyph glyph-name="Uacute" unicode="&#xda;" horiz-adv-x="1461" 
d="M731 -22q-199 0 -323.5 68.5t-183 193t-58.5 290.5v108.5v147.5v163v246.5v230.5h180v-230.5v-246.5v-401q0 -129 38 -222t122.5 -142.5t224.5 -49.5q141 0 224.5 49.5t120.5 142.5t37 224v399v246.5v230.5h180v-230.5v-246.5v-163.5v-148.5v-107q0 -166 -59 -290.5
t-183 -193t-320 -68.5zM584 1573l136.5 182t134.5 181l185 2q-55 -62 -108.5 -122.5t-107 -120.5t-106.5 -119z" />
    <glyph glyph-name="Ucircumflex" unicode="&#xdb;" horiz-adv-x="1461" 
d="M731 -22q-199 0 -323.5 68.5t-183 193t-58.5 290.5v108.5v147.5v163v246.5v230.5h180v-230.5v-246.5v-401q0 -129 38 -222t122.5 -142.5t224.5 -49.5q141 0 224.5 49.5t120.5 142.5t37 224v399v246.5v230.5h180v-230.5v-246.5v-163.5v-148.5v-107q0 -166 -59 -290.5
t-183 -193t-320 -68.5zM958 1571q-63 75 -125.5 147.5t-127.5 148.5h48q-64 -75 -125.5 -147t-125.5 -145h-134q67 89 135 179.5t136 181.5h181q68 -91 136 -181.5t136 -180.5z" />
    <glyph glyph-name="Udieresis" unicode="&#xdc;" horiz-adv-x="1461" 
d="M731 -22q-199 0 -323.5 68.5t-183 193t-58.5 290.5v108.5v147.5v163v246.5v230.5h180v-230.5v-246.5v-401q0 -129 38 -222t122.5 -142.5t224.5 -49.5q141 0 224.5 49.5t120.5 142.5t37 224v399v246.5v230.5h180v-230.5v-246.5v-163.5v-148.5v-107q0 -166 -59 -290.5
t-183 -193t-320 -68.5zM943 1626q-49 0 -79 29.5t-30 86.5t30.5 87t80.5 30t79 -31.5t29 -85.5q0 -57 -29.5 -86.5t-80.5 -29.5zM519 1626q-49 0 -79 29.5t-30 86.5t30.5 87t80.5 30t79 -31.5t29 -85.5q0 -57 -29.5 -86.5t-80.5 -29.5z" />
    <glyph glyph-name="Yacute" unicode="&#xdd;" horiz-adv-x="1304" 
d="M568 557l-311 527q-50 84 -96 162.5t-106 179.5h207q55 -96 94 -165t74 -130.5t77 -135.5l138 -243h18l134 234q45 79 81.5 143t76.5 133.5t94 163.5h203q-51 -87 -101.5 -172.5t-99.5 -168.5l-311 -528h-172zM564 0v229v242v237h181v-237v-242v-229h-181zM506 1573
l136.5 182t134.5 181l185 2q-55 -62 -108.5 -122.5t-107 -120.5t-106.5 -119z" />
    <glyph glyph-name="Thorn" unicode="&#xde;" horiz-adv-x="1254" 
d="M185 0v229v242v479v245v231h178v-231v-245v-479v-242v-229h-178zM651 314h-107h-110.5h-93.5v149h277q128 0 209.5 30.5t120.5 96.5t39 172q0 88 -28.5 140t-75 77.5t-100.5 33.5t-105 8h-337v150h151h198q163 0 269.5 -43t159.5 -133t53 -232q0 -130 -48.5 -231.5
t-162 -159.5t-309.5 -58z" />
    <glyph glyph-name="germandbls" unicode="&#xdf;" horiz-adv-x="1212" 
d="M688 -9q-30 0 -61.5 3t-56.5 7v128q16 -3 38.5 -5t46.5 -2q140 0 213.5 81.5t73.5 213.5q0 102 -45 170t-122 102t-173 34v130q70 0 131.5 31t98.5 88.5t37 140.5q0 106 -63 169.5t-173 63.5q-124 0 -190.5 -77t-66.5 -238v-593v-225v-213h-165v213v225v100v246v247
q0 223 114 341.5t312 118.5q118 0 205.5 -42.5t136.5 -120.5t49 -186q0 -90 -30.5 -153t-77 -103t-93.5 -61v-17q45 -15 95 -43.5t93 -75t69.5 -114.5t26.5 -162q0 -188 -112.5 -305t-310.5 -117zM49 862v130h210v-130h-210z" />
    <glyph glyph-name="agrave" unicode="&#xe0;" horiz-adv-x="1037" 
d="M404 -20q-89 0 -156 34.5t-104.5 98.5t-37.5 154q0 81 29 136.5t76 90.5t104 54.5t114 29.5l311 54q4 101 -26.5 152.5t-85.5 69.5t-122 18q-34 0 -73 -5t-82.5 -15.5t-91.5 -26.5t-101 -39l-9 151q36 15 81.5 29t97 25.5t105.5 17.5t109 6q111 0 191.5 -35t123.5 -110
t43 -196v-117v-135v-129v-138.5v-154.5h-150l-9 141h-16q-31 -40 -78 -77t-108.5 -60.5t-134.5 -23.5zM452 117q53 0 106 22t99.5 65.5t78.5 109.5l1 214q-16 -9 -42.5 -18t-79 -20.5t-145.5 -28.5q-57 -10 -101 -32.5t-69.5 -61t-25.5 -93.5q0 -86 51.5 -121.5t126.5 -35.5
zM544 1154q-53 66 -106.5 131.5t-107 132.5t-108.5 134l184 4q68 -99 136 -198.5t136 -201.5z" />
    <glyph glyph-name="aacute" unicode="&#xe1;" horiz-adv-x="1037" 
d="M404 -20q-89 0 -156 34.5t-104.5 98.5t-37.5 154q0 81 29 136.5t76 90.5t104 54.5t114 29.5l311 54q4 101 -26.5 152.5t-85.5 69.5t-122 18q-34 0 -73 -5t-82.5 -15.5t-91.5 -26.5t-101 -39l-9 151q36 15 81.5 29t97 25.5t105.5 17.5t109 6q111 0 191.5 -35t123.5 -110
t43 -196v-117v-135v-129v-138.5v-154.5h-150l-9 141h-16q-31 -40 -78 -77t-108.5 -60.5t-134.5 -23.5zM452 117q53 0 106 22t99.5 65.5t78.5 109.5l1 214q-16 -9 -42.5 -18t-79 -20.5t-145.5 -28.5q-57 -10 -101 -32.5t-69.5 -61t-25.5 -93.5q0 -86 51.5 -121.5t126.5 -35.5
zM382 1154q68 100 136.5 200t134.5 198l185 4q-55 -68 -109 -135t-107 -133l-106 -132z" />
    <glyph glyph-name="acircumflex" unicode="&#xe2;" horiz-adv-x="1037" 
d="M404 -20q-89 0 -156 34.5t-104.5 98.5t-37.5 154q0 81 29 136.5t76 90.5t104 54.5t114 29.5l311 54q4 101 -26.5 152.5t-85.5 69.5t-122 18q-34 0 -73 -5t-82.5 -15.5t-91.5 -26.5t-101 -39l-9 151q36 15 81.5 29t97 25.5t105.5 17.5t109 6q111 0 191.5 -35t123.5 -110
t43 -196v-117v-135v-129v-138.5v-154.5h-150l-9 141h-16q-31 -40 -78 -77t-108.5 -60.5t-134.5 -23.5zM452 117q53 0 106 22t99.5 65.5t78.5 109.5l1 214q-16 -9 -42.5 -18t-79 -20.5t-145.5 -28.5q-57 -10 -101 -32.5t-69.5 -61t-25.5 -93.5q0 -86 51.5 -121.5t126.5 -35.5
zM756 1152q-62 82 -124 161.5t-126 161.5h44q-63 -82 -124.5 -160.5t-125.5 -158.5h-134q67 98 135 197.5t136 198.5h181q68 -99 136 -198.5t136 -199.5z" />
    <glyph glyph-name="atilde" unicode="&#xe3;" horiz-adv-x="1037" 
d="M404 -20q-89 0 -156 34.5t-104.5 98.5t-37.5 154q0 81 29 136.5t76 90.5t104 54.5t114 29.5l311 54q4 101 -26.5 152.5t-85.5 69.5t-122 18q-34 0 -73 -5t-82.5 -15.5t-91.5 -26.5t-101 -39l-9 151q36 15 81.5 29t97 25.5t105.5 17.5t109 6q111 0 191.5 -35t123.5 -110
t43 -196v-117v-135v-129v-138.5v-154.5h-150l-9 141h-16q-31 -40 -78 -77t-108.5 -60.5t-134.5 -23.5zM452 117q53 0 106 22t99.5 65.5t78.5 109.5l1 214q-16 -9 -42.5 -18t-79 -20.5t-145.5 -28.5q-57 -10 -101 -32.5t-69.5 -61t-25.5 -93.5q0 -86 51.5 -121.5t126.5 -35.5
zM699 1149q-60 0 -103.5 26t-78.5 60.5t-66.5 60t-67.5 25.5q-58 0 -81 -36.5t-26 -104.5h-101q0 130 51.5 199.5t139.5 69.5q59 0 102 -26t77 -60t66 -60t69 -26q57 0 79.5 37t24.5 105h101q0 -131 -50 -200.5t-136 -69.5z" />
    <glyph glyph-name="adieresis" unicode="&#xe4;" horiz-adv-x="1037" 
d="M404 -20q-89 0 -156 34.5t-104.5 98.5t-37.5 154q0 81 29 136.5t76 90.5t104 54.5t114 29.5l311 54q4 101 -26.5 152.5t-85.5 69.5t-122 18q-34 0 -73 -5t-82.5 -15.5t-91.5 -26.5t-101 -39l-9 151q36 15 81.5 29t97 25.5t105.5 17.5t109 6q111 0 191.5 -35t123.5 -110
t43 -196v-117v-135v-129v-138.5v-154.5h-150l-9 141h-16q-31 -40 -78 -77t-108.5 -60.5t-134.5 -23.5zM452 117q53 0 106 22t99.5 65.5t78.5 109.5l1 214q-16 -9 -42.5 -18t-79 -20.5t-145.5 -28.5q-57 -10 -101 -32.5t-69.5 -61t-25.5 -93.5q0 -86 51.5 -121.5t126.5 -35.5
zM741 1207q-49 0 -79 29t-30 87q0 57 30.5 87t80.5 30t79 -31.5t29 -85.5q0 -58 -29.5 -87t-80.5 -29zM317 1207q-49 0 -79 29t-30 87q0 57 30.5 87t80.5 30t79 -31.5t29 -85.5q0 -58 -29.5 -87t-80.5 -29z" />
    <glyph glyph-name="aring" unicode="&#xe5;" horiz-adv-x="1037" 
d="M404 -20q-89 0 -156 34.5t-104.5 98.5t-37.5 154q0 81 29 136.5t76 90.5t104 54.5t114 29.5l311 54q4 101 -26.5 152.5t-85.5 69.5t-122 18q-34 0 -73 -5t-82.5 -15.5t-91.5 -26.5t-101 -39l-9 151q36 15 81.5 29t97 25.5t105.5 17.5t109 6q111 0 191.5 -35t123.5 -110
t43 -196v-117v-135v-129v-138.5v-154.5h-150l-9 141h-16q-31 -40 -78 -77t-108.5 -60.5t-134.5 -23.5zM452 117q53 0 106 22t99.5 65.5t78.5 109.5l1 214q-16 -9 -42.5 -18t-79 -20.5t-145.5 -28.5q-57 -10 -101 -32.5t-69.5 -61t-25.5 -93.5q0 -86 51.5 -121.5t126.5 -35.5
zM528 1125q-67 0 -118 24.5t-80 71.5t-29 114q0 94 63.5 150.5t165.5 56.5q67 0 118.5 -26t80 -73t28.5 -108q0 -68 -29 -114.5t-80.5 -71t-119.5 -24.5zM528 1213q57 0 93.5 30.5t36.5 90.5q0 55 -36 88.5t-92 33.5q-57 0 -93.5 -33t-36.5 -89q0 -60 36.5 -90.5t91.5 -30.5
z" />
    <glyph glyph-name="ae" unicode="&#xe6;" horiz-adv-x="1630" 
d="M1216 -22q-171 0 -279.5 68t-160 186t-51.5 270q0 150 50.5 266t147 181.5t234.5 65.5q124 0 214 -49t139 -143.5t49 -233.5q0 -37 -1.5 -66.5t-6.5 -59.5l-145 73q2 16 3 30.5t1 28.5q0 141 -71 214.5t-182 73.5q-91 0 -155 -46.5t-97.5 -128.5t-33.5 -187v-23
q0 -174 86 -274.5t274 -100.5q47 0 99.5 7.5t104.5 23.5t98 42l7 -149q-38 -21 -88.5 -36.5t-110 -24t-125.5 -8.5zM430 117q53 0 106.5 22t99.5 65.5t78 109.5l1 214q-16 -9 -42.5 -18t-78.5 -20.5t-146 -28.5q-57 -10 -101 -32.5t-69.5 -61t-25.5 -93.5q0 -86 52 -121.5
t126 -35.5zM393 -20q-95 0 -164 34.5t-107 98.5t-38 154q0 81 29 136.5t76 90.5t104 54.5t114 29.5l312 54q3 101 -27.5 152.5t-85 69.5t-122.5 18q-34 0 -73 -5t-82 -15.5t-91 -26.5t-101 -39l-10 151q36 15 80 29t94 25.5t103 17.5t105 6q161 0 250 -80t89 -261l-31 -170
l10 -246q-50 -96 -118 -157.5t-148.5 -91t-167.5 -29.5zM772 463v118l678 6l101 -34v-90h-779z" />
    <glyph glyph-name="ccedilla" unicode="&#xe7;" horiz-adv-x="989" 
d="M604 -20q-161 0 -273.5 68t-171.5 185t-59 264t56.5 264.5t165 185.5t264.5 68q58 0 114.5 -10t106.5 -26.5t89 -38.5l-15 -152q-56 32 -105.5 49.5t-92 24t-78.5 6.5q-152 0 -244 -99.5t-92 -268.5q0 -106 40.5 -191.5t122 -135t202.5 -49.5q43 0 85.5 8t84.5 23.5
t81 40.5l14 -151q-33 -18 -77 -32.5t-98.5 -23.5t-119.5 -9zM523 -430q-21 0 -44 2t-43.5 5.5t-35.5 8.5v106q14 -5 41.5 -9.5t60.5 -4.5q70 0 98 23t28 57q0 20 -14 39t-51 34t-107 23l78 183h96v-37l-50 -115q72 -11 112 -34t56 -53.5t16 -63.5q0 -45 -24 -82.5t-77 -59.5
t-140 -22z" />
    <glyph glyph-name="egrave" unicode="&#xe8;" horiz-adv-x="1055" 
d="M620 -22q-178 0 -293 68t-171 186t-56 270q0 150 55 266t158 181.5t246 65.5q126 0 216.5 -49t139.5 -143.5t49 -233.5q0 -37 -1.5 -66.5t-6.5 -59.5l-145 73q2 16 2.5 30.5t0.5 28.5q0 141 -70 214.5t-183 73.5q-91 0 -156.5 -46.5t-101.5 -128.5t-36 -187v-23
q0 -116 40 -200t121.5 -129.5t207.5 -45.5q47 0 99.5 7.5t104 23.5t98.5 42l7 -149q-38 -21 -88 -36.5t-110 -24t-127 -8.5zM169 463v118l686 6l101 -38v-86h-787zM569 1154q-53 66 -106.5 131.5t-107 132.5t-108.5 134l184 4q68 -99 136 -198.5t136 -201.5z" />
    <glyph glyph-name="eacute" unicode="&#xe9;" horiz-adv-x="1055" 
d="M620 -22q-178 0 -293 68t-171 186t-56 270q0 150 55 266t158 181.5t246 65.5q126 0 216.5 -49t139.5 -143.5t49 -233.5q0 -37 -1.5 -66.5t-6.5 -59.5l-145 73q2 16 2.5 30.5t0.5 28.5q0 141 -70 214.5t-183 73.5q-91 0 -156.5 -46.5t-101.5 -128.5t-36 -187v-23
q0 -116 40 -200t121.5 -129.5t207.5 -45.5q47 0 99.5 7.5t104 23.5t98.5 42l7 -149q-38 -21 -88 -36.5t-110 -24t-127 -8.5zM169 463v118l686 6l101 -38v-86h-787zM407 1154q68 100 136.5 200t134.5 198l185 4q-55 -68 -109 -135t-107 -133l-106 -132z" />
    <glyph glyph-name="ecircumflex" unicode="&#xea;" horiz-adv-x="1055" 
d="M620 -22q-178 0 -293 68t-171 186t-56 270q0 150 55 266t158 181.5t246 65.5q126 0 216.5 -49t139.5 -143.5t49 -233.5q0 -37 -1.5 -66.5t-6.5 -59.5l-145 73q2 16 2.5 30.5t0.5 28.5q0 141 -70 214.5t-183 73.5q-91 0 -156.5 -46.5t-101.5 -128.5t-36 -187v-23
q0 -116 40 -200t121.5 -129.5t207.5 -45.5q47 0 99.5 7.5t104 23.5t98.5 42l7 -149q-38 -21 -88 -36.5t-110 -24t-127 -8.5zM169 463v118l686 6l101 -38v-86h-787zM781 1152q-62 82 -124 161.5t-126 161.5h44q-63 -82 -124.5 -160.5t-125.5 -158.5h-134q67 98 135 197.5
t136 198.5h181q68 -99 136 -198.5t136 -199.5z" />
    <glyph glyph-name="edieresis" unicode="&#xeb;" horiz-adv-x="1055" 
d="M620 -22q-178 0 -293 68t-171 186t-56 270q0 150 55 266t158 181.5t246 65.5q126 0 216.5 -49t139.5 -143.5t49 -233.5q0 -37 -1.5 -66.5t-6.5 -59.5l-145 73q2 16 2.5 30.5t0.5 28.5q0 141 -70 214.5t-183 73.5q-91 0 -156.5 -46.5t-101.5 -128.5t-36 -187v-23
q0 -116 40 -200t121.5 -129.5t207.5 -45.5q47 0 99.5 7.5t104 23.5t98.5 42l7 -149q-38 -21 -88 -36.5t-110 -24t-127 -8.5zM169 463v118l686 6l101 -38v-86h-787zM766 1207q-49 0 -79 29t-30 87q0 57 30.5 87t80.5 30t79 -31.5t29 -85.5q0 -58 -29.5 -87t-80.5 -29z
M342 1207q-49 0 -79 29t-30 87q0 57 30.5 87t80.5 30t79 -31.5t29 -85.5q0 -58 -29.5 -87t-80.5 -29z" />
    <glyph glyph-name="igrave" unicode="&#xec;" horiz-adv-x="514" 
d="M174 0v213v225v100v164.5v146v143.5l166 6v-145.5v-148v-166.5v-100v-225v-213h-166zM271 1154q-53 66 -106.5 131.5t-107 132.5t-108.5 134l184 4q68 -99 136 -198.5t136 -201.5z" />
    <glyph glyph-name="iacute" unicode="&#xed;" horiz-adv-x="514" 
d="M174 0v213v225v100v164.5v146v143.5l166 6v-145.5v-148v-166.5v-100v-225v-213h-166zM109 1154q68 100 136.5 200t134.5 198l185 4q-55 -68 -109 -135t-107 -133l-106 -132z" />
    <glyph glyph-name="icircumflex" unicode="&#xee;" horiz-adv-x="514" 
d="M174 0v213v225v100v164.5v146v143.5l166 6v-145.5v-148v-166.5v-100v-225v-213h-166zM450 1152q-42 67 -85.5 133t-86 133t-87.5 134h145q59 -99 118.5 -197.5t119.5 -200.5zM-64 1156q61 100 119.5 198t118.5 198h144q-44 -67 -86.5 -133t-85.5 -131.5t-86 -131.5h-124z
" />
    <glyph glyph-name="idieresis" unicode="&#xef;" horiz-adv-x="514" 
d="M174 0v213v225v100v164.5v146v143.5l166 6v-145.5v-148v-166.5v-100v-225v-213h-166zM431 1207q-47 0 -75.5 29t-28.5 87q0 57 29 87t77 30q49 0 77 -31.5t28 -85.5q0 -39 -13 -64.5t-36.5 -38.5t-57.5 -13zM80 1207q-48 0 -76.5 29t-28.5 87q0 57 29 87t78 30
q48 0 76 -31.5t28 -85.5q0 -39 -13 -64.5t-36.5 -38.5t-56.5 -13z" />
    <glyph glyph-name="eth" unicode="&#xf0;" horiz-adv-x="1182" 
d="M596 -22q-162 0 -272.5 71t-167 187t-56.5 250q0 136 54.5 244t151.5 171t227 63q54 0 112.5 -13t115.5 -41t108 -73l43 13q23 -48 28 -102t-14 -102q-62 77 -124.5 114.5t-117.5 49.5t-95 12q-107 0 -178.5 -48.5t-107 -126.5t-35.5 -167q0 -91 36.5 -173t109 -134
t180.5 -52q161 0 239.5 130t78.5 367q0 183 -63 336t-186 281q-52 57 -116.5 109t-139.5 100l137 58q72 -43 137.5 -94.5t122.5 -111.5q129 -135 203.5 -303.5t74.5 -388.5q0 -192 -53.5 -332.5t-161.5 -217t-271 -76.5zM344 1093l-35 111q88 28 169 53t150 46l92 29
q68 21 148.5 46t169.5 53l35 -112q-87 -27 -168 -52t-150 -47l-92 -28q-69 -22 -150.5 -47t-168.5 -52z" />
    <glyph glyph-name="ntilde" unicode="&#xf1;" horiz-adv-x="1146" 
d="M172 0v213v225v100v225v229l144 10l5 -184h18q32 45 82 91t118 76.5t156 30.5q158 0 231 -91t73 -264v-115v-108v-222.5v-215.5h-165v214.5v216.5v188q0 119 -42.5 180t-153.5 61q-67 0 -122 -27t-99.5 -72.5t-79.5 -100.5v-229v-218.5v-212.5h-165zM756 1149
q-60 0 -103.5 26t-78.5 60.5t-66.5 60t-67.5 25.5q-58 0 -81 -36.5t-26 -104.5h-101q0 130 51.5 199.5t139.5 69.5q59 0 102 -26t77 -60t66 -60t69 -26q57 0 79.5 37t24.5 105h101q0 -131 -50 -200.5t-136 -69.5z" />
    <glyph glyph-name="ograve" unicode="&#xf2;" horiz-adv-x="1195" 
d="M601 -22q-123 0 -216.5 42.5t-156.5 115.5t-95.5 167.5t-32.5 198.5q0 149 60.5 264.5t172 182.5t265.5 67q119 0 211 -39t156 -109t97 -163.5t33 -202.5q0 -147 -60 -266t-170.5 -188.5t-263.5 -69.5zM601 122q109 0 181 54t108 141t36 185q0 112 -40 195t-113 129
t-173 46q-108 0 -182 -49t-111.5 -133t-37.5 -188q0 -98 36.5 -185t110.5 -141t185 -54zM611 1154q-53 66 -106.5 131.5t-107 132.5t-108.5 134l184 4q68 -99 136 -198.5t136 -201.5z" />
    <glyph glyph-name="oacute" unicode="&#xf3;" horiz-adv-x="1195" 
d="M601 -22q-123 0 -216.5 42.5t-156.5 115.5t-95.5 167.5t-32.5 198.5q0 149 60.5 264.5t172 182.5t265.5 67q119 0 211 -39t156 -109t97 -163.5t33 -202.5q0 -147 -60 -266t-170.5 -188.5t-263.5 -69.5zM601 122q109 0 181 54t108 141t36 185q0 112 -40 195t-113 129
t-173 46q-108 0 -182 -49t-111.5 -133t-37.5 -188q0 -98 36.5 -185t110.5 -141t185 -54zM449 1154q68 100 136.5 200t134.5 198l185 4q-55 -68 -109 -135t-107 -133l-106 -132z" />
    <glyph glyph-name="ocircumflex" unicode="&#xf4;" horiz-adv-x="1195" 
d="M601 -22q-123 0 -216.5 42.5t-156.5 115.5t-95.5 167.5t-32.5 198.5q0 149 60.5 264.5t172 182.5t265.5 67q119 0 211 -39t156 -109t97 -163.5t33 -202.5q0 -147 -60 -266t-170.5 -188.5t-263.5 -69.5zM601 122q109 0 181 54t108 141t36 185q0 112 -40 195t-113 129
t-173 46q-108 0 -182 -49t-111.5 -133t-37.5 -188q0 -98 36.5 -185t110.5 -141t185 -54zM823 1152q-62 82 -124 161.5t-126 161.5h44q-63 -82 -124.5 -160.5t-125.5 -158.5h-134q67 98 135 197.5t136 198.5h181q68 -99 136 -198.5t136 -199.5z" />
    <glyph glyph-name="otilde" unicode="&#xf5;" horiz-adv-x="1195" 
d="M601 -22q-123 0 -216.5 42.5t-156.5 115.5t-95.5 167.5t-32.5 198.5q0 149 60.5 264.5t172 182.5t265.5 67q119 0 211 -39t156 -109t97 -163.5t33 -202.5q0 -147 -60 -266t-170.5 -188.5t-263.5 -69.5zM601 122q109 0 181 54t108 141t36 185q0 112 -40 195t-113 129
t-173 46q-108 0 -182 -49t-111.5 -133t-37.5 -188q0 -98 36.5 -185t110.5 -141t185 -54zM766 1149q-60 0 -103.5 26t-78.5 60.5t-66.5 60t-67.5 25.5q-58 0 -81 -36.5t-26 -104.5h-101q0 130 51.5 199.5t139.5 69.5q59 0 102 -26t77 -60t66 -60t69 -26q57 0 79.5 37
t24.5 105h101q0 -131 -50 -200.5t-136 -69.5z" />
    <glyph glyph-name="odieresis" unicode="&#xf6;" horiz-adv-x="1195" 
d="M601 -22q-123 0 -216.5 42.5t-156.5 115.5t-95.5 167.5t-32.5 198.5q0 149 60.5 264.5t172 182.5t265.5 67q119 0 211 -39t156 -109t97 -163.5t33 -202.5q0 -147 -60 -266t-170.5 -188.5t-263.5 -69.5zM601 122q109 0 181 54t108 141t36 185q0 112 -40 195t-113 129
t-173 46q-108 0 -182 -49t-111.5 -133t-37.5 -188q0 -98 36.5 -185t110.5 -141t185 -54zM808 1207q-49 0 -79 29t-30 87q0 57 30.5 87t80.5 30t79 -31.5t29 -85.5q0 -58 -29.5 -87t-80.5 -29zM384 1207q-49 0 -79 29t-30 87q0 57 30.5 87t80.5 30t79 -31.5t29 -85.5
q0 -58 -29.5 -87t-80.5 -29z" />
    <glyph glyph-name="divide" unicode="&#xf7;" horiz-adv-x="1136" 
d="M124 524v147h182h164h197h164.5h181.5v-147h-181.5h-164.5h-197h-164h-182zM566 113q-55 0 -88.5 33.5t-33.5 86.5q0 55 33.5 86.5t88.5 31.5q57 0 89.5 -31.5t32.5 -86.5q0 -53 -32.5 -86.5t-89.5 -33.5zM566 841q-55 0 -88.5 33.5t-33.5 86.5q0 55 33.5 87t88.5 32
q57 0 89.5 -32t32.5 -87q0 -53 -32.5 -86.5t-89.5 -33.5z" />
    <glyph glyph-name="oslash" unicode="&#xf8;" horiz-adv-x="1194" 
d="M601 -22q-123 0 -216 42.5t-156.5 115.5t-96 167.5t-32.5 198.5q0 149 60 264.5t172 182t267 66.5q118 0 210 -39t156 -108.5t97 -163t33 -202.5q0 -147 -60 -266t-170.5 -188.5t-263.5 -69.5zM600 121q110 0 182 54.5t108 141.5t36 185q0 112 -40 195.5t-113 129
t-173 45.5q-108 0 -182 -49.5t-112 -133.5t-38 -187q0 -98 37 -185t111 -141.5t184 -54.5zM198 -129l-85 67q78 101 146.5 190.5t146.5 191.5l288 377q83 108 152 198.5t142 186.5l88 -64q-75 -97 -146 -190t-152 -198l-290 -379q-79 -104 -147.5 -194t-142.5 -186z" />
    <glyph glyph-name="ugrave" unicode="&#xf9;" horiz-adv-x="1117" 
d="M451 -22q-158 0 -231 91t-73 264v114.5v95.5v163.5v143.5v142l165 7v-216v-223v-188q0 -118 43 -179.5t153 -61.5q64 0 117 27.5t97 72.5t80 100v229v220v212h165v-214v-235v-105v-225v-213h-144l-6 175h-18q-31 -45 -80.5 -90.5t-116.5 -76t-151 -30.5zM572 1154
q-53 66 -106.5 131.5t-107 132.5t-108.5 134l184 4q68 -99 136 -198.5t136 -201.5z" />
    <glyph glyph-name="uacute" unicode="&#xfa;" horiz-adv-x="1117" 
d="M451 -22q-158 0 -231 91t-73 264v114.5v95.5v163.5v143.5v142l165 7v-216v-223v-188q0 -118 43 -179.5t153 -61.5q64 0 117 27.5t97 72.5t80 100v229v220v212h165v-214v-235v-105v-225v-213h-144l-6 175h-18q-31 -45 -80.5 -90.5t-116.5 -76t-151 -30.5zM410 1154
q68 100 136.5 200t134.5 198l185 4q-55 -68 -109 -135t-107 -133l-106 -132z" />
    <glyph glyph-name="ucircumflex" unicode="&#xfb;" horiz-adv-x="1117" 
d="M451 -22q-158 0 -231 91t-73 264v114.5v95.5v163.5v143.5v142l165 7v-216v-223v-188q0 -118 43 -179.5t153 -61.5q64 0 117 27.5t97 72.5t80 100v229v220v212h165v-214v-235v-105v-225v-213h-144l-6 175h-18q-31 -45 -80.5 -90.5t-116.5 -76t-151 -30.5zM784 1152
q-62 82 -124 161.5t-126 161.5h44q-63 -82 -124.5 -160.5t-125.5 -158.5h-134q67 98 135 197.5t136 198.5h181q68 -99 136 -198.5t136 -199.5z" />
    <glyph glyph-name="udieresis" unicode="&#xfc;" horiz-adv-x="1117" 
d="M451 -22q-158 0 -231 91t-73 264v114.5v95.5v163.5v143.5v142l165 7v-216v-223v-188q0 -118 43 -179.5t153 -61.5q64 0 117 27.5t97 72.5t80 100v229v220v212h165v-214v-235v-105v-225v-213h-144l-6 175h-18q-31 -45 -80.5 -90.5t-116.5 -76t-151 -30.5zM769 1207
q-49 0 -79 29t-30 87q0 57 30.5 87t80.5 30t79 -31.5t29 -85.5q0 -58 -29.5 -87t-80.5 -29zM345 1207q-49 0 -79 29t-30 87q0 57 30.5 87t80.5 30t79 -31.5t29 -85.5q0 -58 -29.5 -87t-80.5 -29z" />
    <glyph glyph-name="yacute" unicode="&#xfd;" horiz-adv-x="1035" 
d="M268 -390q40 98 80 198t80 198v-42q-38 102 -76 207t-75 204l-66 180q-39 107 -80.5 219t-80.5 218l177 7l84 -252t84 -251l105 -319h18l115 320q45 125 89 248t89 247h175q-32 -80 -61.5 -154.5t-65 -164.5t-84.5 -214l-110 -279l-127.5 -323t-95.5 -241zM370 1154
q68 100 136.5 200t134.5 198l185 4q-55 -68 -109 -135t-107 -133l-106 -132z" />
    <glyph glyph-name="thorn" unicode="&#xfe;" horiz-adv-x="1183" 
d="M172 -390v215.5v228.5v933v245v232l165 20v-241.5v-255.5v-110h18q28 35 72.5 67t103 52t128.5 20q134 0 228.5 -67.5t144.5 -184.5t50 -265q0 -139 -46.5 -257.5t-141 -191t-236.5 -72.5q-66 0 -122 17.5t-101.5 50t-82.5 79.5h-15v-78v-218.5v-212.5zM608 126
q107 0 174.5 53t99 137.5t31.5 181.5q0 101 -33.5 184.5t-101.5 133.5t-173 50q-52 0 -102 -15.5t-92.5 -46t-73.5 -75.5v-441q30 -51 69.5 -87t89.5 -55.5t112 -19.5z" />
    <glyph glyph-name="ydieresis" unicode="&#xff;" horiz-adv-x="1035" 
d="M268 -390q40 98 80 198t80 198v-42q-38 102 -76 207t-75 204l-66 180q-39 107 -80.5 219t-80.5 218l177 7l84 -252t84 -251l105 -319h18l115 320q45 125 89 248t89 247h175q-32 -80 -61.5 -154.5t-65 -164.5t-84.5 -214l-110 -279l-127.5 -323t-95.5 -241zM729 1207
q-49 0 -79 29t-30 87q0 57 30.5 87t80.5 30t79 -31.5t29 -85.5q0 -58 -29.5 -87t-80.5 -29zM305 1207q-49 0 -79 29t-30 87q0 57 30.5 87t80.5 30t79 -31.5t29 -85.5q0 -58 -29.5 -87t-80.5 -29z" />
    <glyph glyph-name="Amacron" unicode="&#x100;" horiz-adv-x="1380" 
d="M59 0q42 115 87.5 242t87.5 241l177 490q47 132 86 238.5t78 214.5h238q39 -110 77 -216t85 -238l176 -491q42 -118 86.5 -242.5t85.5 -238.5h-188q-43 125 -88.5 257.5t-85.5 249.5l-260 756h-17l-262 -749q-43 -122 -89 -255.5t-91 -258.5h-183zM323 358l16 142h722
l13 -142h-751zM376 1671v129h150h164h164.5h149.5v-129h-149.5h-164.5h-164h-150z" />
    <glyph glyph-name="amacron" unicode="&#x101;" horiz-adv-x="1037" 
d="M404 -20q-89 0 -156 34.5t-104.5 98.5t-37.5 154q0 81 29 136.5t76 90.5t104 54.5t114 29.5l311 54q4 101 -26.5 152.5t-85.5 69.5t-122 18q-34 0 -73 -5t-82.5 -15.5t-91.5 -26.5t-101 -39l-9 151q36 15 81.5 29t97 25.5t105.5 17.5t109 6q111 0 191.5 -35t123.5 -110
t43 -196v-117v-135v-129v-138.5v-154.5h-150l-9 141h-16q-31 -40 -78 -77t-108.5 -60.5t-134.5 -23.5zM452 117q53 0 106 22t99.5 65.5t78.5 109.5l1 214q-16 -9 -42.5 -18t-79 -20.5t-145.5 -28.5q-57 -10 -101 -32.5t-69.5 -61t-25.5 -93.5q0 -86 51.5 -121.5t126.5 -35.5
zM216 1252v129h150h164h164.5h149.5v-129h-149.5h-164.5h-164h-150z" />
    <glyph glyph-name="Abreve" unicode="&#x102;" horiz-adv-x="1380" 
d="M59 0q42 115 87.5 242t87.5 241l177 490q47 132 86 238.5t78 214.5h238q39 -110 77 -216t85 -238l176 -491q42 -118 86.5 -242.5t85.5 -238.5h-188q-43 125 -88.5 257.5t-85.5 249.5l-260 756h-17l-262 -749q-43 -122 -89 -255.5t-91 -258.5h-183zM323 358l16 142h722
l13 -142h-751zM687 1563q-157 0 -239.5 95t-82.5 279l122 5q0 -133 51.5 -194.5t148.5 -61.5q98 0 149.5 60.5t51.5 190.5h122q0 -123 -36.5 -206.5t-108.5 -125.5t-178 -42z" />
    <glyph glyph-name="abreve" unicode="&#x103;" horiz-adv-x="1037" 
d="M404 -20q-89 0 -156 34.5t-104.5 98.5t-37.5 154q0 81 29 136.5t76 90.5t104 54.5t114 29.5l311 54q4 101 -26.5 152.5t-85.5 69.5t-122 18q-34 0 -73 -5t-82.5 -15.5t-91.5 -26.5t-101 -39l-9 151q36 15 81.5 29t97 25.5t105.5 17.5t109 6q111 0 191.5 -35t123.5 -110
t43 -196v-117v-135v-129v-138.5v-154.5h-150l-9 141h-16q-31 -40 -78 -77t-108.5 -60.5t-134.5 -23.5zM452 117q53 0 106 22t99.5 65.5t78.5 109.5l1 214q-16 -9 -42.5 -18t-79 -20.5t-145.5 -28.5q-57 -10 -101 -32.5t-69.5 -61t-25.5 -93.5q0 -86 51.5 -121.5t126.5 -35.5
zM527 1144q-157 0 -239.5 94.5t-82.5 279.5l122 5q0 -133 51.5 -194.5t148.5 -61.5q98 0 149.5 60.5t51.5 190.5h122q0 -123 -36.5 -206.5t-108.5 -125.5t-178 -42z" />
    <glyph glyph-name="Aogonek" unicode="&#x104;" horiz-adv-x="1380" 
d="M59 0q42 115 87.5 242t87.5 241l177 490q47 132 86 238.5t78 214.5h238q39 -110 77 -216t85 -238l176 -491q42 -118 86.5 -242.5t85.5 -238.5h-188q-43 125 -88.5 257.5t-85.5 249.5l-260 756h-17l-262 -749q-43 -122 -89 -255.5t-91 -258.5h-183zM323 358l16 142h722
l13 -142h-751zM1213 -416q-72 0 -120.5 20.5t-73.5 57t-25 85.5q0 48 23 93t68.5 86.5t111.5 80.5v36l87 7l38 -50q-81 -41 -138.5 -98.5t-57.5 -117.5q0 -44 29.5 -65.5t78.5 -21.5q34 0 58 5t38 10v-111q-22 -7 -53.5 -12t-63.5 -5z" />
    <glyph glyph-name="aogonek" unicode="&#x105;" horiz-adv-x="1046" 
d="M404 -20q-89 0 -156 34.5t-104.5 98.5t-37.5 154q0 81 29 136.5t76 90.5t104 54.5t114 29.5l311 54q4 101 -26.5 152.5t-85.5 69.5t-122 18q-34 0 -73 -5t-82.5 -15.5t-91.5 -26.5t-101 -39l-9 151q36 15 81.5 29t97 25.5t105.5 17.5t109 6q111 0 191.5 -35t123.5 -110
t43 -196v-117v-135v-129v-138.5v-154.5h-150l-9 141h-16q-31 -40 -78 -77t-108.5 -60.5t-134.5 -23.5zM452 117q53 0 106 22t99.5 65.5t78.5 109.5l1 214q-16 -9 -42.5 -18t-79 -20.5t-145.5 -28.5q-57 -10 -101 -32.5t-69.5 -61t-25.5 -93.5q0 -86 51.5 -121.5t126.5 -35.5
zM791 -416q-72 0 -120.5 20.5t-73.5 57t-25 85.5q0 48 23 93t68.5 86.5t111.5 80.5v39l75 7l50 -53q-81 -41 -138.5 -98.5t-57.5 -117.5q0 -44 29.5 -65.5t78.5 -21.5q34 0 58 5t38 10v-111q-22 -7 -53.5 -12t-63.5 -5z" />
    <glyph glyph-name="Cacute" unicode="&#x106;" horiz-adv-x="1370" 
d="M831 -22q-169 0 -304.5 55t-230.5 154.5t-145.5 234t-50.5 293.5q0 216 89 382.5t247 260.5t368 94q71 0 138 -10t127 -27t111 -37t88 -41l-16 -174q-78 46 -151.5 74.5t-144 41.5t-137.5 13q-154 0 -274 -70t-188.5 -199.5t-68.5 -308.5q0 -119 35.5 -224t106 -185
t175 -125.5t243.5 -45.5q51 0 102 6.5t101 20.5t98.5 37.5t95.5 55.5l14 -172q-42 -27 -92.5 -47t-106 -32.5t-113.5 -18.5t-116 -6zM635 1573l136.5 182t134.5 181l185 2q-55 -62 -108.5 -122.5t-107 -120.5t-106.5 -119z" />
    <glyph glyph-name="cacute" unicode="&#x107;" horiz-adv-x="989" 
d="M604 -20q-161 0 -273.5 68t-171.5 185t-59 264t56.5 264.5t165 185.5t264.5 68q58 0 114.5 -10t106.5 -26.5t89 -38.5l-15 -152q-56 32 -105.5 49.5t-92 24t-78.5 6.5q-152 0 -244 -99.5t-92 -268.5q0 -106 40.5 -191.5t122 -135t202.5 -49.5q43 0 85.5 8t84.5 23.5
t81 40.5l14 -151q-33 -18 -77 -32.5t-98.5 -23.5t-119.5 -9zM410 1154q68 100 136.5 200t134.5 198l185 4q-55 -68 -109 -135t-107 -133l-106 -132z" />
    <glyph glyph-name="Ccircumflex" unicode="&#x108;" horiz-adv-x="1370" 
d="M831 -22q-169 0 -304.5 55t-230.5 154.5t-145.5 234t-50.5 293.5q0 216 89 382.5t247 260.5t368 94q71 0 138 -10t127 -27t111 -37t88 -41l-16 -174q-78 46 -151.5 74.5t-144 41.5t-137.5 13q-154 0 -274 -70t-188.5 -199.5t-68.5 -308.5q0 -119 35.5 -224t106 -185
t175 -125.5t243.5 -45.5q51 0 102 6.5t101 20.5t98.5 37.5t95.5 55.5l14 -172q-42 -27 -92.5 -47t-106 -32.5t-113.5 -18.5t-116 -6zM1009 1571q-63 75 -125.5 147.5t-127.5 148.5h48q-64 -75 -125.5 -147t-125.5 -145h-134q67 89 135 179.5t136 181.5h181
q68 -91 136 -181.5t136 -180.5z" />
    <glyph glyph-name="ccircumflex" unicode="&#x109;" horiz-adv-x="989" 
d="M604 -20q-161 0 -273.5 68t-171.5 185t-59 264t56.5 264.5t165 185.5t264.5 68q58 0 114.5 -10t106.5 -26.5t89 -38.5l-15 -152q-56 32 -105.5 49.5t-92 24t-78.5 6.5q-152 0 -244 -99.5t-92 -268.5q0 -106 40.5 -191.5t122 -135t202.5 -49.5q43 0 85.5 8t84.5 23.5
t81 40.5l14 -151q-33 -18 -77 -32.5t-98.5 -23.5t-119.5 -9zM784 1152q-62 82 -124 161.5t-126 161.5h44q-63 -82 -124.5 -160.5t-125.5 -158.5h-134q67 98 135 197.5t136 198.5h181q68 -99 136 -198.5t136 -199.5z" />
    <glyph glyph-name="Cdotaccent" unicode="&#x10a;" horiz-adv-x="1370" 
d="M831 -22q-169 0 -304.5 55t-230.5 154.5t-145.5 234t-50.5 293.5q0 216 89 382.5t247 260.5t368 94q71 0 138 -10t127 -27t111 -37t88 -41l-16 -174q-78 46 -151.5 74.5t-144 41.5t-137.5 13q-154 0 -274 -70t-188.5 -199.5t-68.5 -308.5q0 -119 35.5 -224t106 -185
t175 -125.5t243.5 -45.5q51 0 102 6.5t101 20.5t98.5 37.5t95.5 55.5l14 -172q-42 -27 -92.5 -47t-106 -32.5t-113.5 -18.5t-116 -6zM780 1626q-54 0 -88 29.5t-34 92.5q0 60 34 91t90 31q55 0 88 -32t33 -90q0 -63 -33 -92.5t-90 -29.5z" />
    <glyph glyph-name="cdotaccent" unicode="&#x10b;" horiz-adv-x="989" 
d="M604 -20q-161 0 -273.5 68t-171.5 185t-59 264t56.5 264.5t165 185.5t264.5 68q58 0 114.5 -10t106.5 -26.5t89 -38.5l-15 -152q-56 32 -105.5 49.5t-92 24t-78.5 6.5q-152 0 -244 -99.5t-92 -268.5q0 -106 40.5 -191.5t122 -135t202.5 -49.5q43 0 85.5 8t84.5 23.5
t81 40.5l14 -151q-33 -18 -77 -32.5t-98.5 -23.5t-119.5 -9zM555 1221q-54 0 -88 30t-34 92q0 61 34 91.5t90 30.5q55 0 88 -31.5t33 -90.5q0 -62 -33 -92t-90 -30z" />
    <glyph glyph-name="Ccaron" unicode="&#x10c;" horiz-adv-x="1370" 
d="M831 -22q-169 0 -304.5 55t-230.5 154.5t-145.5 234t-50.5 293.5q0 216 89 382.5t247 260.5t368 94q71 0 138 -10t127 -27t111 -37t88 -41l-16 -174q-78 46 -151.5 74.5t-144 41.5t-137.5 13q-154 0 -274 -70t-188.5 -199.5t-68.5 -308.5q0 -119 35.5 -224t106 -185
t175 -125.5t243.5 -45.5q51 0 102 6.5t101 20.5t98.5 37.5t95.5 55.5l14 -172q-42 -27 -92.5 -47t-106 -32.5t-113.5 -18.5t-116 -6zM693 1572q-68 92 -136 182.5t-136 180.5l134 2q63 -74 125.5 -147t127.5 -149h-48q64 75 126 147.5t125 144.5h134q-67 -89 -134.5 -179
l-136.5 -182h-181z" />
    <glyph glyph-name="ccaron" unicode="&#x10d;" horiz-adv-x="989" 
d="M604 -20q-161 0 -273.5 68t-171.5 185t-59 264t56.5 264.5t165 185.5t264.5 68q58 0 114.5 -10t106.5 -26.5t89 -38.5l-15 -152q-56 32 -105.5 49.5t-92 24t-78.5 6.5q-152 0 -244 -99.5t-92 -268.5q0 -106 40.5 -191.5t122 -135t202.5 -49.5q43 0 85.5 8t84.5 23.5
t81 40.5l14 -151q-33 -18 -77 -32.5t-98.5 -23.5t-119.5 -9zM468 1143q-68 100 -136 199.5t-136 198.5l134 3q63 -81 125 -161t125 -162h-44q63 81 125 160t125 159h134q-67 -98 -135 -197.5t-136 -199.5h-181z" />
    <glyph glyph-name="Dcaron" unicode="&#x10e;" horiz-adv-x="1473" 
d="M185 0v229v242v478v246.5v230.5h172h163h166q165 0 293 -47.5t215.5 -139t133 -222.5t45.5 -298q0 -151 -40 -281.5t-127.5 -229t-229 -153.5t-344.5 -55h-159h-142.5h-145.5zM366 151h267q204 0 325 74.5t174 204t53 292.5q0 125 -31.5 227t-96 175t-165 112t-237.5 39
h-289v-171.5v-187.5v-410v-185v-170zM613 1572q-68 92 -136 182.5t-136 180.5l134 2q63 -74 125.5 -147t127.5 -149h-48q64 75 126 147.5t125 144.5h134q-67 -89 -134.5 -179l-136.5 -182h-181z" />
    <glyph glyph-name="dcaron" unicode="&#x10f;" horiz-adv-x="1177" 
d="M525 -22q-142 0 -236 72.5t-141 191t-47 257.5q0 148 50 265t145.5 184.5t231.5 67.5q69 0 126.5 -18.5t101.5 -49t73 -67.5h17v106v244.5v232.5l165 20v-242.5v-254.5v-549v-225v-213h-144l-8 136h-16q-39 -51 -87 -86t-105.5 -53.5t-125.5 -18.5zM575 126
q62 0 112 19.5t89.5 55.5t69.5 87v441q-31 45 -73.5 75.5t-92.5 46t-102 15.5q-105 0 -173 -50t-101.5 -133.5t-33.5 -184.5q0 -97 32 -181.5t99 -137.5t174 -53zM1172 1088q21 50 35 105t20.5 106t6.5 89v80v78l73 7q35 -3 53.5 -26.5t18.5 -67.5q0 -48 -10 -99.5
t-27.5 -101t-39 -93t-44.5 -74.5z" />
    <glyph glyph-name="Dcroat" unicode="&#x110;" horiz-adv-x="1473" 
d="M-23 632v132h178.5h160.5h93h161h178v-132h-178h-161h-93h-160.5h-178.5zM185 0v229v242v478v246.5v230.5h172h163h166q165 0 293 -47.5t215.5 -139t133 -222.5t45.5 -298q0 -151 -40 -281.5t-127.5 -229t-229 -153.5t-344.5 -55h-159h-142.5h-145.5zM366 151h267
q204 0 325 74.5t174 204t53 292.5q0 125 -31.5 227t-96 175t-165 112t-237.5 39h-289v-171.5v-187.5v-410v-185v-170z" />
    <glyph glyph-name="dcroat" unicode="&#x111;" horiz-adv-x="1155" 
d="M490 1190v118h165.5h147.5h87h148h165v-118h-165h-148h-87h-147.5h-165.5zM525 -22q-142 0 -236 72.5t-141 191t-47 257.5q0 148 50 265t145.5 184.5t231.5 67.5q69 0 126.5 -18.5t101.5 -49t73 -67.5h17v106v244.5v232.5l165 20v-242.5v-254.5v-549v-225v-213h-144
l-8 136h-16q-39 -51 -87 -86t-105.5 -53.5t-125.5 -18.5zM575 126q62 0 112 19.5t89.5 55.5t69.5 87v441q-31 45 -73.5 75.5t-92.5 46t-102 15.5q-105 0 -173 -50t-101.5 -133.5t-33.5 -184.5q0 -97 32 -181.5t99 -137.5t174 -53z" />
    <glyph glyph-name="Emacron" unicode="&#x112;" horiz-adv-x="1187" 
d="M185 0v229v242v479v245v231h886v-155h-214.5h-270.5h-324l100 129v-231.5v-244.5v-426v-241.5v-229.5l-90 128h330h247.5h223.5v-155h-888zM323 647v151h277h238h193v-151h-197.5h-234.5h-276zM317 1671v129h150h164h164.5h149.5v-129h-149.5h-164.5h-164h-150z" />
    <glyph glyph-name="emacron" unicode="&#x113;" horiz-adv-x="1055" 
d="M620 -22q-178 0 -293 68t-171 186t-56 270q0 150 55 266t158 181.5t246 65.5q126 0 216.5 -49t139.5 -143.5t49 -233.5q0 -37 -1.5 -66.5t-6.5 -59.5l-145 73q2 16 2.5 30.5t0.5 28.5q0 141 -70 214.5t-183 73.5q-91 0 -156.5 -46.5t-101.5 -128.5t-36 -187v-23
q0 -116 40 -200t121.5 -129.5t207.5 -45.5q47 0 99.5 7.5t104 23.5t98.5 42l7 -149q-38 -21 -88 -36.5t-110 -24t-127 -8.5zM169 463v118l686 6l101 -38v-86h-787zM241 1252v129h150h164h164.5h149.5v-129h-149.5h-164.5h-164h-150z" />
    <glyph glyph-name="Ebreve" unicode="&#x114;" horiz-adv-x="1187" 
d="M185 0v229v242v479v245v231h886v-155h-214.5h-270.5h-324l100 129v-231.5v-244.5v-426v-241.5v-229.5l-90 128h330h247.5h223.5v-155h-888zM323 647v151h277h238h193v-151h-197.5h-234.5h-276zM628 1563q-157 0 -239.5 95t-82.5 279l122 5q0 -133 51.5 -194.5
t148.5 -61.5q98 0 149.5 60.5t51.5 190.5h122q0 -123 -36.5 -206.5t-108.5 -125.5t-178 -42z" />
    <glyph glyph-name="ebreve" unicode="&#x115;" horiz-adv-x="1055" 
d="M620 -22q-178 0 -293 68t-171 186t-56 270q0 150 55 266t158 181.5t246 65.5q126 0 216.5 -49t139.5 -143.5t49 -233.5q0 -37 -1.5 -66.5t-6.5 -59.5l-145 73q2 16 2.5 30.5t0.5 28.5q0 141 -70 214.5t-183 73.5q-91 0 -156.5 -46.5t-101.5 -128.5t-36 -187v-23
q0 -116 40 -200t121.5 -129.5t207.5 -45.5q47 0 99.5 7.5t104 23.5t98.5 42l7 -149q-38 -21 -88 -36.5t-110 -24t-127 -8.5zM169 463v118l686 6l101 -38v-86h-787zM552 1144q-157 0 -239.5 94.5t-82.5 279.5l122 5q0 -133 51.5 -194.5t148.5 -61.5q98 0 149.5 60.5
t51.5 190.5h122q0 -123 -36.5 -206.5t-108.5 -125.5t-178 -42z" />
    <glyph glyph-name="Edotaccent" unicode="&#x116;" horiz-adv-x="1187" 
d="M185 0v229v242v479v245v231h886v-155h-214.5h-270.5h-324l100 129v-231.5v-244.5v-426v-241.5v-229.5l-90 128h330h247.5h223.5v-155h-888zM323 647v151h277h238h193v-151h-197.5h-234.5h-276zM628 1626q-54 0 -88 29.5t-34 92.5q0 60 34 91t90 31q55 0 88 -32t33 -90
q0 -63 -33 -92.5t-90 -29.5z" />
    <glyph glyph-name="edotaccent" unicode="&#x117;" horiz-adv-x="1055" 
d="M620 -22q-178 0 -293 68t-171 186t-56 270q0 150 55 266t158 181.5t246 65.5q126 0 216.5 -49t139.5 -143.5t49 -233.5q0 -37 -1.5 -66.5t-6.5 -59.5l-145 73q2 16 2.5 30.5t0.5 28.5q0 141 -70 214.5t-183 73.5q-91 0 -156.5 -46.5t-101.5 -128.5t-36 -187v-23
q0 -116 40 -200t121.5 -129.5t207.5 -45.5q47 0 99.5 7.5t104 23.5t98.5 42l7 -149q-38 -21 -88 -36.5t-110 -24t-127 -8.5zM169 463v118l686 6l101 -38v-86h-787zM553 1221q-54 0 -88 30t-34 92q0 61 34 91.5t90 30.5q55 0 88 -31.5t33 -90.5q0 -62 -33 -92t-90 -30z" />
    <glyph glyph-name="Eogonek" unicode="&#x118;" horiz-adv-x="1187" 
d="M185 0v229v242v479v245v231h886v-155h-214.5h-270.5h-324l100 129v-231.5v-244.5v-426v-241.5v-229.5l-90 128h330h247.5h223.5v-155h-888zM323 647v151h277h238h193v-151h-197.5h-234.5h-276zM963 -416q-72 0 -120.5 20.5t-73.5 57t-25 85.5q0 48 23 93t68.5 86.5
t111.5 80.5v36l87 7l38 -50q-81 -41 -138.5 -98.5t-57.5 -117.5q0 -44 29.5 -65.5t78.5 -21.5q34 0 58 5t38 10v-111q-22 -7 -53.5 -12t-63.5 -5z" />
    <glyph glyph-name="eogonek" unicode="&#x119;" horiz-adv-x="1055" 
d="M620 -22q-178 0 -293 68t-171 186t-56 270q0 150 55 266t158 181.5t246 65.5q126 0 216.5 -49t139.5 -143.5t49 -233.5q0 -37 -1.5 -66.5t-6.5 -59.5l-145 73q2 16 2.5 30.5t0.5 28.5q0 141 -70 214.5t-183 73.5q-91 0 -156.5 -46.5t-101.5 -128.5t-36 -187v-23
q0 -116 40 -200t121.5 -129.5t207.5 -45.5q47 0 99.5 7.5t104 23.5t98.5 42l7 -149q-38 -21 -88 -36.5t-110 -24t-127 -8.5zM169 463v118l686 6l101 -38v-86h-787zM668 -416q-72 0 -120.5 20.5t-73.5 57t-25 85.5q0 48 23 93t68.5 86.5t111.5 80.5v36l87 7l38 -50
q-81 -41 -138.5 -98.5t-57.5 -117.5q0 -44 29.5 -65.5t78.5 -21.5q34 0 58 5t38 10v-111q-22 -7 -53.5 -12t-63.5 -5z" />
    <glyph glyph-name="Ecaron" unicode="&#x11a;" horiz-adv-x="1187" 
d="M185 0v229v242v479v245v231h886v-155h-214.5h-270.5h-324l100 129v-231.5v-244.5v-426v-241.5v-229.5l-90 128h330h247.5h223.5v-155h-888zM323 647v151h277h238h193v-151h-197.5h-234.5h-276zM541 1572q-68 92 -136 182.5t-136 180.5l134 2q63 -74 125.5 -147
t127.5 -149h-48q64 75 126 147.5t125 144.5h134q-67 -89 -134.5 -179l-136.5 -182h-181z" />
    <glyph glyph-name="ecaron" unicode="&#x11b;" horiz-adv-x="1055" 
d="M620 -22q-178 0 -293 68t-171 186t-56 270q0 150 55 266t158 181.5t246 65.5q126 0 216.5 -49t139.5 -143.5t49 -233.5q0 -37 -1.5 -66.5t-6.5 -59.5l-145 73q2 16 2.5 30.5t0.5 28.5q0 141 -70 214.5t-183 73.5q-91 0 -156.5 -46.5t-101.5 -128.5t-36 -187v-23
q0 -116 40 -200t121.5 -129.5t207.5 -45.5q47 0 99.5 7.5t104 23.5t98.5 42l7 -149q-38 -21 -88 -36.5t-110 -24t-127 -8.5zM169 463v118l686 6l101 -38v-86h-787zM465 1143q-68 100 -136 199.5t-136 198.5l134 3q63 -81 125 -161t125 -162h-44q63 81 125 160t125 159h134
q-67 -98 -135 -197.5t-136 -199.5h-181z" />
    <glyph glyph-name="Gcircumflex" unicode="&#x11c;" horiz-adv-x="1466" 
d="M860 -21q-186 0 -327.5 55.5t-237.5 155.5t-145.5 234.5t-49.5 291.5q0 215 88.5 381.5t250 260.5t380.5 94q75 0 145.5 -10t133 -27.5t115 -37.5t90.5 -40l-16 -174q-83 46 -161 74.5t-152 41.5t-144 13q-119 0 -218.5 -39t-172.5 -114t-112.5 -182t-39.5 -242
q0 -122 34.5 -228t106 -186t182.5 -124.5t263 -44.5q56 0 112 5.5t110.5 18t107.5 32t103 46.5l21 -170q-34 -16 -84.5 -31t-112.5 -27.5t-130.5 -19.5t-139.5 -7zM1156 61v185v158v166v146h171v-146v-166v-157.5v-182.5zM1024 1571q-63 75 -125.5 147.5t-127.5 148.5h48
q-64 -75 -125.5 -147t-125.5 -145h-134q67 89 135 179.5t136 181.5h181q68 -91 136 -181.5t136 -180.5z" />
    <glyph glyph-name="gcircumflex" unicode="&#x11d;" horiz-adv-x="1084" 
d="M488 -406q-111 0 -185 20t-117 54t-61.5 75.5t-18.5 84.5q0 67 33 112.5t77 71.5t77 36v14q-17 5 -41 21.5t-43 46.5t-19 76q0 35 13.5 65t41.5 53t69 40v15q-23 8 -59 30t-72.5 59.5t-61.5 92.5t-25 130q0 97 47.5 170t135 113.5t205.5 40.5q48 0 83.5 -5t73.5 -10.5
t93 -5.5h309v-124h-193h-189l47 78q88 -42 126.5 -111.5t38.5 -156.5q0 -98 -40 -165.5t-113 -109t-170 -63.5q-105 -25 -156 -45.5t-51 -61.5q0 -29 21 -45t66.5 -23t120.5 -7h43q138 0 226 -21.5t130.5 -71.5t42.5 -133q0 -86 -45 -150.5t-120 -106.5t-163.5 -62.5
t-176.5 -20.5zM502 -272q110 0 184.5 30.5t111.5 72.5t37 78q0 38 -22 63t-82 37.5t-174 12.5h-37q-64 -1 -124 -21t-98.5 -55.5t-38.5 -82.5q0 -26 12.5 -50.5t41 -43.5t75 -30t114.5 -11zM473 459q37 6 79.5 18.5t80 35.5t61.5 61t24 96q0 72 -37 117t-91.5 66.5
t-105.5 21.5q-61 0 -114 -21.5t-86 -65t-33 -109.5t32.5 -112t83 -73t106.5 -35zM741 1152q-62 82 -124 161.5t-126 161.5h44q-63 -82 -124.5 -160.5t-125.5 -158.5h-134q67 98 135 197.5t136 198.5h181q68 -99 136 -198.5t136 -199.5z" />
    <glyph glyph-name="Gbreve" unicode="&#x11e;" horiz-adv-x="1466" 
d="M860 -21q-186 0 -327.5 55.5t-237.5 155.5t-145.5 234.5t-49.5 291.5q0 215 88.5 381.5t250 260.5t380.5 94q75 0 145.5 -10t133 -27.5t115 -37.5t90.5 -40l-16 -174q-83 46 -161 74.5t-152 41.5t-144 13q-119 0 -218.5 -39t-172.5 -114t-112.5 -182t-39.5 -242
q0 -122 34.5 -228t106 -186t182.5 -124.5t263 -44.5q56 0 112 5.5t110.5 18t107.5 32t103 46.5l21 -170q-34 -16 -84.5 -31t-112.5 -27.5t-130.5 -19.5t-139.5 -7zM1156 61v185v158v166v146h171v-146v-166v-157.5v-182.5zM795 1563q-157 0 -239.5 95t-82.5 279l122 5
q0 -133 51.5 -194.5t148.5 -61.5q98 0 149.5 60.5t51.5 190.5h122q0 -123 -36.5 -206.5t-108.5 -125.5t-178 -42z" />
    <glyph glyph-name="gbreve" unicode="&#x11f;" horiz-adv-x="1084" 
d="M488 -406q-111 0 -185 20t-117 54t-61.5 75.5t-18.5 84.5q0 67 33 112.5t77 71.5t77 36v14q-17 5 -41 21.5t-43 46.5t-19 76q0 35 13.5 65t41.5 53t69 40v15q-23 8 -59 30t-72.5 59.5t-61.5 92.5t-25 130q0 97 47.5 170t135 113.5t205.5 40.5q48 0 83.5 -5t73.5 -10.5
t93 -5.5h309v-124h-193h-189l47 78q88 -42 126.5 -111.5t38.5 -156.5q0 -98 -40 -165.5t-113 -109t-170 -63.5q-105 -25 -156 -45.5t-51 -61.5q0 -29 21 -45t66.5 -23t120.5 -7h43q138 0 226 -21.5t130.5 -71.5t42.5 -133q0 -86 -45 -150.5t-120 -106.5t-163.5 -62.5
t-176.5 -20.5zM502 -272q110 0 184.5 30.5t111.5 72.5t37 78q0 38 -22 63t-82 37.5t-174 12.5h-37q-64 -1 -124 -21t-98.5 -55.5t-38.5 -82.5q0 -26 12.5 -50.5t41 -43.5t75 -30t114.5 -11zM473 459q37 6 79.5 18.5t80 35.5t61.5 61t24 96q0 72 -37 117t-91.5 66.5
t-105.5 21.5q-61 0 -114 -21.5t-86 -65t-33 -109.5t32.5 -112t83 -73t106.5 -35zM512 1144q-157 0 -239.5 94.5t-82.5 279.5l122 5q0 -133 51.5 -194.5t148.5 -61.5q98 0 149.5 60.5t51.5 190.5h122q0 -123 -36.5 -206.5t-108.5 -125.5t-178 -42z" />
    <glyph glyph-name="Gdotaccent" unicode="&#x120;" horiz-adv-x="1466" 
d="M860 -21q-186 0 -327.5 55.5t-237.5 155.5t-145.5 234.5t-49.5 291.5q0 215 88.5 381.5t250 260.5t380.5 94q75 0 145.5 -10t133 -27.5t115 -37.5t90.5 -40l-16 -174q-83 46 -161 74.5t-152 41.5t-144 13q-119 0 -218.5 -39t-172.5 -114t-112.5 -182t-39.5 -242
q0 -122 34.5 -228t106 -186t182.5 -124.5t263 -44.5q56 0 112 5.5t110.5 18t107.5 32t103 46.5l21 -170q-34 -16 -84.5 -31t-112.5 -27.5t-130.5 -19.5t-139.5 -7zM1156 61v185v158v166v146h171v-146v-166v-157.5v-182.5zM795 1626q-54 0 -88 29.5t-34 92.5q0 60 34 91
t90 31q55 0 88 -32t33 -90q0 -63 -33 -92.5t-90 -29.5z" />
    <glyph glyph-name="gdotaccent" unicode="&#x121;" horiz-adv-x="1084" 
d="M488 -406q-111 0 -185 20t-117 54t-61.5 75.5t-18.5 84.5q0 67 33 112.5t77 71.5t77 36v14q-17 5 -41 21.5t-43 46.5t-19 76q0 35 13.5 65t41.5 53t69 40v15q-23 8 -59 30t-72.5 59.5t-61.5 92.5t-25 130q0 97 47.5 170t135 113.5t205.5 40.5q48 0 83.5 -5t73.5 -10.5
t93 -5.5h309v-124h-193h-189l47 78q88 -42 126.5 -111.5t38.5 -156.5q0 -98 -40 -165.5t-113 -109t-170 -63.5q-105 -25 -156 -45.5t-51 -61.5q0 -29 21 -45t66.5 -23t120.5 -7h43q138 0 226 -21.5t130.5 -71.5t42.5 -133q0 -86 -45 -150.5t-120 -106.5t-163.5 -62.5
t-176.5 -20.5zM502 -272q110 0 184.5 30.5t111.5 72.5t37 78q0 38 -22 63t-82 37.5t-174 12.5h-37q-64 -1 -124 -21t-98.5 -55.5t-38.5 -82.5q0 -26 12.5 -50.5t41 -43.5t75 -30t114.5 -11zM473 459q37 6 79.5 18.5t80 35.5t61.5 61t24 96q0 72 -37 117t-91.5 66.5
t-105.5 21.5q-61 0 -114 -21.5t-86 -65t-33 -109.5t32.5 -112t83 -73t106.5 -35zM512 1221q-54 0 -88 30t-34 92q0 61 34 91.5t90 30.5q55 0 88 -31.5t33 -90.5q0 -62 -33 -92t-90 -30z" />
    <glyph glyph-name="uni0122" unicode="&#x122;" horiz-adv-x="1466" 
d="M860 -21q-186 0 -327.5 55.5t-237.5 155.5t-145.5 234.5t-49.5 291.5q0 215 88.5 381.5t250 260.5t380.5 94q75 0 145.5 -10t133 -27.5t115 -37.5t90.5 -40l-16 -174q-83 46 -161 74.5t-152 41.5t-144 13q-119 0 -218.5 -39t-172.5 -114t-112.5 -182t-39.5 -242
q0 -122 34.5 -228t106 -186t182.5 -124.5t263 -44.5q56 0 112 5.5t110.5 18t107.5 32t103 46.5l21 -170q-34 -16 -84.5 -31t-112.5 -27.5t-130.5 -19.5t-139.5 -7zM1156 61v185v158v166v146h171v-146v-166v-157.5v-182.5zM663 -570q40 57 50 111t10 134v66v66l83 6
q52 -2 78 -31t26 -74q0 -52 -20.5 -103.5t-58 -96t-88.5 -75.5z" />
    <glyph glyph-name="uni0123" unicode="&#x123;" horiz-adv-x="1084" 
d="M488 -406q-111 0 -185 20t-117 54t-61.5 75.5t-18.5 84.5q0 67 33 112.5t77 71.5t77 36v14q-17 5 -41 21.5t-43 46.5t-19 76q0 35 13.5 65t41.5 53t69 40v15q-23 8 -59 30t-72.5 59.5t-61.5 92.5t-25 130q0 97 47.5 170t135 113.5t205.5 40.5q48 0 83.5 -5t73.5 -10.5
t93 -5.5h309v-124h-193h-189l47 78q88 -42 126.5 -111.5t38.5 -156.5q0 -98 -40 -165.5t-113 -109t-170 -63.5q-105 -25 -156 -45.5t-51 -61.5q0 -29 21 -45t66.5 -23t120.5 -7h43q138 0 226 -21.5t130.5 -71.5t42.5 -133q0 -86 -45 -150.5t-120 -106.5t-163.5 -62.5
t-176.5 -20.5zM502 -272q110 0 184.5 30.5t111.5 72.5t37 78q0 38 -22 63t-82 37.5t-174 12.5h-37q-64 -1 -124 -21t-98.5 -55.5t-38.5 -82.5q0 -26 12.5 -50.5t41 -43.5t75 -30t114.5 -11zM473 459q37 6 79.5 18.5t80 35.5t61.5 61t24 96q0 72 -37 117t-91.5 66.5
t-105.5 21.5q-61 0 -114 -21.5t-86 -65t-33 -109.5t32.5 -112t83 -73t106.5 -35zM501 1221q-52 3 -78 32t-26 74q0 52 20.5 103.5t58 96t88.5 75.5l80 3q-40 -56 -50 -110.5t-10 -134.5v-66.5v-65.5z" />
    <glyph glyph-name="Hcircumflex" unicode="&#x124;" horiz-adv-x="1499" 
d="M1133 0v229v242v478v246.5v230.5h181v-230.5v-246.5v-478v-242v-229h-181zM185 0v229v242v478v246.5v230.5h181v-230.5v-246.5v-478v-242v-229h-181zM303 644v156h899v-156h-899zM977 1571q-63 75 -125.5 147.5t-127.5 148.5h48q-64 -75 -125.5 -147t-125.5 -145h-134
q67 89 135 179.5t136 181.5h181q68 -91 136 -181.5t136 -180.5z" />
    <glyph glyph-name="hcircumflex" unicode="&#x125;" horiz-adv-x="1146" 
d="M172 0v213v225v549v245v232l165 20v-241.5v-255.5v-160h18q30 42 77.5 86t113 73.5t149.5 29.5q158 0 231 -91t73 -264v-115v-108v-222.5v-215.5h-165v214.5v216.5v188q0 119 -42.5 180t-153.5 61q-67 0 -122 -27t-99.5 -72.5t-79.5 -100.5v-229v-218.5v-212.5h-165z
M771 1611q-62 82 -124 161.5t-126 161.5h44q-63 -82 -124.5 -160.5t-125.5 -158.5h-134q67 98 135 197.5t136 198.5h181q68 -99 136 -198.5t136 -199.5z" />
    <glyph glyph-name="Hbar" unicode="&#x126;" horiz-adv-x="1499" 
d="M1133 0v229v242v478v246.5v230.5h181v-155.5v-153.5v-168v-478v-242v-229h-181zM185 0v229v242v478v168v153.5v155.5h181v-230.5v-246.5v-478v-242v-229h-181zM303 631v150h899v-150h-899zM30 1043v126h200h180h681h181h199v-126h-199h-181h-681h-180h-200z" />
    <glyph glyph-name="hbar" unicode="&#x127;" horiz-adv-x="1146" 
d="M-20 1190v118h166h147h87h149h164v-118h-164h-149h-87h-147h-166zM172 0v213v225v549v245v232l165 20v-241.5v-255.5v-160h18q30 42 77.5 86t113 73.5t149.5 29.5q158 0 231 -91t73 -264v-115v-108v-222.5v-215.5h-165v214.5v216.5v188q0 119 -42.5 180t-153.5 61
q-67 0 -122 -27t-99.5 -72.5t-79.5 -100.5v-229v-218.5v-212.5h-165z" />
    <glyph glyph-name="Itilde" unicode="&#x128;" horiz-adv-x="559" 
d="M188 0v229v242v478v246.5v230.5h184v-230.5v-246.5v-478v-242v-229h-184zM446 1568q-60 0 -103.5 26t-78.5 60.5t-66.5 60.5t-67.5 26q-58 0 -81 -37t-26 -105h-101q0 130 51.5 199.5t139.5 69.5q59 0 102 -26t77 -60t66 -60t69 -26q57 0 79.5 37t24.5 105h101
q0 -131 -50 -200.5t-136 -69.5z" />
    <glyph glyph-name="itilde" unicode="&#x129;" horiz-adv-x="514" 
d="M174 0v213v225v100v164.5v146v143.5l166 6v-145.5v-148v-166.5v-100v-225v-213h-166zM409 1149q-54 0 -93 26t-70 60.5t-59.5 60t-59.5 25.5q-49 0 -70 -36.5t-24 -104.5h-97q0 130 47 199.5t127 69.5q54 0 93 -26t69.5 -60t59 -60t60.5 -26q49 0 68 37t21 105h99
q0 -130 -46 -200t-125 -70z" />
    <glyph glyph-name="Imacron" unicode="&#x12a;" horiz-adv-x="559" 
d="M188 0v229v242v478v246.5v230.5h184v-230.5v-246.5v-478v-242v-229h-184zM-37 1671v129h150h164h164.5h149.5v-129h-149.5h-164.5h-164h-150z" />
    <glyph glyph-name="imacron" unicode="&#x12b;" horiz-adv-x="514" 
d="M174 0v213v225v100v164.5v146v143.5l166 6v-145.5v-148v-166.5v-100v-225v-213h-166zM-4 1252v129h124h137h137h124v-129h-124h-137h-137h-124z" />
    <glyph glyph-name="Ibreve" unicode="&#x12c;" horiz-adv-x="559" 
d="M188 0v229v242v478v246.5v230.5h184v-230.5v-246.5v-478v-242v-229h-184zM274 1563q-157 0 -239.5 95t-82.5 279l122 5q0 -133 51.5 -194.5t148.5 -61.5q98 0 149.5 60.5t51.5 190.5h122q0 -123 -36.5 -206.5t-108.5 -125.5t-178 -42z" />
    <glyph glyph-name="ibreve" unicode="&#x12d;" horiz-adv-x="514" 
d="M174 0v213v225v100v164.5v146v143.5l166 6v-145.5v-148v-166.5v-100v-225v-213h-166zM254 1144q-143 0 -218 95.5t-75 278.5l121 5q0 -133 43.5 -194.5t128.5 -61.5t130 60.5t45 190.5h120q0 -123 -33.5 -206t-99 -125.5t-162.5 -42.5z" />
    <glyph glyph-name="Iogonek" unicode="&#x12e;" horiz-adv-x="559" 
d="M188 0v229v242v478v246.5v230.5h184v-230.5v-246.5v-478v-242v-229h-184zM262 -416q-72 0 -120.5 20.5t-73.5 57t-25 85.5q0 48 23 93t68.5 86.5t111.5 80.5v36l87 7l38 -50q-81 -41 -138.5 -98.5t-57.5 -117.5q0 -44 29.5 -65.5t78.5 -21.5q34 0 58 5t38 10v-111
q-22 -7 -53.5 -12t-63.5 -5z" />
    <glyph glyph-name="iogonek" unicode="&#x12f;" horiz-adv-x="514" 
d="M174 0v213v225v100v164.5v146v143.5l166 6v-145.5v-148v-166.5v-100v-225v-213h-166zM254 1221q-54 0 -88 30t-34 92q0 61 34 91.5t90 30.5q55 0 88 -31.5t33 -90.5q0 -62 -33 -92t-90 -30zM230 -416q-72 0 -120.5 20.5t-73.5 57t-25 85.5q0 48 23 93t68.5 86.5
t111.5 80.5v36l87 7l38 -50q-81 -41 -138.5 -98.5t-57.5 -117.5q0 -44 29.5 -65.5t78.5 -21.5q34 0 58 5t38 10v-111q-22 -7 -53.5 -12t-63.5 -5z" />
    <glyph glyph-name="Idotaccent" unicode="&#x130;" horiz-adv-x="559" 
d="M188 0v229v242v478v246.5v230.5h184v-230.5v-246.5v-478v-242v-229h-184zM274 1626q-54 0 -88 29.5t-34 92.5q0 60 34 91t90 31q55 0 88 -32t33 -90q0 -63 -33 -92.5t-90 -29.5z" />
    <glyph glyph-name="dotlessi" unicode="&#x131;" horiz-adv-x="514" 
d="M174 0v213v225v100v164.5v146v143.5l166 6v-145.5v-148v-166.5v-100v-225v-213h-166z" />
    <glyph glyph-name="Jcircumflex" unicode="&#x134;" horiz-adv-x="582" 
d="M30 -316q58 65 99 131t62.5 143t21.5 178v411v402v246.5v230.5h182v-230.5v-246.5v-357v-243v-230q0 -81 -14.5 -146.5t-39.5 -118t-57.5 -94t-67.5 -76.5h-186zM527 1571q-63 75 -125.5 147.5t-127.5 148.5h48q-64 -75 -125.5 -147t-125.5 -145h-134q67 89 135 179.5
t136 181.5h181q68 -91 136 -181.5t136 -180.5z" />
    <glyph glyph-name="jcircumflex" unicode="&#x135;" horiz-adv-x="510" 
d="M10 -390q58 63 94.5 128.5t53 143t16.5 179.5v377v100v164.5v146v143.5l166 6v-145.5v-148v-166.5v-203v-158v-139q0 -75 -10.5 -138t-31 -115t-48.5 -94t-63 -75zM450 1152q-42 67 -85.5 133t-86 133t-87.5 134h145q59 -99 118.5 -197.5t119.5 -200.5zM-64 1156
q61 100 119.5 198t118.5 198h144q-44 -67 -86.5 -133t-85.5 -131.5t-86 -131.5h-124z" />
    <glyph glyph-name="uni0136" unicode="&#x136;" horiz-adv-x="1342" 
d="M1055 0q-95 103 -178.5 193.5t-162.5 176.5l-271 293h-98v149h97l235 245q83 86 164 171t188 198h220q-110 -113 -214.5 -221.5t-208.5 -216.5l-264 -275l-3 80l293 -323q69 -74 146.5 -160t152.5 -167t131 -143h-227zM185 0v229v242v478v246.5v230.5h181v-230.5v-246.5
v-478v-242v-229h-181zM550 -570q40 57 50 111t10 134v66v66l83 6q52 -2 78 -31t26 -74q0 -52 -20.5 -103.5t-58 -96t-88.5 -75.5z" />
    <glyph glyph-name="uni0137" unicode="&#x137;" horiz-adv-x="1084" 
d="M830 0q-67 68 -135.5 136t-135.5 135l-171 171h-70v118h80l144 153q66 69 133 139.5t132 139.5h204q-86 -87 -171 -174t-169 -174l-169 -172l-6 80l196 -202q89 -88 177.5 -175.5t175.5 -174.5h-215zM172 0v213v225v549v245v232l165 20v-241.5v-255.5v-575v-209v-203
h-165zM421 -570q40 57 50 111t10 134v66v66l83 6q52 -2 78 -31t26 -74q0 -52 -20.5 -103.5t-58 -96t-88.5 -75.5z" />
    <glyph glyph-name="kgreenlandic" unicode="&#x138;" horiz-adv-x="1084" 
d="M172 0v213v225v105v163.5v143.5v142l165 7v-216v-223v-148v-209v-203h-165zM830 0q-67 68 -135.5 136t-135.5 135l-171 171h-70v118h80l144 153q66 69 133 139.5t132 139.5h204q-86 -87 -171 -174t-169 -174l-169 -172l-6 80l196 -202q89 -88 177.5 -175.5t175.5 -174.5
h-215z" />
    <glyph glyph-name="Lacute" unicode="&#x139;" horiz-adv-x="1145" 
d="M185 0v229v242v478v246.5v230.5h181v-230.5v-246.5v-450v-242v-229l-68 133h262h201.5h162h152.5v-161h-891zM257 1573l136.5 182t134.5 181l185 2q-55 -62 -108.5 -122.5t-107 -120.5t-106.5 -119z" />
    <glyph glyph-name="lacute" unicode="&#x13a;" horiz-adv-x="508" 
d="M172 0v213v225v549v245v232l165 20v-242.5v-254.5v-549v-225v-213h-165zM106 1613q68 100 136.5 200t134.5 198l185 4q-55 -68 -109 -135t-107 -133l-106 -132z" />
    <glyph glyph-name="uni013B" unicode="&#x13b;" horiz-adv-x="1145" 
d="M185 0v229v242v478v246.5v230.5h181v-230.5v-246.5v-450v-242v-229l-68 133h262h201.5h162h152.5v-161h-891zM492 -570q40 57 50 111t10 134v66v66l83 6q52 -2 78 -31t26 -74q0 -52 -20.5 -103.5t-58 -96t-88.5 -75.5z" />
    <glyph glyph-name="uni013C" unicode="&#x13c;" horiz-adv-x="508" 
d="M172 0v213v225v549v245v232l165 20v-242.5v-254.5v-549v-225v-213h-165zM119 -570q40 57 50 111t10 134v66v66l83 6q52 -2 78 -31t26 -74q0 -52 -20.5 -103.5t-58 -96t-88.5 -75.5z" />
    <glyph glyph-name="Lcaron" unicode="&#x13d;" horiz-adv-x="1145" 
d="M185 0v229v242v478v246.5v230.5h181v-230.5v-246.5v-450v-242v-229l-68 133h262h201.5h162h152.5v-161h-891zM632 1088q21 50 35 105t20.5 106t6.5 89v80v78l73 7q35 -3 53.5 -26.5t18.5 -67.5q0 -48 -10 -99.5t-27.5 -101t-39 -93t-44.5 -74.5z" />
    <glyph glyph-name="lcaron" unicode="&#x13e;" horiz-adv-x="530" 
d="M172 0v213v225v549v245v232l165 20v-242.5v-254.5v-549v-225v-213h-165zM497 1088q21 50 35 105t20.5 106t6.5 89v80v78l73 7q35 -3 53.5 -26.5t18.5 -67.5q0 -48 -10 -99.5t-27.5 -101t-39 -93t-44.5 -74.5z" />
    <glyph glyph-name="Ldot" unicode="&#x13f;" horiz-adv-x="1145" 
d="M185 0v229v242v478v246.5v230.5h181v-230.5v-246.5v-450v-242v-229l-68 133h262h201.5h162h152.5v-161h-891zM852 598q-54 0 -87.5 30t-33.5 92q0 61 33.5 91.5t89.5 30.5t89 -31.5t33 -90.5q0 -62 -33 -92t-91 -30z" />
    <glyph glyph-name="ldot" unicode="&#x140;" horiz-adv-x="797" 
d="M172 0v213v225v549v245v232l165 20v-242.5v-254.5v-549v-225v-213h-165zM652 599q-54 0 -87.5 30t-33.5 92q0 61 33.5 91.5t89.5 30.5t89 -31.5t33 -90.5q0 -62 -33 -92t-91 -30z" />
    <glyph glyph-name="Lslash" unicode="&#x141;" horiz-adv-x="1161" 
d="M201 0v229v242v478v246.5v230.5h182v-230.5v-246.5v-450v-242v-229l-69 133h262h201.5h162.5h153v-161h-892zM15 551l-38 127q97 28 186.5 55t169.5 50l98 29q80 24 170 50.5t186 55.5l36 -127q-95 -28 -185 -54.5t-170 -50.5l-98 -29q-79 -24 -168.5 -50.5t-186.5 -55.5
z" />
    <glyph glyph-name="lslash" unicode="&#x142;" horiz-adv-x="603" 
d="M13 547l-33 113q74 22 140 41.5t129 37.5l70 21q62 19 129 38.5t141 40.5l33 -112q-74 -22 -142.5 -42.5t-127.5 -37.5l-70 -21q-63 -18 -129 -37.5t-140 -41.5zM219 0v213v225v549v245v232l165 20v-242.5v-254.5v-549v-225v-213h-165z" />
    <glyph glyph-name="Nacute" unicode="&#x143;" horiz-adv-x="1508" 
d="M185 0v229v242v478v246.5v230.5h163q128 -180 246 -347t233 -329l309 -436h15v635v246.5v230.5h172v-230.5v-246.5v-478v-242v-229h-161q-106 150 -223 315.5t-257 363.5l-311 439h-14v-647v-242v-229h-172zM607 1573l136.5 182t134.5 181l185 2q-55 -62 -108.5 -122.5
t-107 -120.5t-106.5 -119z" />
    <glyph glyph-name="nacute" unicode="&#x144;" horiz-adv-x="1146" 
d="M172 0v213v225v100v225v229l144 10l5 -184h18q32 45 82 91t118 76.5t156 30.5q158 0 231 -91t73 -264v-115v-108v-222.5v-215.5h-165v214.5v216.5v188q0 119 -42.5 180t-153.5 61q-67 0 -122 -27t-99.5 -72.5t-79.5 -100.5v-229v-218.5v-212.5h-165zM439 1154
q68 100 136.5 200t134.5 198l185 4q-55 -68 -109 -135t-107 -133l-106 -132z" />
    <glyph glyph-name="uni0145" unicode="&#x145;" horiz-adv-x="1508" 
d="M185 0v229v242v478v246.5v230.5h163q128 -180 246 -347t233 -329l309 -436h15v635v246.5v230.5h172v-230.5v-246.5v-478v-242v-229h-161q-106 150 -223 315.5t-257 363.5l-311 439h-14v-647v-242v-229h-172zM620 -570q40 57 50 111t10 134v66v66l83 6q52 -2 78 -31
t26 -74q0 -52 -20.5 -103.5t-58 -96t-88.5 -75.5z" />
    <glyph glyph-name="uni0146" unicode="&#x146;" horiz-adv-x="1146" 
d="M172 0v213v225v100v225v229l144 10l5 -184h18q32 45 82 91t118 76.5t156 30.5q158 0 231 -91t73 -264v-115v-108v-222.5v-215.5h-165v214.5v216.5v188q0 119 -42.5 180t-153.5 61q-67 0 -122 -27t-99.5 -72.5t-79.5 -100.5v-229v-218.5v-212.5h-165zM452 -570
q40 57 50 111t10 134v66v66l83 6q52 -2 78 -31t26 -74q0 -52 -20.5 -103.5t-58 -96t-88.5 -75.5z" />
    <glyph glyph-name="Ncaron" unicode="&#x147;" horiz-adv-x="1508" 
d="M185 0v229v242v478v246.5v230.5h163q128 -180 246 -347t233 -329l309 -436h15v635v246.5v230.5h172v-230.5v-246.5v-478v-242v-229h-161q-106 150 -223 315.5t-257 363.5l-311 439h-14v-647v-242v-229h-172zM665 1572q-68 92 -136 182.5t-136 180.5l134 2
q63 -74 125.5 -147t127.5 -149h-48q64 75 126 147.5t125 144.5h134q-67 -89 -134.5 -179l-136.5 -182h-181z" />
    <glyph glyph-name="ncaron" unicode="&#x148;" horiz-adv-x="1146" 
d="M172 0v213v225v100v225v229l144 10l5 -184h18q32 45 82 91t118 76.5t156 30.5q158 0 231 -91t73 -264v-115v-108v-222.5v-215.5h-165v214.5v216.5v188q0 119 -42.5 180t-153.5 61q-67 0 -122 -27t-99.5 -72.5t-79.5 -100.5v-229v-218.5v-212.5h-165zM497 1143
q-68 100 -136 199.5t-136 198.5l134 3q63 -81 125 -161t125 -162h-44q63 81 125 160t125 159h134q-67 -98 -135 -197.5t-136 -199.5h-181z" />
    <glyph glyph-name="Eng" unicode="&#x14a;" horiz-adv-x="1508" 
d="M959 -384q58 65 99 131t62.5 143t21.5 177v40l67 -107h-47q-106 151 -222.5 316t-257.5 363l-311 439h-14v-647v-242v-229h-172v229v242v478v246.5v230.5h163q129 -181 246.5 -346.5t232.5 -329.5l309 -436h15v635v246.5v230.5h172v-230.5v-246.5v-424v-242v-230
q0 -81 -14.5 -147t-39.5 -119t-57 -94.5t-68 -76.5h-185z" />
    <glyph glyph-name="eng" unicode="&#x14b;" horiz-adv-x="1146" 
d="M670 -390q58 63 94 128.5t53 143t17 179.5v370v188q0 119 -42.5 180t-153.5 61q-67 0 -122 -27t-99.5 -72.5t-79.5 -100.5v-229v-218.5v-212.5h-165v213v225v100v225v229l144 10l5 -184h18q32 45 82 91t118 76.5t156 30.5q158 0 231 -91t73 -264v-63.5v-59.5v-203v-158
v-139q0 -75 -10.5 -138t-30.5 -115t-48.5 -94t-63.5 -75z" />
    <glyph glyph-name="Omacron" unicode="&#x14c;" horiz-adv-x="1634" 
d="M824 -22q-181 0 -317 58.5t-226.5 161t-135.5 235.5t-45 281q0 208 84.5 375t244.5 265t389 98q174 0 307.5 -57t224.5 -158t137 -235t46 -287q0 -211 -84 -377.5t-243 -263t-382 -96.5zM819 134q137 0 236 47.5t163.5 129.5t95.5 186.5t31 217.5q0 122 -33.5 227.5
t-100 185t-164.5 124t-228 44.5q-134 0 -233.5 -47t-165.5 -128.5t-99 -186t-33 -219.5q0 -116 32 -220t97.5 -185.5t165.5 -128.5t236 -47zM502 1671v129h150h164h164.5h149.5v-129h-149.5h-164.5h-164h-150z" />
    <glyph glyph-name="omacron" unicode="&#x14d;" horiz-adv-x="1195" 
d="M601 -22q-123 0 -216.5 42.5t-156.5 115.5t-95.5 167.5t-32.5 198.5q0 149 60.5 264.5t172 182.5t265.5 67q119 0 211 -39t156 -109t97 -163.5t33 -202.5q0 -147 -60 -266t-170.5 -188.5t-263.5 -69.5zM601 122q109 0 181 54t108 141t36 185q0 112 -40 195t-113 129
t-173 46q-108 0 -182 -49t-111.5 -133t-37.5 -188q0 -98 36.5 -185t110.5 -141t185 -54zM283 1252v129h150h164h164.5h149.5v-129h-149.5h-164.5h-164h-150z" />
    <glyph glyph-name="Obreve" unicode="&#x14e;" horiz-adv-x="1634" 
d="M824 -22q-181 0 -317 58.5t-226.5 161t-135.5 235.5t-45 281q0 208 84.5 375t244.5 265t389 98q174 0 307.5 -57t224.5 -158t137 -235t46 -287q0 -211 -84 -377.5t-243 -263t-382 -96.5zM819 134q137 0 236 47.5t163.5 129.5t95.5 186.5t31 217.5q0 122 -33.5 227.5
t-100 185t-164.5 124t-228 44.5q-134 0 -233.5 -47t-165.5 -128.5t-99 -186t-33 -219.5q0 -116 32 -220t97.5 -185.5t165.5 -128.5t236 -47zM813 1563q-157 0 -239.5 95t-82.5 279l122 5q0 -133 51.5 -194.5t148.5 -61.5q98 0 149.5 60.5t51.5 190.5h122
q0 -123 -36.5 -206.5t-108.5 -125.5t-178 -42z" />
    <glyph glyph-name="obreve" unicode="&#x14f;" horiz-adv-x="1195" 
d="M601 -22q-123 0 -216.5 42.5t-156.5 115.5t-95.5 167.5t-32.5 198.5q0 149 60.5 264.5t172 182.5t265.5 67q119 0 211 -39t156 -109t97 -163.5t33 -202.5q0 -147 -60 -266t-170.5 -188.5t-263.5 -69.5zM601 122q109 0 181 54t108 141t36 185q0 112 -40 195t-113 129
t-173 46q-108 0 -182 -49t-111.5 -133t-37.5 -188q0 -98 36.5 -185t110.5 -141t185 -54zM594 1144q-157 0 -239.5 94.5t-82.5 279.5l122 5q0 -133 51.5 -194.5t148.5 -61.5q98 0 149.5 60.5t51.5 190.5h122q0 -123 -36.5 -206.5t-108.5 -125.5t-178 -42z" />
    <glyph glyph-name="Ohungarumlaut" unicode="&#x150;" horiz-adv-x="1634" 
d="M824 -22q-181 0 -317 58.5t-226.5 161t-135.5 235.5t-45 281q0 208 84.5 375t244.5 265t389 98q174 0 307.5 -57t224.5 -158t137 -235t46 -287q0 -211 -84 -377.5t-243 -263t-382 -96.5zM819 134q137 0 236 47.5t163.5 129.5t95.5 186.5t31 217.5q0 122 -33.5 227.5
t-100 185t-164.5 124t-228 44.5q-134 0 -233.5 -47t-165.5 -128.5t-99 -186t-33 -219.5q0 -116 32 -220t97.5 -185.5t165.5 -128.5t236 -47zM891 1573q67 90 134 181l134 182l177 2q-53 -62 -106 -122.5t-105.5 -120.5t-104.5 -119zM527 1573q57 92 113 182t112 181l169 2
q-46 -62 -91.5 -122.5t-90.5 -120.5t-90 -119z" />
    <glyph glyph-name="ohungarumlaut" unicode="&#x151;" horiz-adv-x="1195" 
d="M601 -22q-123 0 -216.5 42.5t-156.5 115.5t-95.5 167.5t-32.5 198.5q0 149 60.5 264.5t172 182.5t265.5 67q119 0 211 -39t156 -109t97 -163.5t33 -202.5q0 -147 -60 -266t-170.5 -188.5t-263.5 -69.5zM601 122q109 0 181 54t108 141t36 185q0 112 -40 195t-113 129
t-173 46q-108 0 -182 -49t-111.5 -133t-37.5 -188q0 -98 36.5 -185t110.5 -141t185 -54zM672 1154q67 100 134.5 200t133.5 198l177 4q-53 -68 -106 -135t-105.5 -133t-104.5 -132zM308 1154q58 101 113.5 200t111.5 198l169 4q-46 -68 -91.5 -135t-90.5 -133l-90 -132z" />
    <glyph glyph-name="OE" unicode="&#x152;" horiz-adv-x="2170" 
d="M831 -22q-172 0 -308 55t-230 154.5t-143.5 234t-49.5 294.5q0 215 87 381.5t245.5 260.5t371.5 94q96 0 183 -17.5t159 -44.5t122 -55l-17 -174q-117 70 -224.5 100.5t-207.5 30.5q-152 0 -272 -70t-189.5 -199.5t-69.5 -307.5q0 -119 36 -224.5t107 -185.5t175 -125.5
t241 -45.5q104 0 204.5 27.5t191.5 93.5l16 -175q-58 -36 -128.5 -58.5t-147 -33t-152.5 -10.5zM1168 0v229v242v479v245v231h886v-155h-214.5h-269.5h-325l101 129v-231.5v-244.5v-426v-241.5v-229.5l-91 128h330h247.5h224.5v-155h-889zM1306 647v151h277h238.5h192.5
v-151h-197.5h-234.5h-276z" />
    <glyph glyph-name="oe" unicode="&#x153;" horiz-adv-x="1862" 
d="M584 -22q-123 0 -216 42.5t-156 115.5t-95 167.5t-32 198.5q0 149 60 264.5t171 182t265 66.5q117 0 207 -39t152.5 -108.5t94.5 -163t32 -202.5q0 -147 -58 -266t-166.5 -188.5t-258.5 -69.5zM586 121q109 0 181.5 54.5t108 141.5t35.5 185q0 112 -39.5 195.5
t-112.5 129t-173 45.5q-108 0 -182 -49.5t-112 -133.5t-38 -187q0 -98 37 -185t110.5 -141.5t184.5 -54.5zM1441 -22q-178 0 -293 68t-170.5 186t-55.5 270q0 150 54.5 266t157.5 181.5t246 65.5q126 0 216.5 -49t139.5 -143.5t49 -233.5q0 -37 -1.5 -66.5t-6.5 -59.5
l-145 73q2 16 2.5 30.5t0.5 28.5q0 141 -70 214.5t-183 73.5q-91 0 -156.5 -46.5t-101.5 -128.5t-36 -187v-23q0 -116 40.5 -200t121.5 -129.5t207 -45.5q47 0 99.5 7.5t104 23.5t98.5 42l7 -149q-38 -21 -88.5 -36.5t-110 -24t-126.5 -8.5zM990 463v118l686 6l101 -34v-90
h-787z" />
    <glyph glyph-name="Racute" unicode="&#x154;" horiz-adv-x="1340" 
d="M185 0v229v242v479v245v231h131.5h163h187.5q163 0 271.5 -38.5t163 -123.5t54.5 -224q0 -117 -45.5 -214t-151.5 -155.5t-287 -59.5l57 79l225 -281q53 -65 112 -139t115 -144.5t100 -125.5h-212q-71 90 -136.5 174t-129.5 164l-256 330l111 -89h-327v149h271
q125 0 206 29t121 93.5t40 171.5q0 89 -28.5 140.5t-75 75.5t-100.5 31t-104 7h-420l121 124v-234v-242v-453v-242v-229h-177zM486 1573l136.5 182t134.5 181l185 2q-55 -62 -108.5 -122.5t-107 -120.5t-106.5 -119z" />
    <glyph glyph-name="racute" unicode="&#x155;" horiz-adv-x="799" 
d="M172 0v213v225v100v225v229l144 10l5 -202h17q41 91 94.5 137.5t108.5 62.5t101 16q28 0 56 -4t53 -13l-15 -166q-33 6 -59.5 10t-61.5 4q-29 0 -65.5 -8.5t-75 -35t-74.5 -79t-63 -139.5v-154v-218.5v-212.5h-165zM319 1154q68 100 136.5 200t134.5 198l185 4
q-55 -68 -109 -135t-107 -133l-106 -132z" />
    <glyph glyph-name="uni0156" unicode="&#x156;" horiz-adv-x="1340" 
d="M185 0v229v242v479v245v231h131.5h163h187.5q163 0 271.5 -38.5t163 -123.5t54.5 -224q0 -117 -45.5 -214t-151.5 -155.5t-287 -59.5l57 79l225 -281q53 -65 112 -139t115 -144.5t100 -125.5h-212q-71 90 -136.5 174t-129.5 164l-256 330l111 -89h-327v149h271
q125 0 206 29t121 93.5t40 171.5q0 89 -28.5 140.5t-75 75.5t-100.5 31t-104 7h-420l121 124v-234v-242v-453v-242v-229h-177zM539 -570q40 57 50 111t10 134v66v66l83 6q52 -2 78 -31t26 -74q0 -52 -20.5 -103.5t-58 -96t-88.5 -75.5z" />
    <glyph glyph-name="uni0157" unicode="&#x157;" horiz-adv-x="799" 
d="M172 0v213v225v100v225v229l144 10l5 -202h17q41 91 94.5 137.5t108.5 62.5t101 16q28 0 56 -4t53 -13l-15 -166q-33 6 -59.5 10t-61.5 4q-29 0 -65.5 -8.5t-75 -35t-74.5 -79t-63 -139.5v-154v-218.5v-212.5h-165zM119 -570q40 57 50 111t10 134v66v66l83 6
q52 -2 78 -31t26 -74q0 -52 -20.5 -103.5t-58 -96t-88.5 -75.5z" />
    <glyph glyph-name="Rcaron" unicode="&#x158;" horiz-adv-x="1340" 
d="M185 0v229v242v479v245v231h131.5h163h187.5q163 0 271.5 -38.5t163 -123.5t54.5 -224q0 -117 -45.5 -214t-151.5 -155.5t-287 -59.5l57 79l225 -281q53 -65 112 -139t115 -144.5t100 -125.5h-212q-71 90 -136.5 174t-129.5 164l-256 330l111 -89h-327v149h271
q125 0 206 29t121 93.5t40 171.5q0 89 -28.5 140.5t-75 75.5t-100.5 31t-104 7h-420l121 124v-234v-242v-453v-242v-229h-177zM544 1572q-68 92 -136 182.5t-136 180.5l134 2q63 -74 125.5 -147t127.5 -149h-48q64 75 126 147.5t125 144.5h134q-67 -89 -134.5 -179
l-136.5 -182h-181z" />
    <glyph glyph-name="rcaron" unicode="&#x159;" horiz-adv-x="799" 
d="M172 0v213v225v100v225v229l144 10l5 -202h17q41 91 94.5 137.5t108.5 62.5t101 16q28 0 56 -4t53 -13l-15 -166q-33 6 -59.5 10t-61.5 4q-29 0 -65.5 -8.5t-75 -35t-74.5 -79t-63 -139.5v-154v-218.5v-212.5h-165zM377 1143q-68 100 -136 199.5t-136 198.5l134 3
q63 -81 125 -161t125 -162h-44q63 81 125 160t125 159h134q-67 -98 -135 -197.5t-136 -199.5h-181z" />
    <glyph glyph-name="Sacute" unicode="&#x15a;" horiz-adv-x="1172" 
d="M599 -22q-89 0 -179.5 16.5t-167 41t-123.5 49.5l17 171q67 -37 139.5 -64.5t148 -42.5t154.5 -15q89 0 160.5 24.5t113 78t41.5 140.5q0 76 -43 125.5t-124.5 85.5t-197.5 72q-136 43 -232 93t-146.5 123.5t-50.5 187.5q0 111 52.5 199t156.5 138.5t258 50.5
q64 0 126.5 -9t119.5 -24.5t104 -34.5t80 -39l-18 -172q-61 41 -129 68.5t-135 41t-124 13.5q-81 0 -149 -24t-109.5 -73.5t-41.5 -127.5q0 -68 35 -113t110.5 -80.5t194.5 -73.5q172 -54 270.5 -109.5t140 -128.5t41.5 -179q0 -117 -51.5 -209t-160.5 -146t-281 -54z
M446 1573l136.5 182t134.5 181l185 2q-55 -62 -108.5 -122.5t-107 -120.5t-106.5 -119z" />
    <glyph glyph-name="sacute" unicode="&#x15b;" horiz-adv-x="910" 
d="M452 -22q-62 0 -124.5 10t-117.5 26.5t-96 37.5l13 155q46 -26 98.5 -45.5t109 -30t113.5 -10.5q55 0 101.5 12.5t74 46t27.5 97.5q0 42 -24 69t-80.5 49t-152.5 49q-79 22 -141 54t-97.5 86t-35.5 141q0 135 88.5 212.5t238.5 77.5q62 0 120 -10.5t107 -27.5t85 -36
l-14 -155q-48 30 -99 49.5t-98 28t-83 8.5q-41 0 -81.5 -11.5t-67.5 -42t-27 -87.5q0 -41 19 -69t66 -50t130 -46q99 -29 169.5 -60.5t108.5 -82.5t38 -141q0 -87 -38 -155.5t-119 -108.5t-211 -40zM307 1154q68 100 136.5 200t134.5 198l185 4q-55 -68 -109 -135t-107 -133
l-106 -132z" />
    <glyph glyph-name="Scircumflex" unicode="&#x15c;" horiz-adv-x="1172" 
d="M599 -22q-89 0 -179.5 16.5t-167 41t-123.5 49.5l17 171q67 -37 139.5 -64.5t148 -42.5t154.5 -15q89 0 160.5 24.5t113 78t41.5 140.5q0 76 -43 125.5t-124.5 85.5t-197.5 72q-136 43 -232 93t-146.5 123.5t-50.5 187.5q0 111 52.5 199t156.5 138.5t258 50.5
q64 0 126.5 -9t119.5 -24.5t104 -34.5t80 -39l-18 -172q-61 41 -129 68.5t-135 41t-124 13.5q-81 0 -149 -24t-109.5 -73.5t-41.5 -127.5q0 -68 35 -113t110.5 -80.5t194.5 -73.5q172 -54 270.5 -109.5t140 -128.5t41.5 -179q0 -117 -51.5 -209t-160.5 -146t-281 -54z
M820 1571q-63 75 -125.5 147.5t-127.5 148.5h48q-64 -75 -125.5 -147t-125.5 -145h-134q67 89 135 179.5t136 181.5h181q68 -91 136 -181.5t136 -180.5z" />
    <glyph glyph-name="scircumflex" unicode="&#x15d;" horiz-adv-x="910" 
d="M452 -22q-62 0 -124.5 10t-117.5 26.5t-96 37.5l13 155q46 -26 98.5 -45.5t109 -30t113.5 -10.5q55 0 101.5 12.5t74 46t27.5 97.5q0 42 -24 69t-80.5 49t-152.5 49q-79 22 -141 54t-97.5 86t-35.5 141q0 135 88.5 212.5t238.5 77.5q62 0 120 -10.5t107 -27.5t85 -36
l-14 -155q-48 30 -99 49.5t-98 28t-83 8.5q-41 0 -81.5 -11.5t-67.5 -42t-27 -87.5q0 -41 19 -69t66 -50t130 -46q99 -29 169.5 -60.5t108.5 -82.5t38 -141q0 -87 -38 -155.5t-119 -108.5t-211 -40zM681 1152q-62 82 -124 161.5t-126 161.5h44q-63 -82 -124.5 -160.5
t-125.5 -158.5h-134q67 98 135 197.5t136 198.5h181q68 -99 136 -198.5t136 -199.5z" />
    <glyph glyph-name="Scedilla" unicode="&#x15e;" horiz-adv-x="1172" 
d="M599 -22q-89 0 -179.5 16.5t-167 41t-123.5 49.5l17 171q67 -37 139.5 -64.5t148 -42.5t154.5 -15q89 0 160.5 24.5t113 78t41.5 140.5q0 76 -43 125.5t-124.5 85.5t-197.5 72q-136 43 -232 93t-146.5 123.5t-50.5 187.5q0 111 52.5 199t156.5 138.5t258 50.5
q64 0 126.5 -9t119.5 -24.5t104 -34.5t80 -39l-18 -172q-61 41 -129 68.5t-135 41t-124 13.5q-81 0 -149 -24t-109.5 -73.5t-41.5 -127.5q0 -68 35 -113t110.5 -80.5t194.5 -73.5q172 -54 270.5 -109.5t140 -128.5t41.5 -179q0 -117 -51.5 -209t-160.5 -146t-281 -54z
M546 -430q-21 0 -44 2t-43.5 5.5t-35.5 8.5v106q14 -5 41.5 -9.5t60.5 -4.5q70 0 98 23t28 57q0 20 -14 39t-51 34t-107 23l78 183h96v-37l-50 -115q72 -11 112 -34t56 -53.5t16 -63.5q0 -45 -24 -82.5t-77 -59.5t-140 -22z" />
    <glyph glyph-name="scedilla" unicode="&#x15f;" horiz-adv-x="910" 
d="M452 -22q-62 0 -124.5 10t-117.5 26.5t-96 37.5l13 155q46 -26 98.5 -45.5t109 -30t113.5 -10.5q55 0 101.5 12.5t74 46t27.5 97.5q0 42 -24 69t-80.5 49t-152.5 49q-79 22 -141 54t-97.5 86t-35.5 141q0 135 88.5 212.5t238.5 77.5q62 0 120 -10.5t107 -27.5t85 -36
l-14 -155q-48 30 -99 49.5t-98 28t-83 8.5q-41 0 -81.5 -11.5t-67.5 -42t-27 -87.5q0 -41 19 -69t66 -50t130 -46q99 -29 169.5 -60.5t108.5 -82.5t38 -141q0 -87 -38 -155.5t-119 -108.5t-211 -40zM407 -430q-21 0 -44 2t-43.5 5.5t-35.5 8.5v106q14 -5 41.5 -9.5
t60.5 -4.5q70 0 98 23t28 57q0 20 -14 39t-51 34t-107 23l78 183h96v-37l-50 -115q72 -11 112 -34t56 -53.5t16 -63.5q0 -45 -24 -82.5t-77 -59.5t-140 -22z" />
    <glyph glyph-name="Scaron" unicode="&#x160;" horiz-adv-x="1172" 
d="M599 -22q-89 0 -179.5 16.5t-167 41t-123.5 49.5l17 171q67 -37 139.5 -64.5t148 -42.5t154.5 -15q89 0 160.5 24.5t113 78t41.5 140.5q0 76 -43 125.5t-124.5 85.5t-197.5 72q-136 43 -232 93t-146.5 123.5t-50.5 187.5q0 111 52.5 199t156.5 138.5t258 50.5
q64 0 126.5 -9t119.5 -24.5t104 -34.5t80 -39l-18 -172q-61 41 -129 68.5t-135 41t-124 13.5q-81 0 -149 -24t-109.5 -73.5t-41.5 -127.5q0 -68 35 -113t110.5 -80.5t194.5 -73.5q172 -54 270.5 -109.5t140 -128.5t41.5 -179q0 -117 -51.5 -209t-160.5 -146t-281 -54z
M504 1572q-68 92 -136 182.5t-136 180.5l134 2q63 -74 125.5 -147t127.5 -149h-48q64 75 126 147.5t125 144.5h134q-67 -89 -134.5 -179l-136.5 -182h-181z" />
    <glyph glyph-name="scaron" unicode="&#x161;" horiz-adv-x="910" 
d="M452 -22q-62 0 -124.5 10t-117.5 26.5t-96 37.5l13 155q46 -26 98.5 -45.5t109 -30t113.5 -10.5q55 0 101.5 12.5t74 46t27.5 97.5q0 42 -24 69t-80.5 49t-152.5 49q-79 22 -141 54t-97.5 86t-35.5 141q0 135 88.5 212.5t238.5 77.5q62 0 120 -10.5t107 -27.5t85 -36
l-14 -155q-48 30 -99 49.5t-98 28t-83 8.5q-41 0 -81.5 -11.5t-67.5 -42t-27 -87.5q0 -41 19 -69t66 -50t130 -46q99 -29 169.5 -60.5t108.5 -82.5t38 -141q0 -87 -38 -155.5t-119 -108.5t-211 -40zM365 1143q-68 100 -136 199.5t-136 198.5l134 3q63 -81 125 -161t125 -162
h-44q63 81 125 160t125 159h134q-67 -98 -135 -197.5t-136 -199.5h-181z" />
    <glyph glyph-name="uni0162" unicode="&#x162;" horiz-adv-x="1282" 
d="M551 0v229v242v452v245.5v231.5l72 -135h-169h-214.5h-177.5v161h1158v-161h-177h-215h-169l73 135v-231.5v-245.5v-452v-242v-229h-181zM593 -430q-21 0 -44 2t-43.5 5.5t-35.5 8.5v106q14 -5 41.5 -9.5t60.5 -4.5q70 0 98 23t28 57q0 20 -14 39t-51 34t-107 23l78 183
h96v-37l-50 -115q72 -11 112 -34t56 -53.5t16 -63.5q0 -45 -24 -82.5t-77 -59.5t-140 -22z" />
    <glyph glyph-name="uni0163" unicode="&#x163;" horiz-adv-x="820" 
d="M548 -22q-99 0 -168 34.5t-104.5 105t-35.5 180.5v172.5v168v159v146.5v189v181l163 36v-137v-127v-142v-607q0 -107 45.5 -161t139.5 -54q37 0 81 12.5t78 39.5l14 -145q-20 -15 -54 -26.5t-75 -18t-84 -6.5zM49 861v131h702v-131h-201.5h-197.5h-68h-235zM423 -430
q-21 0 -44 2t-43.5 5.5t-35.5 8.5v106q14 -5 41.5 -9.5t60.5 -4.5q70 0 98 23t28 57q0 20 -14 39t-51 34t-107 23l78 183h96v-37l-50 -115q72 -11 112 -34t56 -53.5t16 -63.5q0 -45 -24 -82.5t-77 -59.5t-140 -22z" />
    <glyph glyph-name="Tcaron" unicode="&#x164;" horiz-adv-x="1282" 
d="M551 0v229v242v452v245.5v231.5l72 -135h-169h-214.5h-177.5v161h1158v-161h-177h-215h-169l73 135v-231.5v-245.5v-452v-242v-229h-181zM552 1572q-68 92 -136 182.5t-136 180.5l134 2q63 -74 125.5 -147t127.5 -149h-48q64 75 126 147.5t125 144.5h134
q-67 -89 -134.5 -179l-136.5 -182h-181z" />
    <glyph glyph-name="tcaron" unicode="&#x165;" horiz-adv-x="824" 
d="M548 -22q-99 0 -168 34.5t-104.5 105t-35.5 180.5v172.5v168v159v146.5v189v181l163 36v-137v-127v-142v-607q0 -107 45.5 -161t139.5 -54q37 0 81 12.5t78 39.5l14 -145q-20 -15 -54 -26.5t-75 -18t-84 -6.5zM49 861v131h702v-131h-201.5h-197.5h-68h-235zM544 1088
q21 50 35 105t20.5 106t6.5 89v80v78l73 7q35 -3 53.5 -26.5t18.5 -67.5q0 -48 -10 -99.5t-27.5 -101t-39 -93t-44.5 -74.5z" />
    <glyph glyph-name="Tbar" unicode="&#x166;" horiz-adv-x="1282" 
d="M245 600v132h184h165h95h167h182v-132h-182h-167h-95h-165h-184zM551 0v229v242v452v245.5v231.5l72 -135h-169h-214.5h-177.5v161h1158v-161h-177h-215h-169l73 135v-231.5v-245.5v-452v-242v-229h-181z" />
    <glyph glyph-name="tbar" unicode="&#x167;" horiz-adv-x="820" 
d="M70 496v112h152h133h83h133.5h151.5v-112h-151.5h-133.5h-83h-133h-152zM548 -22q-99 0 -168 34.5t-104.5 105t-35.5 180.5v172.5v168v159v146.5v189v181l163 36v-137v-127v-142v-617q0 -108 45.5 -162t139.5 -54q37 0 81 12.5t78 39.5l14 -134q-20 -15 -54 -26.5
t-75 -18t-84 -6.5zM49 861v131h702v-131h-201.5h-197.5h-68h-235z" />
    <glyph glyph-name="Utilde" unicode="&#x168;" horiz-adv-x="1461" 
d="M731 -22q-199 0 -323.5 68.5t-183 193t-58.5 290.5v108.5v147.5v163v246.5v230.5h180v-230.5v-246.5v-401q0 -129 38 -222t122.5 -142.5t224.5 -49.5q141 0 224.5 49.5t120.5 142.5t37 224v399v246.5v230.5h180v-230.5v-246.5v-163.5v-148.5v-107q0 -166 -59 -290.5
t-183 -193t-320 -68.5zM901 1568q-60 0 -103.5 26t-78.5 60.5t-66.5 60.5t-67.5 26q-58 0 -81 -37t-26 -105h-101q0 130 51.5 199.5t139.5 69.5q59 0 102 -26t77 -60t66 -60t69 -26q57 0 79.5 37t24.5 105h101q0 -131 -50 -200.5t-136 -69.5z" />
    <glyph glyph-name="utilde" unicode="&#x169;" horiz-adv-x="1117" 
d="M451 -22q-158 0 -231 91t-73 264v114.5v95.5v163.5v143.5v142l165 7v-216v-223v-188q0 -118 43 -179.5t153 -61.5q64 0 117 27.5t97 72.5t80 100v229v220v212h165v-214v-235v-105v-225v-213h-144l-6 175h-18q-31 -45 -80.5 -90.5t-116.5 -76t-151 -30.5zM727 1149
q-60 0 -103.5 26t-78.5 60.5t-66.5 60t-67.5 25.5q-58 0 -81 -36.5t-26 -104.5h-101q0 130 51.5 199.5t139.5 69.5q59 0 102 -26t77 -60t66 -60t69 -26q57 0 79.5 37t24.5 105h101q0 -131 -50 -200.5t-136 -69.5z" />
    <glyph glyph-name="Umacron" unicode="&#x16a;" horiz-adv-x="1461" 
d="M731 -22q-199 0 -323.5 68.5t-183 193t-58.5 290.5v108.5v147.5v163v246.5v230.5h180v-230.5v-246.5v-401q0 -129 38 -222t122.5 -142.5t224.5 -49.5q141 0 224.5 49.5t120.5 142.5t37 224v399v246.5v230.5h180v-230.5v-246.5v-163.5v-148.5v-107q0 -166 -59 -290.5
t-183 -193t-320 -68.5zM418 1671v129h150h164h164.5h149.5v-129h-149.5h-164.5h-164h-150z" />
    <glyph glyph-name="umacron" unicode="&#x16b;" horiz-adv-x="1117" 
d="M451 -22q-158 0 -231 91t-73 264v114.5v95.5v163.5v143.5v142l165 7v-216v-223v-188q0 -118 43 -179.5t153 -61.5q64 0 117 27.5t97 72.5t80 100v229v220v212h165v-214v-235v-105v-225v-213h-144l-6 175h-18q-31 -45 -80.5 -90.5t-116.5 -76t-151 -30.5zM244 1252v129
h150h164h164.5h149.5v-129h-149.5h-164.5h-164h-150z" />
    <glyph glyph-name="Ubreve" unicode="&#x16c;" horiz-adv-x="1461" 
d="M731 -22q-199 0 -323.5 68.5t-183 193t-58.5 290.5v108.5v147.5v163v246.5v230.5h180v-230.5v-246.5v-401q0 -129 38 -222t122.5 -142.5t224.5 -49.5q141 0 224.5 49.5t120.5 142.5t37 224v399v246.5v230.5h180v-230.5v-246.5v-163.5v-148.5v-107q0 -166 -59 -290.5
t-183 -193t-320 -68.5zM729 1563q-157 0 -239.5 95t-82.5 279l122 5q0 -133 51.5 -194.5t148.5 -61.5q98 0 149.5 60.5t51.5 190.5h122q0 -123 -36.5 -206.5t-108.5 -125.5t-178 -42z" />
    <glyph glyph-name="ubreve" unicode="&#x16d;" horiz-adv-x="1117" 
d="M451 -22q-158 0 -231 91t-73 264v114.5v95.5v163.5v143.5v142l165 7v-216v-223v-188q0 -118 43 -179.5t153 -61.5q64 0 117 27.5t97 72.5t80 100v229v220v212h165v-214v-235v-105v-225v-213h-144l-6 175h-18q-31 -45 -80.5 -90.5t-116.5 -76t-151 -30.5zM555 1144
q-157 0 -239.5 94.5t-82.5 279.5l122 5q0 -133 51.5 -194.5t148.5 -61.5q98 0 149.5 60.5t51.5 190.5h122q0 -123 -36.5 -206.5t-108.5 -125.5t-178 -42z" />
    <glyph glyph-name="Uring" unicode="&#x16e;" horiz-adv-x="1461" 
d="M731 -22q-199 0 -323.5 68.5t-183 193t-58.5 290.5v108.5v147.5v163v246.5v230.5h180v-230.5v-246.5v-401q0 -129 38 -222t122.5 -142.5t224.5 -49.5q141 0 224.5 49.5t120.5 142.5t37 224v399v246.5v230.5h180v-230.5v-246.5v-163.5v-148.5v-107q0 -166 -59 -290.5
t-183 -193t-320 -68.5zM730 1559q-67 0 -118 24.5t-80 71.5t-29 114q0 94 63.5 150.5t165.5 56.5q67 0 118.5 -26t80 -73t28.5 -108q0 -68 -29 -114.5t-80.5 -71t-119.5 -24.5zM730 1647q57 0 93.5 30.5t36.5 90.5q0 55 -36 88.5t-92 33.5q-57 0 -93.5 -33t-36.5 -89
q0 -60 36.5 -90.5t91.5 -30.5z" />
    <glyph glyph-name="uring" unicode="&#x16f;" horiz-adv-x="1117" 
d="M451 -22q-158 0 -231 91t-73 264v114.5v95.5v163.5v143.5v142l165 7v-216v-223v-188q0 -118 43 -179.5t153 -61.5q64 0 117 27.5t97 72.5t80 100v229v220v212h165v-214v-235v-105v-225v-213h-144l-6 175h-18q-31 -45 -80.5 -90.5t-116.5 -76t-151 -30.5zM556 1125
q-67 0 -118 24.5t-80 71.5t-29 114q0 94 63.5 150.5t165.5 56.5q67 0 118.5 -26t80 -73t28.5 -108q0 -68 -29 -114.5t-80.5 -71t-119.5 -24.5zM556 1213q57 0 93.5 30.5t36.5 90.5q0 55 -36 88.5t-92 33.5q-57 0 -93.5 -33t-36.5 -89q0 -60 36.5 -90.5t91.5 -30.5z" />
    <glyph glyph-name="Uhungarumlaut" unicode="&#x170;" horiz-adv-x="1461" 
d="M731 -22q-199 0 -323.5 68.5t-183 193t-58.5 290.5v108.5v147.5v163v246.5v230.5h180v-230.5v-246.5v-401q0 -129 38 -222t122.5 -142.5t224.5 -49.5q141 0 224.5 49.5t120.5 142.5t37 224v399v246.5v230.5h180v-230.5v-246.5v-163.5v-148.5v-107q0 -166 -59 -290.5
t-183 -193t-320 -68.5zM807 1573q67 90 134 181l134 182l177 2q-53 -62 -106 -122.5t-105.5 -120.5t-104.5 -119zM443 1573q57 92 113 182t112 181l169 2q-46 -62 -91.5 -122.5t-90.5 -120.5t-90 -119z" />
    <glyph glyph-name="uhungarumlaut" unicode="&#x171;" horiz-adv-x="1117" 
d="M451 -22q-158 0 -231 91t-73 264v114.5v95.5v163.5v143.5v142l165 7v-216v-223v-188q0 -118 43 -179.5t153 -61.5q64 0 117 27.5t97 72.5t80 100v229v220v212h165v-214v-235v-105v-225v-213h-144l-6 175h-18q-31 -45 -80.5 -90.5t-116.5 -76t-151 -30.5zM633 1154
q67 100 134.5 200t133.5 198l177 4q-53 -68 -106 -135t-105.5 -133t-104.5 -132zM269 1154q58 101 113.5 200t111.5 198l169 4q-46 -68 -91.5 -135t-90.5 -133l-90 -132z" />
    <glyph glyph-name="Uogonek" unicode="&#x172;" horiz-adv-x="1461" 
d="M731 -22q-199 0 -323.5 68.5t-183 193t-58.5 290.5v108.5v147.5v163v246.5v230.5h180v-230.5v-246.5v-401q0 -129 38 -222t122.5 -142.5t224.5 -49.5q141 0 224.5 49.5t120.5 142.5t37 224v399v246.5v230.5h180v-230.5v-246.5v-163.5v-148.5v-107q0 -166 -59 -290.5
t-183 -193t-320 -68.5zM811 -416q-72 0 -120.5 20.5t-73.5 57t-25 85.5q0 48 23 93t68.5 86.5t111.5 80.5v36l87 7l38 -50q-81 -41 -138.5 -98.5t-57.5 -117.5q0 -44 29.5 -65.5t78.5 -21.5q34 0 58 5t38 10v-111q-22 -7 -53.5 -12t-63.5 -5z" />
    <glyph glyph-name="uogonek" unicode="&#x173;" horiz-adv-x="1117" 
d="M451 -22q-158 0 -231 91t-73 264v114.5v95.5v163.5v143.5v142l165 7v-216v-223v-188q0 -118 43 -179.5t153 -61.5q64 0 117 27.5t97 72.5t80 100v229v220v212h165v-214v-235v-105v-225v-213h-144l-6 175h-18q-31 -45 -80.5 -90.5t-116.5 -76t-151 -30.5zM858 -416
q-72 0 -120.5 20.5t-73.5 57t-25 85.5q0 48 23 93t68.5 86.5t111.5 80.5v36l87 7l38 -50q-81 -41 -138.5 -98.5t-57.5 -117.5q0 -44 29.5 -65.5t78.5 -21.5q34 0 58 5t38 10v-111q-22 -7 -53.5 -12t-63.5 -5z" />
    <glyph glyph-name="Wcircumflex" unicode="&#x174;" horiz-adv-x="2040" 
d="M465 0q-30 106 -65 227t-65 224l-128 446q-34 119 -75 261.5t-77 267.5h200q42 -153 87 -322t86 -322l153 -568h17l149 575q26 99 54.5 208.5l57 219t54.5 209.5h210q40 -153 84 -318.5t85 -320.5l152 -573h17l155 576q40 149 85 318t85 318h201q-37 -127 -77.5 -267
t-75.5 -258l-130 -450q-31 -107 -65.5 -227.5t-65.5 -223.5h-232q-40 147 -84.5 310t-83.5 306l-152 556h-18l-149 -556q-38 -144 -82 -308t-83 -308h-224zM1242 1571q-63 75 -125.5 147.5t-127.5 148.5h48q-64 -75 -125.5 -147t-125.5 -145h-134q67 89 135 179.5t136 181.5
h181q68 -91 136 -181.5t136 -180.5z" />
    <glyph glyph-name="wcircumflex" unicode="&#x175;" horiz-adv-x="1601" 
d="M374 0q-30 94 -61 187.5t-63 190.5l-57 176q-36 110 -71.5 218.5t-71.5 219.5l174 7q37 -122 77.5 -256.5t77.5 -258.5l92 -307h16l90 314q36 125 72 249.5t73 251.5h160q36 -121 73 -247.5t73 -249.5l93 -318h16l94 322q35 121 73.5 252.5t70.5 240.5h176
q-35 -109 -70.5 -219t-70.5 -219l-56 -174q-32 -97 -63 -192.5t-61 -187.5h-195q-35 115 -72 238.5t-72 234.5l-87 289h-17l-86 -292q-33 -111 -69 -233t-71 -237h-187zM1028 1152q-62 82 -124 161.5t-126 161.5h44q-63 -82 -124.5 -160.5t-125.5 -158.5h-134
q67 98 135 197.5t136 198.5h181q68 -99 136 -198.5t136 -199.5z" />
    <glyph glyph-name="Ycircumflex" unicode="&#x176;" horiz-adv-x="1304" 
d="M568 557l-311 527q-50 84 -96 162.5t-106 179.5h207q55 -96 94 -165t74 -130.5t77 -135.5l138 -243h18l134 234q45 79 81.5 143t76.5 133.5t94 163.5h203q-51 -87 -101.5 -172.5t-99.5 -168.5l-311 -528h-172zM564 0v229v242v237h181v-237v-242v-229h-181zM880 1571
q-63 75 -125.5 147.5t-127.5 148.5h48q-64 -75 -125.5 -147t-125.5 -145h-134q67 89 135 179.5t136 181.5h181q68 -91 136 -181.5t136 -180.5z" />
    <glyph glyph-name="ycircumflex" unicode="&#x177;" horiz-adv-x="1035" 
d="M268 -390q40 98 80 198t80 198v-42q-38 102 -76 207t-75 204l-66 180q-39 107 -80.5 219t-80.5 218l177 7l84 -252t84 -251l105 -319h18l115 320q45 125 89 248t89 247h175q-32 -80 -61.5 -154.5t-65 -164.5t-84.5 -214l-110 -279l-127.5 -323t-95.5 -241zM744 1152
q-62 82 -124 161.5t-126 161.5h44q-63 -82 -124.5 -160.5t-125.5 -158.5h-134q67 98 135 197.5t136 198.5h181q68 -99 136 -198.5t136 -199.5z" />
    <glyph glyph-name="Ydieresis" unicode="&#x178;" horiz-adv-x="1304" 
d="M568 557l-311 527q-50 84 -96 162.5t-106 179.5h207q55 -96 94 -165t74 -130.5t77 -135.5l138 -243h18l134 234q45 79 81.5 143t76.5 133.5t94 163.5h203q-51 -87 -101.5 -172.5t-99.5 -168.5l-311 -528h-172zM564 0v229v242v237h181v-237v-242v-229h-181zM865 1626
q-49 0 -79 29.5t-30 86.5t30.5 87t80.5 30t79 -31.5t29 -85.5q0 -57 -29.5 -86.5t-80.5 -29.5zM441 1626q-49 0 -79 29.5t-30 86.5t30.5 87t80.5 30t79 -31.5t29 -85.5q0 -57 -29.5 -86.5t-80.5 -29.5z" />
    <glyph glyph-name="Zacute" unicode="&#x179;" horiz-adv-x="1343" 
d="M96 0v104q56 74 126.5 166t142 185t131.5 171l543 709l42 -64h-407h-267.5h-294.5v155h1119v-130q-94 -121 -183.5 -238t-179.5 -234l-573 -745l-27 76h372h198h214.5h186.5v-155h-1143zM524 1573l136.5 182t134.5 181l185 2q-55 -62 -108.5 -122.5t-107 -120.5
t-106.5 -119z" />
    <glyph glyph-name="zacute" unicode="&#x17a;" horiz-adv-x="994" 
d="M77 0v85q85 111 166 217.5t153 200.5l318 417l24 -60h-219h-128.5h-155.5h-154v132h810v-99q-39 -50 -90.5 -117t-106 -138.5t-104.5 -135.5l-316 -413l-18 43h242h127.5h151.5h145v-132h-845zM345 1154q68 100 136.5 200t134.5 198l185 4q-55 -68 -109 -135t-107 -133
l-106 -132z" />
    <glyph glyph-name="Zdotaccent" unicode="&#x17b;" horiz-adv-x="1343" 
d="M96 0v104q56 74 126.5 166t142 185t131.5 171l543 709l42 -64h-407h-267.5h-294.5v155h1119v-130q-94 -121 -183.5 -238t-179.5 -234l-573 -745l-27 76h372h198h214.5h186.5v-155h-1143zM669 1626q-54 0 -88 29.5t-34 92.5q0 60 34 91t90 31q55 0 88 -32t33 -90
q0 -63 -33 -92.5t-90 -29.5z" />
    <glyph glyph-name="zdotaccent" unicode="&#x17c;" horiz-adv-x="994" 
d="M77 0v85q85 111 166 217.5t153 200.5l318 417l24 -60h-219h-128.5h-155.5h-154v132h810v-99q-39 -50 -90.5 -117t-106 -138.5t-104.5 -135.5l-316 -413l-18 43h242h127.5h151.5h145v-132h-845zM491 1221q-54 0 -88 30t-34 92q0 61 34 91.5t90 30.5q55 0 88 -31.5
t33 -90.5q0 -62 -33 -92t-90 -30z" />
    <glyph glyph-name="Zcaron" unicode="&#x17d;" horiz-adv-x="1343" 
d="M96 0v104q56 74 126.5 166t142 185t131.5 171l543 709l42 -64h-407h-267.5h-294.5v155h1119v-130q-94 -121 -183.5 -238t-179.5 -234l-573 -745l-27 76h372h198h214.5h186.5v-155h-1143zM582 1572q-68 92 -136 182.5t-136 180.5l134 2q63 -74 125.5 -147t127.5 -149h-48
q64 75 126 147.5t125 144.5h134q-67 -89 -134.5 -179l-136.5 -182h-181z" />
    <glyph glyph-name="zcaron" unicode="&#x17e;" horiz-adv-x="994" 
d="M77 0v85q85 111 166 217.5t153 200.5l318 417l24 -60h-219h-128.5h-155.5h-154v132h810v-99q-39 -50 -90.5 -117t-106 -138.5t-104.5 -135.5l-316 -413l-18 43h242h127.5h151.5h145v-132h-845zM403 1143q-68 100 -136 199.5t-136 198.5l134 3q63 -81 125 -161t125 -162
h-44q63 81 125 160t125 159h134q-67 -98 -135 -197.5t-136 -199.5h-181z" />
    <glyph glyph-name="uni018F" unicode="&#x18f;" horiz-adv-x="1575" 
d="M793 -22q-177 0 -307.5 58.5t-216 160t-127.5 233.5t-42 279l4 85h1232v-145h-1086l29 39q0 -108 28.5 -207t90 -177.5t158.5 -123.5t234 -45q135 0 230.5 45.5t155.5 125.5t88 182.5t28 215.5v51q0 129 -39.5 229.5t-114 170t-183.5 105.5t-250 36q-61 0 -122.5 -7.5
t-123 -23t-121 -39t-114.5 -54.5l-19 165q52 26 113 47.5t128.5 36.5t137.5 23t141 8q177 0 316 -49.5t236 -144.5t147.5 -232t50.5 -311q0 -214 -79 -380t-231.5 -261.5t-371.5 -95.5z" />
    <glyph glyph-name="florin" unicode="&#x192;" horiz-adv-x="1055" 
d="M176 -252q-36 0 -70 3.5t-62 9.5t-47 13l26 144q33 -12 69.5 -19t74.5 -7q93 0 138.5 56t55.5 172q19 227 39 454t39 454q9 106 44 177.5t89.5 113.5t121.5 60t141 18q36 0 69.5 -3t61.5 -9t47 -14l-26 -143q-31 12 -67.5 18.5t-76.5 6.5q-116 0 -174 -59t-69 -178
q-5 -60 -10.5 -123.5t-11.5 -125.5l1 -31q-14 -156 -26.5 -309t-26.5 -310q-9 -106 -40 -177.5t-78 -113.5t-106 -60t-126 -18zM133 649v123h182h164h155h164.5h181.5v-123h-181.5h-164.5h-155h-164h-182z" />
    <glyph glyph-name="Ohorn" unicode="&#x1a0;" horiz-adv-x="1676" 
d="M824 -22q-181 0 -317 58.5t-226.5 161t-135.5 235.5t-45 281q0 208 84.5 375t244.5 265t389 98q174 0 307.5 -57t224.5 -158t137 -235t46 -287q0 -211 -84 -377.5t-243 -263t-382 -96.5zM819 134q137 0 236 47.5t163.5 129.5t95.5 186.5t31 217.5q0 122 -33.5 227.5
t-100 185t-164.5 124t-228 44.5q-134 0 -233.5 -47t-165.5 -128.5t-99 -186t-33 -219.5q0 -116 32 -220t97.5 -185.5t165.5 -128.5t236 -47zM1298 1148l-33 98q100 0 150.5 26t68.5 69t18 97q0 51 -12 109.5t-26 107.5l125 8q13 -31 24 -66t18 -74.5t7 -84.5q0 -90 -38 -155
t-113.5 -100t-188.5 -35z" />
    <glyph glyph-name="ohorn" unicode="&#x1a1;" horiz-adv-x="1273" 
d="M601 -22q-123 0 -216.5 42.5t-156.5 115.5t-95.5 167.5t-32.5 198.5q0 149 60.5 264.5t172 182.5t265.5 67q119 0 211 -39t156 -109t97 -163.5t33 -202.5q0 -147 -60 -266t-170.5 -188.5t-263.5 -69.5zM601 122q109 0 181 54t108 141t36 185q0 112 -40 195t-113 129
t-173 46q-108 0 -182 -49t-111.5 -133t-37.5 -188q0 -98 36.5 -185t110.5 -141t185 -54zM933 714l-33 98q100 0 150.5 26t68.5 69t18 97q0 51 -12 109.5t-26 107.5l125 8q13 -31 24 -66t18 -74.5t7 -84.5q0 -90 -38 -155t-113.5 -100t-188.5 -35z" />
    <glyph glyph-name="Uhorn" unicode="&#x1af;" horiz-adv-x="1601" 
d="M731 -22q-199 0 -323.5 68.5t-183 193t-58.5 290.5v108.5v147.5v163v246.5v230.5h180v-230.5v-246.5v-401q0 -129 38 -222t122.5 -142.5t224.5 -49.5q141 0 224.5 49.5t120.5 142.5t37 224v399v246.5v230.5h180v-230.5v-246.5v-163.5v-148.5v-107q0 -166 -59 -290.5
t-183 -193t-320 -68.5zM1261 1148l-33 98q100 0 150.5 26t68.5 69t18 97q0 51 -12 109.5t-26 107.5l125 8q13 -31 24 -66t18 -74.5t7 -84.5q0 -90 -38 -155t-113.5 -100t-188.5 -35z" />
    <glyph glyph-name="uhorn" unicode="&#x1b0;" horiz-adv-x="1275" 
d="M451 -22q-158 0 -231 91t-73 264v114.5v95.5v163.5v143.5v142l165 7v-216v-223v-188q0 -118 43 -179.5t153 -61.5q64 0 117 27.5t97 72.5t80 100v229v220v212h165v-214v-235v-105v-225v-213h-144l-6 175h-18q-31 -45 -80.5 -90.5t-116.5 -76t-151 -30.5zM935 714l-33 98
q100 0 150.5 26t68.5 69t18 97q0 51 -12 109.5t-26 107.5l125 8q13 -31 24 -66t18 -74.5t7 -84.5q0 -90 -38 -155t-113.5 -100t-188.5 -35z" />
    <glyph glyph-name="uni01C4" unicode="&#x1c4;" horiz-adv-x="2781" 
d="M185 0v229v242v478v246.5v230.5h172h163h166q165 0 293 -47.5t215.5 -139t133 -222.5t45.5 -298q0 -151 -40 -281.5t-127.5 -229t-229 -153.5t-344.5 -55h-159h-142.5h-145.5zM366 151h267q204 0 325 74.5t174 204t53 292.5q0 125 -31.5 227t-96 175t-165 112t-237.5 39
h-289v-171.5v-187.5v-410v-185v-170zM1535 0v104q56 74 126.5 166t142 185t131.5 171l543 709l42 -64h-407h-267.5h-294.5v155h1119v-130q-94 -121 -183.5 -238t-179.5 -234l-573 -745l-27 76h372h198h214.5h186.5v-155h-1143zM2021 1572q-68 92 -136 182.5t-136 180.5
l134 2q63 -74 125.5 -147t127.5 -149h-48q64 75 126 147.5t125 144.5h134q-67 -89 -134.5 -179l-136.5 -182h-181z" />
    <glyph glyph-name="uni01C5" unicode="&#x1c5;" horiz-adv-x="2467" 
d="M185 0v229v242v478v246.5v230.5h172h163h166q165 0 293 -47.5t215.5 -139t133 -222.5t45.5 -298q0 -151 -40 -281.5t-127.5 -229t-229 -153.5t-344.5 -55h-159h-142.5h-145.5zM366 151h267q204 0 325 74.5t174 204t53 292.5q0 125 -31.5 227t-96 175t-165 112t-237.5 39
h-289v-171.5v-187.5v-410v-185v-170zM1550 0v85q85 111 166 217.5t153 200.5l318 417l24 -60h-219h-128.5h-155.5h-154v132h810v-99q-39 -50 -90.5 -117t-106 -138.5t-104.5 -135.5l-316 -413l-18 43h242h127.5h151.5h145v-132h-845zM1876 1143q-68 100 -136 199.5
t-136 198.5l134 3q63 -81 125 -161t125 -162h-44q63 81 125 160t125 159h134q-67 -98 -135 -197.5t-136 -199.5h-181z" />
    <glyph glyph-name="uni01C6" unicode="&#x1c6;" horiz-adv-x="2149" 
d="M525 -22q-142 0 -236 72.5t-141 191t-47 257.5q0 148 50 265t145.5 184.5t231.5 67.5q69 0 126.5 -18.5t101.5 -49t73 -67.5h17v106v244.5v232.5l165 20v-242.5v-254.5v-549v-225v-213h-144l-8 136h-16q-39 -51 -87 -86t-105.5 -53.5t-125.5 -18.5zM575 126
q62 0 112 19.5t89.5 55.5t69.5 87v441q-31 45 -73.5 75.5t-92.5 46t-102 15.5q-105 0 -173 -50t-101.5 -133.5t-33.5 -184.5q0 -97 32 -181.5t99 -137.5t174 -53zM1232 0v85q85 111 166 217.5t153 200.5l318 417l24 -60h-219h-128.5h-155.5h-154v132h810v-99
q-39 -50 -90.5 -117t-106 -138.5t-104.5 -135.5l-316 -413l-18 43h242h127.5h151.5h145v-132h-845zM1559 1143q-68 100 -136 199.5t-136 198.5l134 3q63 -81 125 -161t125 -162h-44q63 81 125 160t125 159h134q-67 -98 -135 -197.5t-136 -199.5h-181z" />
    <glyph glyph-name="uni01C7" unicode="&#x1c7;" horiz-adv-x="1727" 
d="M185 0v229v242v478v246.5v230.5h181v-230.5v-246.5v-450v-242v-229l-68 133h262h201.5h162h152.5v-161h-891zM1175 -316q58 65 99 131t62.5 143t21.5 178v411v402v246.5v230.5h182v-230.5v-246.5v-357v-243v-230q0 -81 -14.5 -146.5t-39.5 -118t-57.5 -94t-67.5 -76.5
h-186z" />
    <glyph glyph-name="uni01C8" unicode="&#x1c8;" horiz-adv-x="1654" 
d="M185 0v229v242v478v246.5v230.5h181v-230.5v-246.5v-450v-242v-229l-68 133h262h201.5h162h152.5v-161h-891zM1155 -390q58 63 94.5 128.5t53 143t16.5 179.5v377v100v164.5v146v143.5l166 6v-145.5v-148v-166.5v-203v-158v-139q0 -75 -10.5 -138t-31 -115t-48.5 -94
t-63 -75zM1399 1221q-54 0 -88 30t-34 92q0 61 34 91.5t90 30.5q55 0 88 -31.5t33 -90.5q0 -62 -33 -92t-90 -30z" />
    <glyph glyph-name="uni01C9" unicode="&#x1c9;" horiz-adv-x="1018" 
d="M172 0v213v225v549v245v232l165 20v-242.5v-254.5v-549v-225v-213h-165zM518 -390q58 63 94.5 128.5t53 143t16.5 179.5v377v100v164.5v146v143.5l166 6v-145.5v-148v-166.5v-203v-158v-139q0 -75 -10.5 -138t-31 -115t-48.5 -94t-63 -75zM763 1221q-54 0 -88 30t-34 92
q0 61 34 91.5t90 30.5q55 0 88 -31.5t33 -90.5q0 -62 -33 -92t-90 -30z" />
    <glyph glyph-name="uni01CA" unicode="&#x1ca;" horiz-adv-x="2090" 
d="M185 0v229v242v478v246.5v230.5h163q128 -180 246 -347t233 -329l309 -436h15v635v246.5v230.5h172v-230.5v-246.5v-478v-242v-229h-161q-106 150 -223 315.5t-257 363.5l-311 439h-14v-647v-242v-229h-172zM1538 -316q58 65 99 131t62.5 143t21.5 178v411v402v246.5
v230.5h182v-230.5v-246.5v-357v-243v-230q0 -81 -14.5 -146.5t-39.5 -118t-57.5 -94t-67.5 -76.5h-186z" />
    <glyph glyph-name="uni01CB" unicode="&#x1cb;" horiz-adv-x="2018" 
d="M185 0v229v242v478v246.5v230.5h163q128 -180 246 -347t233 -329l309 -436h15v635v246.5v230.5h172v-230.5v-246.5v-478v-242v-229h-161q-106 150 -223 315.5t-257 363.5l-311 439h-14v-647v-242v-229h-172zM1518 -390q58 63 94.5 128.5t53 143t16.5 179.5v377v100v164.5
v146v143.5l166 6v-145.5v-148v-166.5v-203v-158v-139q0 -75 -10.5 -138t-31 -115t-48.5 -94t-63 -75zM1762 1221q-54 0 -88 30t-34 92q0 61 34 91.5t90 30.5q55 0 88 -31.5t33 -90.5q0 -62 -33 -92t-90 -30z" />
    <glyph glyph-name="uni01CC" unicode="&#x1cc;" horiz-adv-x="1656" 
d="M172 0v213v225v100v225v229l144 10l5 -184h18q32 45 82 91t118 76.5t156 30.5q158 0 231 -91t73 -264v-115v-108v-222.5v-215.5h-165v214.5v216.5v188q0 119 -42.5 180t-153.5 61q-67 0 -122 -27t-99.5 -72.5t-79.5 -100.5v-229v-218.5v-212.5h-165zM1156 -390
q58 63 94.5 128.5t53 143t16.5 179.5v377v100v164.5v146v143.5l166 6v-145.5v-148v-166.5v-203v-158v-139q0 -75 -10.5 -138t-31 -115t-48.5 -94t-63 -75zM1401 1221q-54 0 -88 30t-34 92q0 61 34 91.5t90 30.5q55 0 88 -31.5t33 -90.5q0 -62 -33 -92t-90 -30z" />
    <glyph glyph-name="Gcaron" unicode="&#x1e6;" horiz-adv-x="1466" 
d="M860 -21q-186 0 -327.5 55.5t-237.5 155.5t-145.5 234.5t-49.5 291.5q0 215 88.5 381.5t250 260.5t380.5 94q75 0 145.5 -10t133 -27.5t115 -37.5t90.5 -40l-16 -174q-83 46 -161 74.5t-152 41.5t-144 13q-119 0 -218.5 -39t-172.5 -114t-112.5 -182t-39.5 -242
q0 -122 34.5 -228t106 -186t182.5 -124.5t263 -44.5q56 0 112 5.5t110.5 18t107.5 32t103 46.5l21 -170q-34 -16 -84.5 -31t-112.5 -27.5t-130.5 -19.5t-139.5 -7zM1156 61v185v158v166v146h171v-146v-166v-157.5v-182.5zM708 1572q-68 92 -136 182.5t-136 180.5l134 2
q63 -74 125.5 -147t127.5 -149h-48q64 75 126 147.5t125 144.5h134q-67 -89 -134.5 -179l-136.5 -182h-181z" />
    <glyph glyph-name="gcaron" unicode="&#x1e7;" horiz-adv-x="1084" 
d="M488 -406q-111 0 -185 20t-117 54t-61.5 75.5t-18.5 84.5q0 67 33 112.5t77 71.5t77 36v14q-17 5 -41 21.5t-43 46.5t-19 76q0 35 13.5 65t41.5 53t69 40v15q-23 8 -59 30t-72.5 59.5t-61.5 92.5t-25 130q0 97 47.5 170t135 113.5t205.5 40.5q48 0 83.5 -5t73.5 -10.5
t93 -5.5h309v-124h-193h-189l47 78q88 -42 126.5 -111.5t38.5 -156.5q0 -98 -40 -165.5t-113 -109t-170 -63.5q-105 -25 -156 -45.5t-51 -61.5q0 -29 21 -45t66.5 -23t120.5 -7h43q138 0 226 -21.5t130.5 -71.5t42.5 -133q0 -86 -45 -150.5t-120 -106.5t-163.5 -62.5
t-176.5 -20.5zM502 -272q110 0 184.5 30.5t111.5 72.5t37 78q0 38 -22 63t-82 37.5t-174 12.5h-37q-64 -1 -124 -21t-98.5 -55.5t-38.5 -82.5q0 -26 12.5 -50.5t41 -43.5t75 -30t114.5 -11zM473 459q37 6 79.5 18.5t80 35.5t61.5 61t24 96q0 72 -37 117t-91.5 66.5
t-105.5 21.5q-61 0 -114 -21.5t-86 -65t-33 -109.5t32.5 -112t83 -73t106.5 -35zM425 1143q-68 100 -136 199.5t-136 198.5l134 3q63 -81 125 -161t125 -162h-44q63 81 125 160t125 159h134q-67 -98 -135 -197.5t-136 -199.5h-181z" />
    <glyph glyph-name="uni01EA" unicode="&#x1ea;" horiz-adv-x="1634" 
d="M824 -22q-181 0 -317 58.5t-226.5 161t-135.5 235.5t-45 281q0 208 84.5 375t244.5 265t389 98q174 0 307.5 -57t224.5 -158t137 -235t46 -287q0 -211 -84 -377.5t-243 -263t-382 -96.5zM819 134q137 0 236 47.5t163.5 129.5t95.5 186.5t31 217.5q0 122 -33.5 227.5
t-100 185t-164.5 124t-228 44.5q-134 0 -233.5 -47t-165.5 -128.5t-99 -186t-33 -219.5q0 -116 32 -220t97.5 -185.5t165.5 -128.5t236 -47zM899 -416q-72 0 -120.5 20.5t-73.5 57t-25 85.5q0 48 23 93t68.5 86.5t111.5 80.5v36l87 7l38 -50q-81 -41 -138.5 -98.5
t-57.5 -117.5q0 -44 29.5 -65.5t78.5 -21.5q34 0 58 5t38 10v-111q-22 -7 -53.5 -12t-63.5 -5z" />
    <glyph glyph-name="uni01EB" unicode="&#x1eb;" horiz-adv-x="1195" 
d="M601 -22q-123 0 -216.5 42.5t-156.5 115.5t-95.5 167.5t-32.5 198.5q0 149 60.5 264.5t172 182.5t265.5 67q119 0 211 -39t156 -109t97 -163.5t33 -202.5q0 -147 -60 -266t-170.5 -188.5t-263.5 -69.5zM601 122q109 0 181 54t108 141t36 185q0 112 -40 195t-113 129
t-173 46q-108 0 -182 -49t-111.5 -133t-37.5 -188q0 -98 36.5 -185t110.5 -141t185 -54zM639 -416q-72 0 -120.5 20.5t-73.5 57t-25 85.5q0 48 23 93t68.5 86.5t111.5 80.5v36l87 7l38 -50q-81 -41 -138.5 -98.5t-57.5 -117.5q0 -44 29.5 -65.5t78.5 -21.5q34 0 58 5t38 10
v-111q-22 -7 -53.5 -12t-63.5 -5z" />
    <glyph glyph-name="Aringacute" unicode="&#x1fa;" horiz-adv-x="1380" 
d="M59 0q42 115 87.5 242t87.5 241l177 490q47 132 86 238.5t78 214.5h238q39 -110 77 -216t85 -238l176 -491q42 -118 86.5 -242.5t85.5 -238.5h-188q-43 125 -88.5 257.5t-85.5 249.5l-260 756h-17l-262 -749q-43 -122 -89 -255.5t-91 -258.5h-183zM323 358l16 142h722
l13 -142h-751zM688 1559q-67 0 -118 24.5t-80 71.5t-29 114q0 94 63.5 150.5t165.5 56.5q67 0 118.5 -26t80 -73t28.5 -108q0 -68 -29 -114.5t-80.5 -71t-119.5 -24.5zM688 1647q57 0 93.5 30.5t36.5 90.5q0 55 -36 88.5t-92 33.5q-57 0 -93.5 -33t-36.5 -89
q0 -60 36.5 -90.5t91.5 -30.5zM574 1910l136.5 182t134.5 181l185 2q-55 -62 -108.5 -122.5t-107 -120.5t-106.5 -119z" />
    <glyph glyph-name="aringacute" unicode="&#x1fb;" horiz-adv-x="1037" 
d="M404 -20q-89 0 -156 34.5t-104.5 98.5t-37.5 154q0 81 29 136.5t76 90.5t104 54.5t114 29.5l311 54q4 101 -26.5 152.5t-85.5 69.5t-122 18q-34 0 -73 -5t-82.5 -15.5t-91.5 -26.5t-101 -39l-9 151q36 15 81.5 29t97 25.5t105.5 17.5t109 6q111 0 191.5 -35t123.5 -110
t43 -196v-117v-135v-129v-138.5v-154.5h-150l-9 141h-16q-31 -40 -78 -77t-108.5 -60.5t-134.5 -23.5zM452 117q53 0 106 22t99.5 65.5t78.5 109.5l1 214q-16 -9 -42.5 -18t-79 -20.5t-145.5 -28.5q-57 -10 -101 -32.5t-69.5 -61t-25.5 -93.5q0 -86 51.5 -121.5t126.5 -35.5
zM528 1125q-67 0 -118 24.5t-80 71.5t-29 114q0 94 63.5 150.5t165.5 56.5q67 0 118.5 -26t80 -73t28.5 -108q0 -68 -29 -114.5t-80.5 -71t-119.5 -24.5zM528 1213q57 0 93.5 30.5t36.5 90.5q0 55 -36 88.5t-92 33.5q-57 0 -93.5 -33t-36.5 -89q0 -60 36.5 -90.5t91.5 -30.5
zM413 1491q68 100 136.5 200t134.5 198l185 4q-55 -68 -109 -135t-107 -133l-106 -132z" />
    <glyph glyph-name="AEacute" unicode="&#x1fc;" horiz-adv-x="1941" 
d="M29 0q63 115 131.5 241.5t130.5 241.5l268 493q68 127 126.5 234.5t116.5 215.5h1023v-155h-139h-156.5h-188.5h-280l56 129v-231.5v-244.5v-426v-241.5v-229.5l-53 128h292h168h156.5h147.5v-155h-889v229v242v479v243v217l89 -134h-126l-408 -762
q-66 -122 -137.5 -255.5t-138.5 -258.5h-189zM364 358l16 143h627l13 -143h-656zM1077 647v151h277h238.5h192.5v-151h-97.5h-100h-109h-124.5h-277zM880 1573l136.5 182t134.5 181l185 2q-55 -62 -108.5 -122.5t-107 -120.5t-106.5 -119z" />
    <glyph glyph-name="aeacute" unicode="&#x1fd;" horiz-adv-x="1632" 
d="M1216 -22q-171 0 -279.5 68t-160 186t-51.5 270q0 150 50.5 266t147 181.5t234.5 65.5q124 0 214 -49t139 -143.5t49 -233.5q0 -37 -1.5 -66.5t-6.5 -59.5l-145 73q2 16 3 30.5t1 28.5q0 141 -71 214.5t-182 73.5q-91 0 -155 -46.5t-97.5 -128.5t-33.5 -187v-23
q0 -174 86 -274.5t274 -100.5q47 0 99.5 7.5t104.5 23.5t98 42l7 -149q-38 -21 -88.5 -36.5t-110 -24t-125.5 -8.5zM430 117q53 0 106.5 22t99.5 65.5t78 109.5l1 214q-16 -9 -42.5 -18t-78.5 -20.5t-146 -28.5q-57 -10 -101 -32.5t-69.5 -61t-25.5 -93.5q0 -86 52 -121.5
t126 -35.5zM393 -20q-95 0 -164 34.5t-107 98.5t-38 154q0 81 29 136.5t76 90.5t104 54.5t114 29.5l312 54q3 101 -27.5 152.5t-85 69.5t-122.5 18q-34 0 -73 -5t-82 -15.5t-91 -26.5t-101 -39l-10 151q36 15 80 29t94 25.5t103 17.5t105 6q161 0 250 -80t89 -261l-31 -170
l10 -246q-50 -96 -118 -157.5t-148.5 -91t-167.5 -29.5zM772 463v118l678 6l101 -34v-90h-779zM655 1154q68 100 136.5 200t134.5 198l185 4q-55 -68 -109 -135t-107 -133l-106 -132z" />
    <glyph glyph-name="Oslashacute" unicode="&#x1fe;" horiz-adv-x="1634" 
d="M824 -22q-181 0 -317 58.5t-226.5 161t-135.5 235.5t-45 281q0 208 84.5 375t244.5 265t389 98q174 0 307.5 -57t224.5 -158t137 -235t46 -287q0 -211 -84 -377.5t-243 -263t-382 -96.5zM819 134q137 0 236 47.5t163.5 129.5t95.5 186.5t31 217.5q0 122 -33.5 227.5
t-100 185t-164.5 124t-228 44.5q-134 0 -233.5 -47t-165.5 -128.5t-99 -186t-33 -219.5q0 -116 32 -220t97.5 -185.5t165.5 -128.5t236 -47zM263 -130l-92 78q104 137 196.5 257.5t200.5 260.5l393 515q110 144 205.5 268.5t195.5 255.5l96 -73q-102 -133 -196 -256
t-204 -266l-397 -519q-108 -142 -203.5 -266.5t-194.5 -254.5zM668 1573l136.5 182t134.5 181l185 2q-55 -62 -108.5 -122.5t-107 -120.5t-106.5 -119z" />
    <glyph glyph-name="oslashacute" unicode="&#x1ff;" horiz-adv-x="1195" 
d="M601 -22q-123 0 -216 42.5t-156.5 115.5t-96 167.5t-32.5 198.5q0 149 60 264.5t172 182t267 66.5q118 0 210 -39t156 -108.5t97 -163t33 -202.5q0 -147 -60 -266t-170.5 -188.5t-263.5 -69.5zM600 121q110 0 182 54.5t108 141.5t36 185q0 112 -40 195.5t-113 129
t-173 45.5q-108 0 -182 -49.5t-112 -133.5t-38 -187q0 -98 37 -185t111 -141.5t184 -54.5zM198 -129l-85 67q78 101 146.5 190.5t146.5 191.5l288 377q83 108 152 198.5t142 186.5l88 -64q-75 -97 -146 -190t-152 -198l-290 -379q-79 -104 -147.5 -194t-142.5 -186z
M449 1154q68 100 136.5 200t134.5 198l185 4q-55 -68 -109 -135t-107 -133l-106 -132z" />
    <glyph glyph-name="uni0200" unicode="&#x200;" horiz-adv-x="1380" 
d="M59 0q42 115 87.5 242t87.5 241l177 490q47 132 86 238.5t78 214.5h238q39 -110 77 -216t85 -238l176 -491q42 -118 86.5 -242.5t85.5 -238.5h-188q-43 125 -88.5 257.5t-85.5 249.5l-260 756h-17l-262 -749q-43 -122 -89 -255.5t-91 -258.5h-183zM323 358l16 142h722
l13 -142h-751zM485 1573q-51 59 -102.5 119t-104 120.5t-105.5 123.5l173 2q65 -89 132 -180.5t134 -181.5zM857 1573q-44 59 -89 119t-89.5 120.5t-91.5 123.5l167 2q55 -89 110.5 -179.5t112.5 -182.5z" />
    <glyph glyph-name="uni0201" unicode="&#x201;" horiz-adv-x="1037" 
d="M404 -20q-89 0 -156 34.5t-104.5 98.5t-37.5 154q0 81 29 136.5t76 90.5t104 54.5t114 29.5l311 54q4 101 -26.5 152.5t-85.5 69.5t-122 18q-34 0 -73 -5t-82.5 -15.5t-91.5 -26.5t-101 -39l-9 151q36 15 81.5 29t97 25.5t105.5 17.5t109 6q111 0 191.5 -35t123.5 -110
t43 -196v-117v-135v-129v-138.5v-154.5h-150l-9 141h-16q-31 -40 -78 -77t-108.5 -60.5t-134.5 -23.5zM452 117q53 0 106 22t99.5 65.5t78.5 109.5l1 214q-16 -9 -42.5 -18t-79 -20.5t-145.5 -28.5q-57 -10 -101 -32.5t-69.5 -61t-25.5 -93.5q0 -86 51.5 -121.5t126.5 -35.5
zM325 1154q-51 65 -103 131t-104 132.5t-105 134.5l173 4q65 -98 132 -198.5t134 -201.5zM697 1154q-44 65 -89 131t-90 132.5t-91 134.5l167 4q55 -98 111 -198t112 -202z" />
    <glyph glyph-name="uni0202" unicode="&#x202;" horiz-adv-x="1380" 
d="M59 0q42 115 87.5 242t87.5 241l177 490q47 132 86 238.5t78 214.5h238q39 -110 77 -216t85 -238l176 -491q42 -118 86.5 -242.5t85.5 -238.5h-188q-43 125 -88.5 257.5t-85.5 249.5l-260 756h-17l-262 -749q-43 -122 -89 -255.5t-91 -258.5h-183zM323 358l16 142h722
l13 -142h-751zM888 1571q0 134 -51 195t-148 61q-99 0 -150.5 -60.5t-51.5 -189.5h-122q0 123 36.5 206t108.5 125t179 42q156 0 238.5 -94.5t82.5 -278.5z" />
    <glyph glyph-name="uni0203" unicode="&#x203;" horiz-adv-x="1037" 
d="M404 -20q-89 0 -156 34.5t-104.5 98.5t-37.5 154q0 81 29 136.5t76 90.5t104 54.5t114 29.5l311 54q4 101 -26.5 152.5t-85.5 69.5t-122 18q-34 0 -73 -5t-82.5 -15.5t-91.5 -26.5t-101 -39l-9 151q36 15 81.5 29t97 25.5t105.5 17.5t109 6q111 0 191.5 -35t123.5 -110
t43 -196v-117v-135v-129v-138.5v-154.5h-150l-9 141h-16q-31 -40 -78 -77t-108.5 -60.5t-134.5 -23.5zM452 117q53 0 106 22t99.5 65.5t78.5 109.5l1 214q-16 -9 -42.5 -18t-79 -20.5t-145.5 -28.5q-57 -10 -101 -32.5t-69.5 -61t-25.5 -93.5q0 -86 51.5 -121.5t126.5 -35.5
zM728 1152q0 134 -51 195t-148 61q-99 0 -150.5 -60.5t-51.5 -189.5h-122q0 122 36.5 205.5t108.5 125.5t179 42q156 0 238.5 -94.5t82.5 -278.5z" />
    <glyph glyph-name="uni0204" unicode="&#x204;" horiz-adv-x="1187" 
d="M185 0v229v242v479v245v231h886v-155h-214.5h-270.5h-324l100 129v-231.5v-244.5v-426v-241.5v-229.5l-90 128h330h247.5h223.5v-155h-888zM323 647v151h277h238h193v-151h-197.5h-234.5h-276zM426 1573q-51 59 -102.5 119t-104 120.5t-105.5 123.5l173 2
q65 -89 132 -180.5t134 -181.5zM798 1573q-44 59 -89 119t-89.5 120.5t-91.5 123.5l167 2q55 -89 110.5 -179.5t112.5 -182.5z" />
    <glyph glyph-name="uni0205" unicode="&#x205;" horiz-adv-x="1055" 
d="M620 -22q-178 0 -293 68t-171 186t-56 270q0 150 55 266t158 181.5t246 65.5q126 0 216.5 -49t139.5 -143.5t49 -233.5q0 -37 -1.5 -66.5t-6.5 -59.5l-145 73q2 16 2.5 30.5t0.5 28.5q0 141 -70 214.5t-183 73.5q-91 0 -156.5 -46.5t-101.5 -128.5t-36 -187v-23
q0 -116 40 -200t121.5 -129.5t207.5 -45.5q47 0 99.5 7.5t104 23.5t98.5 42l7 -149q-38 -21 -88 -36.5t-110 -24t-127 -8.5zM169 463v118l686 6l101 -38v-86h-787zM350 1154q-51 65 -103 131t-104 132.5t-105 134.5l173 4q65 -98 132 -198.5t134 -201.5zM722 1154
q-44 65 -89 131t-90 132.5t-91 134.5l167 4q55 -98 111 -198t112 -202z" />
    <glyph glyph-name="uni0206" unicode="&#x206;" horiz-adv-x="1187" 
d="M185 0v229v242v479v245v231h886v-155h-214.5h-270.5h-324l100 129v-231.5v-244.5v-426v-241.5v-229.5l-90 128h330h247.5h223.5v-155h-888zM323 647v151h277h238h193v-151h-197.5h-234.5h-276zM829 1571q0 134 -51 195t-148 61q-99 0 -150.5 -60.5t-51.5 -189.5h-122
q0 123 36.5 206t108.5 125t179 42q156 0 238.5 -94.5t82.5 -278.5z" />
    <glyph glyph-name="uni0207" unicode="&#x207;" horiz-adv-x="1055" 
d="M620 -22q-178 0 -293 68t-171 186t-56 270q0 150 55 266t158 181.5t246 65.5q126 0 216.5 -49t139.5 -143.5t49 -233.5q0 -37 -1.5 -66.5t-6.5 -59.5l-145 73q2 16 2.5 30.5t0.5 28.5q0 141 -70 214.5t-183 73.5q-91 0 -156.5 -46.5t-101.5 -128.5t-36 -187v-23
q0 -116 40 -200t121.5 -129.5t207.5 -45.5q47 0 99.5 7.5t104 23.5t98.5 42l7 -149q-38 -21 -88 -36.5t-110 -24t-127 -8.5zM169 463v118l686 6l101 -38v-86h-787zM753 1152q0 134 -51 195t-148 61q-99 0 -150.5 -60.5t-51.5 -189.5h-122q0 122 36.5 205.5t108.5 125.5
t179 42q156 0 238.5 -94.5t82.5 -278.5z" />
    <glyph glyph-name="uni0208" unicode="&#x208;" horiz-adv-x="559" 
d="M188 0v229v242v478v246.5v230.5h184v-230.5v-246.5v-478v-242v-229h-184zM72 1573q-51 59 -102.5 119t-104 120.5t-105.5 123.5l173 2q65 -89 132 -180.5t134 -181.5zM444 1573q-44 59 -89 119t-89.5 120.5t-91.5 123.5l167 2q55 -89 110.5 -179.5t112.5 -182.5z" />
    <glyph glyph-name="uni0209" unicode="&#x209;" horiz-adv-x="514" 
d="M174 0v213v225v100v164.5v146v143.5l166 6v-145.5v-148v-166.5v-100v-225v-213h-166zM52 1154q-51 65 -103 131t-104 132.5t-105 134.5l173 4q65 -98 132 -198.5t134 -201.5zM424 1154q-44 65 -89 131t-90 132.5t-91 134.5l167 4q55 -98 111 -198t112 -202z" />
    <glyph glyph-name="uni020A" unicode="&#x20a;" horiz-adv-x="559" 
d="M188 0v229v242v478v246.5v230.5h184v-230.5v-246.5v-478v-242v-229h-184zM475 1571q0 134 -51 195t-148 61q-99 0 -150.5 -60.5t-51.5 -189.5h-122q0 123 36.5 206t108.5 125t179 42q156 0 238.5 -94.5t82.5 -278.5z" />
    <glyph glyph-name="uni020B" unicode="&#x20b;" horiz-adv-x="514" 
d="M174 0v213v225v100v164.5v146v143.5l166 6v-145.5v-148v-166.5v-100v-225v-213h-166zM427 1152q0 134 -43.5 195t-128.5 61t-129.5 -60.5t-44.5 -189.5h-120q0 122 33.5 205.5t99 125.5t161.5 42q143 0 218 -95t75 -278z" />
    <glyph glyph-name="uni020C" unicode="&#x20c;" horiz-adv-x="1634" 
d="M824 -22q-181 0 -317 58.5t-226.5 161t-135.5 235.5t-45 281q0 208 84.5 375t244.5 265t389 98q174 0 307.5 -57t224.5 -158t137 -235t46 -287q0 -211 -84 -377.5t-243 -263t-382 -96.5zM819 134q137 0 236 47.5t163.5 129.5t95.5 186.5t31 217.5q0 122 -33.5 227.5
t-100 185t-164.5 124t-228 44.5q-134 0 -233.5 -47t-165.5 -128.5t-99 -186t-33 -219.5q0 -116 32 -220t97.5 -185.5t165.5 -128.5t236 -47zM611 1573q-51 59 -102.5 119t-104 120.5t-105.5 123.5l173 2q65 -89 132 -180.5t134 -181.5zM983 1573q-44 59 -89 119t-89.5 120.5
t-91.5 123.5l167 2q55 -89 110.5 -179.5t112.5 -182.5z" />
    <glyph glyph-name="uni020D" unicode="&#x20d;" horiz-adv-x="1195" 
d="M601 -22q-123 0 -216.5 42.5t-156.5 115.5t-95.5 167.5t-32.5 198.5q0 149 60.5 264.5t172 182.5t265.5 67q119 0 211 -39t156 -109t97 -163.5t33 -202.5q0 -147 -60 -266t-170.5 -188.5t-263.5 -69.5zM601 122q109 0 181 54t108 141t36 185q0 112 -40 195t-113 129
t-173 46q-108 0 -182 -49t-111.5 -133t-37.5 -188q0 -98 36.5 -185t110.5 -141t185 -54zM392 1154q-51 65 -103 131t-104 132.5t-105 134.5l173 4q65 -98 132 -198.5t134 -201.5zM764 1154q-44 65 -89 131t-90 132.5t-91 134.5l167 4q55 -98 111 -198t112 -202z" />
    <glyph glyph-name="uni020E" unicode="&#x20e;" horiz-adv-x="1634" 
d="M824 -22q-181 0 -317 58.5t-226.5 161t-135.5 235.5t-45 281q0 208 84.5 375t244.5 265t389 98q174 0 307.5 -57t224.5 -158t137 -235t46 -287q0 -211 -84 -377.5t-243 -263t-382 -96.5zM819 134q137 0 236 47.5t163.5 129.5t95.5 186.5t31 217.5q0 122 -33.5 227.5
t-100 185t-164.5 124t-228 44.5q-134 0 -233.5 -47t-165.5 -128.5t-99 -186t-33 -219.5q0 -116 32 -220t97.5 -185.5t165.5 -128.5t236 -47zM1014 1571q0 134 -51 195t-148 61q-99 0 -150.5 -60.5t-51.5 -189.5h-122q0 123 36.5 206t108.5 125t179 42q156 0 238.5 -94.5
t82.5 -278.5z" />
    <glyph glyph-name="uni020F" unicode="&#x20f;" horiz-adv-x="1195" 
d="M601 -22q-123 0 -216.5 42.5t-156.5 115.5t-95.5 167.5t-32.5 198.5q0 149 60.5 264.5t172 182.5t265.5 67q119 0 211 -39t156 -109t97 -163.5t33 -202.5q0 -147 -60 -266t-170.5 -188.5t-263.5 -69.5zM601 122q109 0 181 54t108 141t36 185q0 112 -40 195t-113 129
t-173 46q-108 0 -182 -49t-111.5 -133t-37.5 -188q0 -98 36.5 -185t110.5 -141t185 -54zM795 1152q0 134 -51 195t-148 61q-99 0 -150.5 -60.5t-51.5 -189.5h-122q0 122 36.5 205.5t108.5 125.5t179 42q156 0 238.5 -94.5t82.5 -278.5z" />
    <glyph glyph-name="uni0210" unicode="&#x210;" horiz-adv-x="1340" 
d="M185 0v229v242v479v245v231h131.5h163h187.5q163 0 271.5 -38.5t163 -123.5t54.5 -224q0 -117 -45.5 -214t-151.5 -155.5t-287 -59.5l57 79l225 -281q53 -65 112 -139t115 -144.5t100 -125.5h-212q-71 90 -136.5 174t-129.5 164l-256 330l111 -89h-327v149h271
q125 0 206 29t121 93.5t40 171.5q0 89 -28.5 140.5t-75 75.5t-100.5 31t-104 7h-420l121 124v-234v-242v-453v-242v-229h-177zM429 1573q-51 59 -102.5 119t-104 120.5t-105.5 123.5l173 2q65 -89 132 -180.5t134 -181.5zM801 1573q-44 59 -89 119t-89.5 120.5t-91.5 123.5
l167 2q55 -89 110.5 -179.5t112.5 -182.5z" />
    <glyph glyph-name="uni0211" unicode="&#x211;" horiz-adv-x="799" 
d="M172 0v213v225v100v225v229l144 10l5 -202h17q41 91 94.5 137.5t108.5 62.5t101 16q28 0 56 -4t53 -13l-15 -166q-33 6 -59.5 10t-61.5 4q-29 0 -65.5 -8.5t-75 -35t-74.5 -79t-63 -139.5v-154v-218.5v-212.5h-165zM262 1154q-51 65 -103 131t-104 132.5t-105 134.5
l173 4q65 -98 132 -198.5t134 -201.5zM634 1154q-44 65 -89 131t-90 132.5t-91 134.5l167 4q55 -98 111 -198t112 -202z" />
    <glyph glyph-name="uni0212" unicode="&#x212;" horiz-adv-x="1340" 
d="M185 0v229v242v479v245v231h131.5h163h187.5q163 0 271.5 -38.5t163 -123.5t54.5 -224q0 -117 -45.5 -214t-151.5 -155.5t-287 -59.5l57 79l225 -281q53 -65 112 -139t115 -144.5t100 -125.5h-212q-71 90 -136.5 174t-129.5 164l-256 330l111 -89h-327v149h271
q125 0 206 29t121 93.5t40 171.5q0 89 -28.5 140.5t-75 75.5t-100.5 31t-104 7h-420l121 124v-234v-242v-453v-242v-229h-177zM832 1571q0 134 -51 195t-148 61q-99 0 -150.5 -60.5t-51.5 -189.5h-122q0 123 36.5 206t108.5 125t179 42q156 0 238.5 -94.5t82.5 -278.5z" />
    <glyph glyph-name="uni0213" unicode="&#x213;" horiz-adv-x="799" 
d="M172 0v213v225v100v225v229l144 10l5 -202h17q41 91 94.5 137.5t108.5 62.5t101 16q28 0 56 -4t53 -13l-15 -166q-33 6 -59.5 10t-61.5 4q-29 0 -65.5 -8.5t-75 -35t-74.5 -79t-63 -139.5v-154v-218.5v-212.5h-165zM665 1152q0 134 -51 195t-148 61q-99 0 -150.5 -60.5
t-51.5 -189.5h-122q0 122 36.5 205.5t108.5 125.5t179 42q156 0 238.5 -94.5t82.5 -278.5z" />
    <glyph glyph-name="uni0214" unicode="&#x214;" horiz-adv-x="1461" 
d="M731 -22q-199 0 -323.5 68.5t-183 193t-58.5 290.5v108.5v147.5v163v246.5v230.5h180v-230.5v-246.5v-401q0 -129 38 -222t122.5 -142.5t224.5 -49.5q141 0 224.5 49.5t120.5 142.5t37 224v399v246.5v230.5h180v-230.5v-246.5v-163.5v-148.5v-107q0 -166 -59 -290.5
t-183 -193t-320 -68.5zM527 1573q-51 59 -102.5 119t-104 120.5t-105.5 123.5l173 2q65 -89 132 -180.5t134 -181.5zM899 1573q-44 59 -89 119t-89.5 120.5t-91.5 123.5l167 2q55 -89 110.5 -179.5t112.5 -182.5z" />
    <glyph glyph-name="uni0215" unicode="&#x215;" horiz-adv-x="1117" 
d="M451 -22q-158 0 -231 91t-73 264v114.5v95.5v163.5v143.5v142l165 7v-216v-223v-188q0 -118 43 -179.5t153 -61.5q64 0 117 27.5t97 72.5t80 100v229v220v212h165v-214v-235v-105v-225v-213h-144l-6 175h-18q-31 -45 -80.5 -90.5t-116.5 -76t-151 -30.5zM353 1154
q-51 65 -103 131t-104 132.5t-105 134.5l173 4q65 -98 132 -198.5t134 -201.5zM725 1154q-44 65 -89 131t-90 132.5t-91 134.5l167 4q55 -98 111 -198t112 -202z" />
    <glyph glyph-name="uni0216" unicode="&#x216;" horiz-adv-x="1461" 
d="M731 -22q-199 0 -323.5 68.5t-183 193t-58.5 290.5v108.5v147.5v163v246.5v230.5h180v-230.5v-246.5v-401q0 -129 38 -222t122.5 -142.5t224.5 -49.5q141 0 224.5 49.5t120.5 142.5t37 224v399v246.5v230.5h180v-230.5v-246.5v-163.5v-148.5v-107q0 -166 -59 -290.5
t-183 -193t-320 -68.5zM930 1571q0 134 -51 195t-148 61q-99 0 -150.5 -60.5t-51.5 -189.5h-122q0 123 36.5 206t108.5 125t179 42q156 0 238.5 -94.5t82.5 -278.5z" />
    <glyph glyph-name="uni0217" unicode="&#x217;" horiz-adv-x="1117" 
d="M451 -22q-158 0 -231 91t-73 264v114.5v95.5v163.5v143.5v142l165 7v-216v-223v-188q0 -118 43 -179.5t153 -61.5q64 0 117 27.5t97 72.5t80 100v229v220v212h165v-214v-235v-105v-225v-213h-144l-6 175h-18q-31 -45 -80.5 -90.5t-116.5 -76t-151 -30.5zM756 1152
q0 134 -51 195t-148 61q-99 0 -150.5 -60.5t-51.5 -189.5h-122q0 122 36.5 205.5t108.5 125.5t179 42q156 0 238.5 -94.5t82.5 -278.5z" />
    <glyph glyph-name="uni0218" unicode="&#x218;" horiz-adv-x="1172" 
d="M599 -22q-89 0 -179.5 16.5t-167 41t-123.5 49.5l17 171q67 -37 139.5 -64.5t148 -42.5t154.5 -15q89 0 160.5 24.5t113 78t41.5 140.5q0 76 -43 125.5t-124.5 85.5t-197.5 72q-136 43 -232 93t-146.5 123.5t-50.5 187.5q0 111 52.5 199t156.5 138.5t258 50.5
q64 0 126.5 -9t119.5 -24.5t104 -34.5t80 -39l-18 -172q-61 41 -129 68.5t-135 41t-124 13.5q-81 0 -149 -24t-109.5 -73.5t-41.5 -127.5q0 -68 35 -113t110.5 -80.5t194.5 -73.5q172 -54 270.5 -109.5t140 -128.5t41.5 -179q0 -117 -51.5 -209t-160.5 -146t-281 -54z
M459 -570q40 57 50 111t10 134v66v66l83 6q52 -2 78 -31t26 -74q0 -52 -20.5 -103.5t-58 -96t-88.5 -75.5z" />
    <glyph glyph-name="uni0219" unicode="&#x219;" horiz-adv-x="910" 
d="M452 -22q-62 0 -124.5 10t-117.5 26.5t-96 37.5l13 155q46 -26 98.5 -45.5t109 -30t113.5 -10.5q55 0 101.5 12.5t74 46t27.5 97.5q0 42 -24 69t-80.5 49t-152.5 49q-79 22 -141 54t-97.5 86t-35.5 141q0 135 88.5 212.5t238.5 77.5q62 0 120 -10.5t107 -27.5t85 -36
l-14 -155q-48 30 -99 49.5t-98 28t-83 8.5q-41 0 -81.5 -11.5t-67.5 -42t-27 -87.5q0 -41 19 -69t66 -50t130 -46q99 -29 169.5 -60.5t108.5 -82.5t38 -141q0 -87 -38 -155.5t-119 -108.5t-211 -40zM320 -570q40 57 50 111t10 134v66v66l83 6q52 -2 78 -31t26 -74
q0 -52 -20.5 -103.5t-58 -96t-88.5 -75.5z" />
    <glyph glyph-name="uni021A" unicode="&#x21a;" horiz-adv-x="1282" 
d="M551 0v229v242v452v245.5v231.5l72 -135h-169h-214.5h-177.5v161h1158v-161h-177h-215h-169l73 135v-231.5v-245.5v-452v-242v-229h-181zM507 -570q40 57 50 111t10 134v66v66l83 6q52 -2 78 -31t26 -74q0 -52 -20.5 -103.5t-58 -96t-88.5 -75.5z" />
    <glyph glyph-name="uni021B" unicode="&#x21b;" horiz-adv-x="820" 
d="M548 -22q-99 0 -168 34.5t-104.5 105t-35.5 180.5v172.5v168v159v146.5v189v181l163 36v-137v-127v-142v-607q0 -107 45.5 -161t139.5 -54q37 0 81 12.5t78 39.5l14 -145q-20 -15 -54 -26.5t-75 -18t-84 -6.5zM49 861v131h702v-131h-201.5h-197.5h-68h-235zM336 -570
q40 57 50 111t10 134v66v66l83 6q52 -2 78 -31t26 -74q0 -52 -20.5 -103.5t-58 -96t-88.5 -75.5z" />
    <glyph glyph-name="uni022A" unicode="&#x22a;" horiz-adv-x="1634" 
d="M824 -22q-181 0 -317 58.5t-226.5 161t-135.5 235.5t-45 281q0 208 84.5 375t244.5 265t389 98q174 0 307.5 -57t224.5 -158t137 -235t46 -287q0 -211 -84 -377.5t-243 -263t-382 -96.5zM819 134q137 0 236 47.5t163.5 129.5t95.5 186.5t31 217.5q0 122 -33.5 227.5
t-100 185t-164.5 124t-228 44.5q-134 0 -233.5 -47t-165.5 -128.5t-99 -186t-33 -219.5q0 -116 32 -220t97.5 -185.5t165.5 -128.5t236 -47zM1027 1626q-49 0 -79 29.5t-30 86.5t30.5 87t80.5 30t79 -31.5t29 -85.5q0 -57 -29.5 -86.5t-80.5 -29.5zM603 1626q-49 0 -79 29.5
t-30 86.5t30.5 87t80.5 30t79 -31.5t29 -85.5q0 -57 -29.5 -86.5t-80.5 -29.5zM500 2033v129h150h164h164.5h149.5v-129h-149.5h-164.5h-164h-150z" />
    <glyph glyph-name="uni022B" unicode="&#x22b;" horiz-adv-x="1195" 
d="M601 -22q-123 0 -216.5 42.5t-156.5 115.5t-95.5 167.5t-32.5 198.5q0 149 60.5 264.5t172 182.5t265.5 67q119 0 211 -39t156 -109t97 -163.5t33 -202.5q0 -147 -60 -266t-170.5 -188.5t-263.5 -69.5zM601 122q109 0 181 54t108 141t36 185q0 112 -40 195t-113 129
t-173 46q-108 0 -182 -49t-111.5 -133t-37.5 -188q0 -98 36.5 -185t110.5 -141t185 -54zM808 1207q-49 0 -79 29t-30 87q0 57 30.5 87t80.5 30t79 -31.5t29 -85.5q0 -58 -29.5 -87t-80.5 -29zM384 1207q-49 0 -79 29t-30 87q0 57 30.5 87t80.5 30t79 -31.5t29 -85.5
q0 -58 -29.5 -87t-80.5 -29zM281 1629v129h150h164h164.5h149.5v-129h-149.5h-164.5h-164h-150z" />
    <glyph glyph-name="uni022C" unicode="&#x22c;" horiz-adv-x="1634" 
d="M824 -22q-181 0 -317 58.5t-226.5 161t-135.5 235.5t-45 281q0 208 84.5 375t244.5 265t389 98q174 0 307.5 -57t224.5 -158t137 -235t46 -287q0 -211 -84 -377.5t-243 -263t-382 -96.5zM819 134q137 0 236 47.5t163.5 129.5t95.5 186.5t31 217.5q0 122 -33.5 227.5
t-100 185t-164.5 124t-228 44.5q-134 0 -233.5 -47t-165.5 -128.5t-99 -186t-33 -219.5q0 -116 32 -220t97.5 -185.5t165.5 -128.5t236 -47zM985 1568q-60 0 -103.5 26t-78.5 60.5t-66.5 60.5t-67.5 26q-58 0 -81 -37t-26 -105h-101q0 130 51.5 199.5t139.5 69.5
q59 0 102 -26t77 -60t66 -60t69 -26q57 0 79.5 37t24.5 105h101q0 -131 -50 -200.5t-136 -69.5zM502 2054v129h150h164h164.5h149.5v-129h-149.5h-164.5h-164h-150z" />
    <glyph glyph-name="uni022D" unicode="&#x22d;" horiz-adv-x="1195" 
d="M601 -22q-123 0 -216.5 42.5t-156.5 115.5t-95.5 167.5t-32.5 198.5q0 149 60.5 264.5t172 182.5t265.5 67q119 0 211 -39t156 -109t97 -163.5t33 -202.5q0 -147 -60 -266t-170.5 -188.5t-263.5 -69.5zM601 122q109 0 181 54t108 141t36 185q0 112 -40 195t-113 129
t-173 46q-108 0 -182 -49t-111.5 -133t-37.5 -188q0 -98 36.5 -185t110.5 -141t185 -54zM766 1149q-60 0 -103.5 26t-78.5 60.5t-66.5 60t-67.5 25.5q-58 0 -81 -36.5t-26 -104.5h-101q0 130 51.5 199.5t139.5 69.5q59 0 102 -26t77 -60t66 -60t69 -26q57 0 79.5 37
t24.5 105h101q0 -131 -50 -200.5t-136 -69.5zM283 1649v129h150h164h164.5h149.5v-129h-149.5h-164.5h-164h-150z" />
    <glyph glyph-name="uni0230" unicode="&#x230;" horiz-adv-x="1634" 
d="M824 -22q-181 0 -317 58.5t-226.5 161t-135.5 235.5t-45 281q0 208 84.5 375t244.5 265t389 98q174 0 307.5 -57t224.5 -158t137 -235t46 -287q0 -211 -84 -377.5t-243 -263t-382 -96.5zM819 134q137 0 236 47.5t163.5 129.5t95.5 186.5t31 217.5q0 122 -33.5 227.5
t-100 185t-164.5 124t-228 44.5q-134 0 -233.5 -47t-165.5 -128.5t-99 -186t-33 -219.5q0 -116 32 -220t97.5 -185.5t165.5 -128.5t236 -47zM814 1626q-54 0 -88 29.5t-34 92.5q0 60 34 91t90 31q55 0 88 -32t33 -90q0 -63 -33 -92.5t-90 -29.5zM501 2039v129h150h164h164.5
h149.5v-129h-149.5h-164.5h-164h-150z" />
    <glyph glyph-name="uni0231" unicode="&#x231;" horiz-adv-x="1195" 
d="M601 -22q-123 0 -216.5 42.5t-156.5 115.5t-95.5 167.5t-32.5 198.5q0 149 60.5 264.5t172 182.5t265.5 67q119 0 211 -39t156 -109t97 -163.5t33 -202.5q0 -147 -60 -266t-170.5 -188.5t-263.5 -69.5zM601 122q109 0 181 54t108 141t36 185q0 112 -40 195t-113 129
t-173 46q-108 0 -182 -49t-111.5 -133t-37.5 -188q0 -98 36.5 -185t110.5 -141t185 -54zM594 1221q-54 0 -88 30t-34 92q0 61 34 91.5t90 30.5q55 0 88 -31.5t33 -90.5q0 -62 -33 -92t-90 -30zM281 1649v129h150h164h164.5h149.5v-129h-149.5h-164.5h-164h-150z" />
    <glyph glyph-name="uni0232" unicode="&#x232;" horiz-adv-x="1304" 
d="M568 557l-311 527q-50 84 -96 162.5t-106 179.5h207q55 -96 94 -165t74 -130.5t77 -135.5l138 -243h18l134 234q45 79 81.5 143t76.5 133.5t94 163.5h203q-51 -87 -101.5 -172.5t-99.5 -168.5l-311 -528h-172zM564 0v229v242v237h181v-237v-242v-229h-181zM340 1671v129
h150h164h164.5h149.5v-129h-149.5h-164.5h-164h-150z" />
    <glyph glyph-name="uni0233" unicode="&#x233;" horiz-adv-x="1035" 
d="M268 -390q40 98 80 198t80 198v-42q-38 102 -76 207t-75 204l-66 180q-39 107 -80.5 219t-80.5 218l177 7l84 -252t84 -251l105 -319h18l115 320q45 125 89 248t89 247h175q-32 -80 -61.5 -154.5t-65 -164.5t-84.5 -214l-110 -279l-127.5 -323t-95.5 -241zM204 1252v129
h150h164h164.5h149.5v-129h-149.5h-164.5h-164h-150z" />
    <glyph glyph-name="uni0237" unicode="&#x237;" horiz-adv-x="510" 
d="M10 -390q58 63 94.5 128.5t53 143t16.5 179.5v377v100v164.5v146v143.5l166 6v-145.5v-148v-166.5v-203v-158v-139q0 -75 -10.5 -138t-31 -115t-48.5 -94t-63 -75z" />
    <glyph glyph-name="uni0259" unicode="&#x259;" horiz-adv-x="1055" 
d="M496 -22q-126 0 -216.5 49t-139.5 144t-49 233q0 38 2 67.5t6 58.5l145 -73q-1 -14 -2 -29t-1 -29q0 -141 70 -214.5t183 -73.5q91 0 156.5 46.5t101.5 128t36 186.5v24q0 115 -40 199.5t-122 130t-207 45.5q-47 0 -99.5 -7.5t-104.5 -24t-98 -42.5l-7 150
q38 20 88.5 35.5t110 24t125.5 8.5q178 0 293.5 -67.5t171.5 -186t56 -269.5q0 -150 -55 -266t-158 -182t-246 -66zM200 407l-101 38v85h787v-117z" />
    <glyph glyph-name="uni02BB" unicode="&#x2bb;" horiz-adv-x="460" 
d="M210 939q-55 5 -80 42t-25 91q0 62 16.5 123t45 117t65 103t75.5 80l91 3q-39 -56 -62 -112t-32.5 -117t-9.5 -132v-94.5v-97.5z" />
    <glyph glyph-name="uni02BC" unicode="&#x2bc;" horiz-adv-x="460" 
d="M62 931q39 56 61.5 112t32.5 117t10 132v95v97l84 6q55 -4 80 -41.5t25 -91.5q0 -62 -16.5 -123t-45.5 -117t-65 -102.5t-75 -80.5z" />
    <glyph glyph-name="uni02BE" unicode="&#x2be;" horiz-adv-x="392" 
d="M62 1125v88q57 0 93.5 30.5t36.5 90.5q0 55 -36 88.5t-92 33.5v86q67 0 118 -26t80 -73t29 -108q0 -68 -29 -114.5t-80.5 -71t-119.5 -24.5z" />
    <glyph glyph-name="uni02BF" unicode="&#x2bf;" horiz-adv-x="392" 
d="M328 1125q-67 0 -118 24.5t-80 71.5t-29 114q0 94 63.5 150.5t165.5 56.5v-86q-57 0 -93.5 -33t-36.5 -89q0 -60 36.5 -90.5t91.5 -30.5v-88z" />
    <glyph glyph-name="circumflex" unicode="&#x2c6;" horiz-adv-x="1200" 
d="M826 1152q-62 82 -124 161.5t-126 161.5h44q-63 -82 -124.5 -160.5t-125.5 -158.5h-134q67 98 135 197.5t136 198.5h181q68 -99 136 -198.5t136 -199.5z" />
    <glyph glyph-name="caron" unicode="&#x2c7;" horiz-adv-x="1200" 
d="M510 1143q-68 100 -136 199.5t-136 198.5l134 3q63 -81 125 -161t125 -162h-44q63 81 125 160t125 159h134q-67 -98 -135 -197.5t-136 -199.5h-181z" />
    <glyph glyph-name="uni02C8" unicode="&#x2c8;" horiz-adv-x="402" 
d="M133 1050v257.5v250.5h136v-250.5v-257.5h-136z" />
    <glyph glyph-name="uni02C9" unicode="&#x2c9;" horiz-adv-x="766" 
d="M69 1252v129h150h164h164.5h149.5v-129h-149.5h-164.5h-164h-150z" />
    <glyph glyph-name="uni02CA" unicode="&#x2ca;" horiz-adv-x="583" 
d="M35 1154q68 100 136.5 200t134.5 198l185 4q-55 -68 -109 -135t-107 -133l-106 -132z" />
    <glyph glyph-name="uni02CB" unicode="&#x2cb;" horiz-adv-x="583" 
d="M414 1154q-53 66 -106.5 131.5t-107 132.5t-108.5 134l184 4q68 -99 136 -198.5t136 -201.5z" />
    <glyph glyph-name="uni02CC" unicode="&#x2cc;" horiz-adv-x="402" 
d="M133 -384v257.5v250.5h136v-250.5v-257.5h-136z" />
    <glyph glyph-name="breve" unicode="&#x2d8;" horiz-adv-x="1200" 
d="M597 1144q-157 0 -239.5 94.5t-82.5 279.5l122 5q0 -133 51.5 -194.5t148.5 -61.5q98 0 149.5 60.5t51.5 190.5h122q0 -123 -36.5 -206.5t-108.5 -125.5t-178 -42z" />
    <glyph glyph-name="dotaccent" unicode="&#x2d9;" horiz-adv-x="1200" 
d="M600 1221q-54 0 -88 30t-34 92q0 61 34 91.5t90 30.5q55 0 88 -31.5t33 -90.5q0 -62 -33 -92t-90 -30z" />
    <glyph glyph-name="ring" unicode="&#x2da;" horiz-adv-x="1200" 
d="M598 1125q-67 0 -118 24.5t-80 71.5t-29 114q0 94 63.5 150.5t165.5 56.5q67 0 118.5 -26t80 -73t28.5 -108q0 -68 -29 -114.5t-80.5 -71t-119.5 -24.5zM598 1213q57 0 93.5 30.5t36.5 90.5q0 55 -36 88.5t-92 33.5q-57 0 -93.5 -33t-36.5 -89q0 -60 36.5 -90.5
t91.5 -30.5z" />
    <glyph glyph-name="ogonek" unicode="&#x2db;" horiz-adv-x="1200" 
d="M489 -416q-72 0 -120.5 20.5t-73.5 57t-25 85.5q0 48 23 93t68.5 86.5t111.5 80.5v36l87 7l38 -50q-81 -41 -138.5 -98.5t-57.5 -117.5q0 -44 29.5 -65.5t78.5 -21.5q34 0 58 5t38 10v-111q-22 -7 -53.5 -12t-63.5 -5z" />
    <glyph glyph-name="tilde" unicode="&#x2dc;" horiz-adv-x="1200" 
d="M769 1149q-60 0 -103.5 26t-78.5 60.5t-66.5 60t-67.5 25.5q-58 0 -81 -36.5t-26 -104.5h-101q0 130 51.5 199.5t139.5 69.5q59 0 102 -26t77 -60t66 -60t69 -26q57 0 79.5 37t24.5 105h101q0 -131 -50 -200.5t-136 -69.5z" />
    <glyph glyph-name="hungarumlaut" unicode="&#x2dd;" horiz-adv-x="1200" 
d="M675 1154q67 100 134.5 200t133.5 198l177 4q-53 -68 -106 -135t-105.5 -133t-104.5 -132zM311 1154q58 101 113.5 200t111.5 198l169 4q-46 -68 -91.5 -135t-90.5 -133l-90 -132z" />
    <glyph glyph-name="gravecomb" unicode="&#x300;" 
d="M614 1154q-53 66 -106.5 131.5t-107 132.5t-108.5 134l184 4q68 -99 136 -198.5t136 -201.5z" />
    <glyph glyph-name="acutecomb" unicode="&#x301;" 
d="M452 1154q68 100 136.5 200t134.5 198l185 4q-55 -68 -109 -135t-107 -133l-106 -132z" />
    <glyph glyph-name="uni0302" unicode="&#x302;" 
d="M826 1152q-62 82 -124 161.5t-126 161.5h44q-63 -82 -124.5 -160.5t-125.5 -158.5h-134q67 98 135 197.5t136 198.5h181q68 -99 136 -198.5t136 -199.5z" />
    <glyph glyph-name="tildecomb" unicode="&#x303;" 
d="M769 1149q-60 0 -103.5 26t-78.5 60.5t-66.5 60t-67.5 25.5q-58 0 -81 -36.5t-26 -104.5h-101q0 130 51.5 199.5t139.5 69.5q59 0 102 -26t77 -60t66 -60t69 -26q57 0 79.5 37t24.5 105h101q0 -131 -50 -200.5t-136 -69.5z" />
    <glyph glyph-name="uni0304" unicode="&#x304;" 
d="M286 1252v129h150h164h164.5h149.5v-129h-149.5h-164.5h-164h-150z" />
    <glyph glyph-name="uni0306" unicode="&#x306;" 
d="M597 1144q-157 0 -239.5 94.5t-82.5 279.5l122 5q0 -133 51.5 -194.5t148.5 -61.5q98 0 149.5 60.5t51.5 190.5h122q0 -123 -36.5 -206.5t-108.5 -125.5t-178 -42z" />
    <glyph glyph-name="uni0307" unicode="&#x307;" 
d="M218 1221q-54 0 -88 30t-34 92q0 61 34 91.5t90 30.5q55 0 88 -31.5t33 -90.5q0 -62 -33 -92t-90 -30z" />
    <glyph glyph-name="uni0308" unicode="&#x308;" 
d="M809 1207q-49 0 -79 29t-30 87q0 57 30.5 87t80.5 30t79 -31.5t29 -85.5q0 -58 -29.5 -87t-80.5 -29zM385 1207q-49 0 -79 29t-30 87q0 57 30.5 87t80.5 30t79 -31.5t29 -85.5q0 -58 -29.5 -87t-80.5 -29z" />
    <glyph glyph-name="hookabovecomb" unicode="&#x309;" 
d="M525 1154v107q74 27 125 63.5t51 86.5q0 44 -33.5 62t-79.5 18q-31 0 -62 -6.5t-63 -18.5t-68 -29l-9 113q18 8 42.5 17.5t53.5 17t61.5 12t66.5 4.5q58 0 110 -17.5t85 -55t33 -98.5q0 -60 -30 -102t-77 -70t-97 -46v-58h-109z" />
    <glyph glyph-name="uni030A" unicode="&#x30a;" 
d="M598 1125q-67 0 -118 24.5t-80 71.5t-29 114q0 94 63.5 150.5t165.5 56.5q67 0 118.5 -26t80 -73t28.5 -108q0 -68 -29 -114.5t-80.5 -71t-119.5 -24.5zM598 1213q57 0 93.5 30.5t36.5 90.5q0 55 -36 88.5t-92 33.5q-57 0 -93.5 -33t-36.5 -89q0 -60 36.5 -90.5
t91.5 -30.5z" />
    <glyph glyph-name="uni030B" unicode="&#x30b;" 
d="M675 1154q67 100 134.5 200t133.5 198l177 4q-53 -68 -106 -135t-105.5 -133t-104.5 -132zM311 1154q58 101 113.5 200t111.5 198l169 4q-46 -68 -91.5 -135t-90.5 -133l-90 -132z" />
    <glyph glyph-name="uni030C" unicode="&#x30c;" 
d="M510 1143q-68 100 -136 199.5t-136 198.5l134 3q63 -81 125 -161t125 -162h-44q63 81 125 160t125 159h134q-67 -98 -135 -197.5t-136 -199.5h-181z" />
    <glyph glyph-name="uni030F" unicode="&#x30f;" 
d="M395 1154q-51 65 -103 131t-104 132.5t-105 134.5l173 4q65 -98 132 -198.5t134 -201.5zM767 1154q-44 65 -89 131t-90 132.5t-91 134.5l167 4q55 -98 111 -198t112 -202z" />
    <glyph glyph-name="uni0311" unicode="&#x311;" 
d="M798 1152q0 134 -51 195t-148 61q-99 0 -150.5 -60.5t-51.5 -189.5h-122q0 122 36.5 205.5t108.5 125.5t179 42q156 0 238.5 -94.5t82.5 -278.5z" />
    <glyph glyph-name="uni0312" unicode="&#x312;" 
d="M586 1221q-52 3 -78 32t-26 74q0 52 20.5 103.5t58 96t88.5 75.5l80 3q-40 -56 -50 -110.5t-10 -134.5v-66.5v-65.5z" />
    <glyph glyph-name="uni031B" unicode="&#x31b;" 
d="M468 714l-33 98q100 0 150.5 26t68.5 69t18 97q0 51 -12 109.5t-26 107.5l125 8q13 -31 24 -66t18 -74.5t7 -84.5q0 -90 -38 -155t-113.5 -100t-188.5 -35z" />
    <glyph glyph-name="dotbelowcomb" unicode="&#x323;" 
d="M599 -431q-54 0 -88 30t-34 92q0 61 34 91.5t90 30.5q55 0 88 -31.5t33 -90.5q0 -62 -33 -92t-90 -30z" />
    <glyph glyph-name="uni0324" unicode="&#x324;" 
d="M809 -420q-49 0 -79 29.5t-30 87.5q0 56 30.5 86t80.5 30t79 -31.5t29 -84.5q0 -58 -29.5 -87.5t-80.5 -29.5zM385 -420q-49 0 -79 29.5t-30 87.5q0 56 30.5 86t80.5 30t79 -31.5t29 -84.5q0 -58 -29.5 -87.5t-80.5 -29.5z" />
    <glyph glyph-name="uni0326" unicode="&#x326;" 
d="M465 -570q40 57 50 111t10 134v66v66l83 6q52 -2 78 -31t26 -74q0 -52 -20.5 -103.5t-58 -96t-88.5 -75.5z" />
    <glyph glyph-name="uni0327" unicode="&#x327;" 
d="M550 -430q-21 0 -44 2t-43.5 5.5t-35.5 8.5v106q14 -5 41.5 -9.5t60.5 -4.5q70 0 98 23t28 57q0 20 -14 39t-51 34t-107 23l78 183h96v-37l-50 -115q72 -11 112 -34t56 -53.5t16 -63.5q0 -45 -24 -82.5t-77 -59.5t-140 -22z" />
    <glyph glyph-name="uni0328" unicode="&#x328;" 
d="M489 -416q-72 0 -120.5 20.5t-73.5 57t-25 85.5q0 48 23 93t68.5 86.5t111.5 80.5v36l87 7l38 -50q-81 -41 -138.5 -98.5t-57.5 -117.5q0 -44 29.5 -65.5t78.5 -21.5q34 0 58 5t38 10v-111q-22 -7 -53.5 -12t-63.5 -5z" />
    <glyph glyph-name="uni032E" unicode="&#x32e;" 
d="M598 -497q-157 0 -239.5 94.5t-82.5 279.5l122 5q0 -133 51.5 -194.5t148.5 -61.5q98 0 149.5 60.5t51.5 190.5h122q0 -123 -36.5 -206.5t-108.5 -125.5t-178 -42z" />
    <glyph glyph-name="uni0331" unicode="&#x331;" 
d="M286 -358v128h150h164h164.5h149.5v-128h-149.5h-164.5h-164h-150z" />
    <glyph glyph-name="uni0374" unicode="&#x374;" horiz-adv-x="488" 
d="M138 760q13 155 20.5 308t12.5 303l188 4q-25 -150 -50.5 -304t-45.5 -309z" />
    <glyph glyph-name="uni0375" unicode="&#x375;" horiz-adv-x="474" 
d="M138 -334q13 155 20.5 308t12.5 303l188 4q-25 -150 -50.5 -304t-45.5 -309z" />
    <glyph glyph-name="uni037E" unicode="&#x37e;" horiz-adv-x="472" 
d="M236 756q-41 0 -70.5 17t-45.5 46t-16 68q0 59 36 94t96 35q42 0 71 -16t45.5 -45t16.5 -68q0 -58 -35.5 -94.5t-97.5 -36.5zM75 -314q39 56 61.5 112t32.5 117t10 132v95v97l84 6q55 -4 80 -41.5t25 -91.5q0 -62 -16.5 -123t-45.5 -117t-65 -102.5t-75 -80.5z" />
    <glyph glyph-name="tonos" unicode="&#x384;" horiz-adv-x="1200" 
d="M465 1154q46 107 92 213.5t91 211.5l168 4q-38 -72 -76.5 -143.5t-76.5 -142t-75 -141.5z" />
    <glyph glyph-name="dieresistonos" unicode="&#x385;" horiz-adv-x="1200" 
d="M288 1207q-43 0 -70.5 29t-27.5 87q0 57 28 87t72 30q46 0 72 -31.5t26 -85.5q0 -58 -26.5 -87t-73.5 -29zM837 1207q-44 0 -71 29t-27 87q0 57 27 87t73 30q44 0 71 -31.5t27 -85.5q0 -58 -27.5 -87t-72.5 -29zM468 1154q21 107 42 213l42 212l145 4
q-33 -108 -64.5 -214t-63.5 -213z" />
    <glyph glyph-name="Alphatonos" unicode="&#x386;" horiz-adv-x="1380" 
d="M59 0q42 115 87.5 242t87.5 241l177 490q47 132 86 238.5t78 214.5h238q39 -110 77 -216t85 -238l176 -491q42 -118 86.5 -242.5t85.5 -238.5h-188q-43 125 -88.5 257.5t-85.5 249.5l-260 756h-17l-262 -749q-43 -122 -89 -255.5t-91 -258.5h-183zM323 358l16 142h722
l13 -142h-751zM-34 998q33 107 65 213.5t64 211.5l156 4q-27 -72 -54.5 -143.5t-54.5 -142t-54 -141.5z" />
    <glyph glyph-name="anoteleia" unicode="&#x387;" horiz-adv-x="472" 
d="M236 755q-41 0 -70.5 17t-45.5 46t-16 68q0 59 36 94t96 35q42 0 71 -16t45.5 -45t16.5 -68q0 -58 -35.5 -94.5t-97.5 -36.5z" />
    <glyph glyph-name="Epsilontonos" unicode="&#x388;" horiz-adv-x="1307" 
d="M305 0v229v242v479v245v231h886v-155h-214.5h-270.5h-324l100 129v-231.5v-244.5v-426v-241.5v-229.5l-90 128h330h247.5h223.5v-155h-888zM443 647v151h277h238h193v-151h-197.5h-234.5h-276zM-146 998q33 107 65 213.5t64 211.5l156 4q-27 -72 -54.5 -143.5t-54.5 -142
t-54 -141.5z" />
    <glyph glyph-name="Etatonos" unicode="&#x389;" horiz-adv-x="1599" 
d="M1233 0v229v242v478v246.5v230.5h181v-230.5v-246.5v-478v-242v-229h-181zM285 0v229v242v478v246.5v230.5h181v-230.5v-246.5v-478v-242v-229h-181zM403 644v156h899v-156h-899zM-166 998q33 107 65 213.5t64 211.5l156 4q-27 -72 -54.5 -143.5t-54.5 -142t-54 -141.5z
" />
    <glyph glyph-name="Iotatonos" unicode="&#x38a;" horiz-adv-x="659" 
d="M288 0v229v242v478v246.5v230.5h184v-230.5v-246.5v-478v-242v-229h-184zM-163 998q33 107 65 213.5t64 211.5l156 4q-27 -72 -54.5 -143.5t-54.5 -142t-54 -141.5z" />
    <glyph glyph-name="Omicrontonos" unicode="&#x38c;" horiz-adv-x="1694" 
d="M884 -22q-181 0 -317 58.5t-226.5 161t-135.5 235.5t-45 281q0 208 84.5 375t244.5 265t389 98q174 0 307.5 -57t224.5 -158t137 -235t46 -287q0 -211 -84 -377.5t-243 -263t-382 -96.5zM879 134q137 0 236 47.5t163.5 129.5t95.5 186.5t31 217.5q0 122 -33.5 227.5
t-100 185t-164.5 124t-228 44.5q-134 0 -233.5 -47t-165.5 -128.5t-99 -186t-33 -219.5q0 -116 32 -220t97.5 -185.5t165.5 -128.5t236 -47zM-153 998q33 107 65 213.5t64 211.5l156 4q-27 -72 -54.5 -143.5t-54.5 -142t-54 -141.5z" />
    <glyph glyph-name="Upsilontonos" unicode="&#x38e;" horiz-adv-x="1364" 
d="M628 557l-311 527q-50 84 -96 162.5t-106 179.5h207q55 -96 94 -165t74 -130.5t77 -135.5l138 -243h18l134 234q45 79 81.5 143t76.5 133.5t94 163.5h203q-51 -87 -101.5 -172.5t-99.5 -168.5l-311 -528h-172zM624 0v229v242v237h181v-237v-242v-229h-181zM-237 998
q33 107 65 213.5t64 211.5l156 4q-27 -72 -54.5 -143.5t-54.5 -142t-54 -141.5z" />
    <glyph glyph-name="Omegatonos" unicode="&#x38f;" horiz-adv-x="1686" 
d="M131 0v156h148.5h183.5h43v17q-103 62 -176 154.5t-111.5 208t-38.5 246.5q0 196 85.5 347.5t241.5 237t367 85.5q160 0 288 -50t218 -140t137.5 -212.5t47.5 -267.5q0 -137 -39.5 -253t-112.5 -206t-172 -150v-17h42h184h148v-156h-616v151q92 39 162.5 98.5t118 136.5
t72 169.5t24.5 197.5q0 169 -60.5 290t-172.5 187t-267 66q-162 0 -275 -68t-172 -190t-59 -285q0 -141 43.5 -258.5t127.5 -204t206 -139.5v-151h-616zM-142 998q33 107 65 213.5t64 211.5l156 4q-27 -72 -54.5 -143.5t-54.5 -142t-54 -141.5z" />
    <glyph glyph-name="iotadieresistonos" unicode="&#x390;" horiz-adv-x="611" 
d="M414 -22q-82 0 -140 32t-88 99t-30 170v137.5v121.5v237v217l165 6v-226.5v-198v-160.5v-96q0 -96 31 -145.5t109 -49.5q26 0 50.5 6.5t51.5 23.5l12 -139q-19 -11 -45 -18.5t-55.5 -12t-60.5 -4.5zM168 1154q21 107 42 213l42 212l145 4q-33 -108 -65 -214t-64 -213z
M2 1207q-42 0 -70 29t-28 87q0 57 28.5 87t71.5 30q46 0 72 -31.5t26 -85.5q0 -58 -26.5 -87t-73.5 -29zM508 1207q-45 0 -71.5 29t-26.5 87q0 57 27 87t73 30q44 0 71 -31.5t27 -85.5q0 -58 -27.5 -87t-72.5 -29z" />
    <glyph glyph-name="Alpha" unicode="&#x391;" horiz-adv-x="1380" 
d="M59 0q42 115 87.5 242t87.5 241l177 490q47 132 86 238.5t78 214.5h238q39 -110 77 -216t85 -238l176 -491q42 -118 86.5 -242.5t85.5 -238.5h-188q-43 125 -88.5 257.5t-85.5 249.5l-260 756h-17l-262 -749q-43 -122 -89 -255.5t-91 -258.5h-183zM323 358l16 142h722
l13 -142h-751z" />
    <glyph glyph-name="Beta" unicode="&#x392;" horiz-adv-x="1292" 
d="M629 0h-185h-151h-108v229v242v479v245v231h247.5h276.5q125 0 212.5 -23.5t142.5 -67t81 -105.5t26 -140q0 -91 -33 -159t-89.5 -113t-128.5 -67v-18q74 -14 140 -52t107 -108.5t41 -180.5q0 -84 -28.5 -155.5t-94 -124.5t-177 -82.5t-279.5 -29.5zM362 150h281
q136 0 219.5 31t121 88t37.5 136q0 131 -92 187.5t-258 56.5h-349v145h349q110 0 179.5 36t101.5 94t32 127q0 117 -72.5 171t-215.5 54h-334v-173v-189v-409v-185v-170z" />
    <glyph glyph-name="Gamma" unicode="&#x393;" horiz-adv-x="1131" 
d="M185 0v229v242v478v246.5v230.5h868v-161h-225h-283h-257l78 135v-231.5v-245.5v-452v-242v-229h-181z" />
    <glyph glyph-name="uni0394" unicode="&#x394;" horiz-adv-x="1435" 
d="M59 0q44 116 92 243t92 243l185 488q50 130 90.5 237.5t81.5 214.5h242q41 -107 80.5 -213.5t89.5 -238.5l184 -492q45 -118 91.5 -242.5t89.5 -239.5h-1318zM253 28l-25 128h980l-29 -128q-47 130 -96 266.5t-92 257.5l-263 706h-17l-265 -700q-46 -126 -95.5 -263.5
t-97.5 -266.5z" />
    <glyph glyph-name="Epsilon" unicode="&#x395;" horiz-adv-x="1187" 
d="M185 0v229v242v479v245v231h886v-155h-214.5h-270.5h-324l100 129v-231.5v-244.5v-426v-241.5v-229.5l-90 128h330h247.5h223.5v-155h-888zM323 647v151h277h238h193v-151h-197.5h-234.5h-276z" />
    <glyph glyph-name="Zeta" unicode="&#x396;" horiz-adv-x="1343" 
d="M96 0v104q56 74 126.5 166t142 185t131.5 171l543 709l42 -64h-407h-267.5h-294.5v155h1119v-130q-94 -121 -183.5 -238t-179.5 -234l-573 -745l-27 76h372h198h214.5h186.5v-155h-1143z" />
    <glyph glyph-name="Eta" unicode="&#x397;" horiz-adv-x="1499" 
d="M1133 0v229v242v478v246.5v230.5h181v-230.5v-246.5v-478v-242v-229h-181zM185 0v229v242v478v246.5v230.5h181v-230.5v-246.5v-478v-242v-229h-181zM303 644v156h899v-156h-899z" />
    <glyph glyph-name="Theta" unicode="&#x398;" horiz-adv-x="1645" 
d="M829 -22q-183 0 -320.5 58.5t-228 161t-135.5 235t-45 281.5q0 156 47.5 290t140.5 234.5t227.5 157t307.5 56.5q177 0 311 -57t225.5 -158t138 -234.5t46.5 -287.5q0 -211 -84.5 -377.5t-244.5 -263t-386 -96.5zM825 135q140 0 240.5 46.5t164.5 128t94.5 186
t30.5 219.5q0 124 -33 229.5t-99 184.5t-165.5 123t-232.5 44q-137 0 -238 -46t-167 -127.5t-98.5 -186t-32.5 -221.5q0 -118 31.5 -222.5t96.5 -185t166.5 -126.5t241.5 -46zM489 648v146h159h174h174.5h158.5v-146h-158.5h-174.5h-174h-159z" />
    <glyph glyph-name="Iota" unicode="&#x399;" horiz-adv-x="559" 
d="M188 0v229v242v478v246.5v230.5h184v-230.5v-246.5v-478v-242v-229h-184z" />
    <glyph glyph-name="Kappa" unicode="&#x39a;" horiz-adv-x="1342" 
d="M1055 0q-95 103 -178.5 193.5t-162.5 176.5l-271 293h-98v149h97l235 245q83 86 164 171t188 198h220q-110 -113 -214.5 -221.5t-208.5 -216.5l-264 -275l-3 80l293 -323q69 -74 146.5 -160t152.5 -167t131 -143h-227zM185 0v229v242v478v246.5v230.5h181v-230.5v-246.5
v-478v-242v-229h-181z" />
    <glyph glyph-name="Lambda" unicode="&#x39b;" horiz-adv-x="1381" 
d="M59 0q41 116 86.5 242.5t87.5 241.5l175 489q47 131 85.5 238t77.5 215h246q38 -108 75.5 -214t84.5 -238l175 -493q42 -118 86.5 -242.5t84.5 -238.5h-202q-54 160 -110.5 328t-109.5 323l-200 588h-17l-203 -586q-53 -152 -113 -325.5t-114 -327.5h-195z" />
    <glyph glyph-name="Mu" unicode="&#x39c;" horiz-adv-x="1915" 
d="M134 0q14 116 28.5 229t30.5 246l59 470q16 131 30 244t30 237h182q62 -152 120 -293.5t115 -281.5l226 -554h14l224 553q57 142 114 282t118 294h182q15 -122 28.5 -235t30.5 -245l58 -475q16 -130 30 -241.5t28 -229.5h-173q-23 190 -44 361t-39 319l-52 426h-13
l-181 -459q-66 -167 -132 -334.5t-123 -312.5h-123q-36 91 -80 200t-90.5 223t-90.5 221l-187 462h-13l-52 -425q-18 -149 -38.5 -320t-43.5 -361h-173z" />
    <glyph glyph-name="Nu" unicode="&#x39d;" horiz-adv-x="1508" 
d="M185 0v229v242v478v246.5v230.5h163q128 -180 246 -347t233 -329l309 -436h15v635v246.5v230.5h172v-230.5v-246.5v-478v-242v-229h-161q-106 150 -223 315.5t-257 363.5l-311 439h-14v-647v-242v-229h-172z" />
    <glyph glyph-name="Xi" unicode="&#x39e;" horiz-adv-x="1310" 
d="M105 0v161h262.5h287.5h287h263v-161h-1100zM231 643v157h190.5h233.5h233.5h189.5v-157h-127.5h-136.5h-159h-229.5h-194.5zM108 1265v161h1094v-161h-242h-305h-305h-242z" />
    <glyph glyph-name="Omicron" unicode="&#x39f;" horiz-adv-x="1634" 
d="M824 -22q-181 0 -317 58.5t-226.5 161t-135.5 235.5t-45 281q0 208 84.5 375t244.5 265t389 98q174 0 307.5 -57t224.5 -158t137 -235t46 -287q0 -211 -84 -377.5t-243 -263t-382 -96.5zM819 134q137 0 236 47.5t163.5 129.5t95.5 186.5t31 217.5q0 122 -33.5 227.5
t-100 185t-164.5 124t-228 44.5q-134 0 -233.5 -47t-165.5 -128.5t-99 -186t-33 -219.5q0 -116 32 -220t97.5 -185.5t165.5 -128.5t236 -47z" />
    <glyph glyph-name="Pi" unicode="&#x3a0;" horiz-adv-x="1493" 
d="M185 0v229v242v478v246.5v230.5h1123v-230.5v-246.5v-478v-242v-229h-181v229v242v452v245.5v231.5l65 -130h-890l64 130v-231.5v-245.5v-452v-242v-229h-181z" />
    <glyph glyph-name="Rho" unicode="&#x3a1;" horiz-adv-x="1254" 
d="M185 0v229v242v479v245v231h209.5h294.5q163 0 269.5 -43t159.5 -133.5t53 -231.5q0 -131 -48.5 -232.5t-162 -159.5t-309.5 -58h-107h-111h-94v150h278q128 0 209.5 30t120.5 96t39 173q0 88 -28.5 140t-75 77.5t-100.5 33.5t-105 8h-402l88 124v-231.5v-244.5v-453
v-242v-229h-178z" />
    <glyph glyph-name="Sigma" unicode="&#x3a3;" horiz-adv-x="1285" 
d="M96 0v124q51 58 114.5 130.5t130 148t122.5 139.5l194 222v-83l-208 239q-81 93 -160 183.5t-161 184.5v138h1036v-156h-291.5h-266.5h-324l35 62l191 -221q83 -96 168.5 -194.5t166.5 -191.5q-86 -97 -177.5 -200.5t-177.5 -200.5l-199 -227l-25 64h327h197.5h214h186.5
v-161h-1093z" />
    <glyph glyph-name="Tau" unicode="&#x3a4;" horiz-adv-x="1282" 
d="M551 0v229v242v452v245.5v231.5l72 -135h-169h-214.5h-177.5v161h1158v-161h-177h-215h-169l73 135v-231.5v-245.5v-452v-242v-229h-181z" />
    <glyph glyph-name="Upsilon" unicode="&#x3a5;" horiz-adv-x="1304" 
d="M568 557l-311 527q-50 84 -96 162.5t-106 179.5h207q55 -96 94 -165t74 -130.5t77 -135.5l138 -243h18l134 234q45 79 81.5 143t76.5 133.5t94 163.5h203q-51 -87 -101.5 -172.5t-99.5 -168.5l-311 -528h-172zM564 0v229v242v237h181v-237v-242v-229h-181z" />
    <glyph glyph-name="Phi" unicode="&#x3a6;" horiz-adv-x="1707" 
d="M865 125l2 146h67q176 0 286.5 50t163.5 147.5t53 242.5q0 147 -52 245.5t-160.5 148.5t-280.5 50h-67l-2 146h71q243 0 392 -75t217.5 -207.5t68.5 -307.5q0 -168 -67.5 -300.5t-219 -209t-405.5 -76.5h-67zM776 125q-191 0 -323 44t-213.5 123.5t-118.5 186t-37 232.5
q0 175 68 307.5t217.5 207.5t392.5 75h70l-2 -146h-67q-170 0 -279 -50t-161 -148.5t-52 -245.5q0 -145 52.5 -242.5t163.5 -147.5t286 -50h67l2 -146h-66zM763 -42v104v100l4 4v141.5v151.5v508v151.5v141.5l-4 4v100.5v103.5h181v-103.5v-100.5l-4 -4v-141.5v-151.5v-508
v-151v-142l4 -4v-99.5v-104.5h-181z" />
    </font>
</defs>
</svg>
