<svg width="0" height="0" class="hidden">
  <symbol xmlns="http://www.w3.org/2000/svg" viewBox="0 0 30 30" id="close">
    <path d="M7 4a.995.995 0 0 0-.707.293l-2 2a.999.999 0 0 0 0 1.414L11.586 15l-7.293 7.293a.999.999 0 0 0 0 1.414l2 2a.999.999 0 0 0 1.414 0L15 18.414l7.293 7.293a.999.999 0 0 0 1.414 0l2-2a.999.999 0 0 0 0-1.414L18.414 15l7.293-7.293a.999.999 0 0 0 0-1.414l-2-2a.999.999 0 0 0-1.414 0L15 11.586 7.707 4.293A.996.996 0 0 0 7 4z"></path>
  </symbol>
  <symbol xmlns="http://www.w3.org/2000/svg" viewBox="0 0 30 30" id="email">
    <path d="M0 9.8988V22.8C0 24.1791 0.526784 25.5018 1.46447 26.477C2.40215 27.4521 3.67392 28 5 28H25C26.3261 28 27.5979 27.4521 28.5355 26.477C29.4732 25.5018 30 24.1791 30 22.8V7.2C30 5.82087 29.4732 4.49823 28.5355 3.52304C27.5979 2.54786 26.3261 2 25 2H5C3.67392 2 2.40215 2.54786 1.46447 3.52304C0.526784 4.49823 0 5.82087 0 7.2V9.8988ZM5 4.6H25C25.663 4.6 26.2989 4.87393 26.7678 5.36152C27.2366 5.84912 27.5 6.51044 27.5 7.2V9.124L15 16.1232L2.5 9.124V7.2C2.5 6.51044 2.76339 5.84912 3.23223 5.36152C3.70107 4.87393 4.33696 4.6 5 4.6V4.6ZM2.5 12.0776L14.4075 18.744C14.5896 18.8459 14.7932 18.8993 15 18.8993C15.2068 18.8993 15.4104 18.8459 15.5925 18.744L27.5 12.0776V22.8C27.5 23.4896 27.2366 24.1509 26.7678 24.6385C26.2989 25.1261 25.663 25.4 25 25.4H5C4.33696 25.4 3.70107 25.1261 3.23223 24.6385C2.76339 24.1509 2.5 23.4896 2.5 22.8V12.0776Z"></path>
  </symbol>
  <symbol xmlns="http://www.w3.org/2000/svg" viewBox="0 0 30 30" id="phone">
    <path d="M25.0011 28H24.8311C5.18835 26.87 2.39938 10.29 2.00952 5.23C1.97811 4.83658 2.0246 4.44082 2.14635 4.06541C2.26809 3.69 2.46268 3.3423 2.71898 3.04225C2.97527 2.7422 3.28824 2.49569 3.63993 2.31684C3.99163 2.13799 4.37514 2.03032 4.76851 2H10.2765C10.6769 1.99961 11.0682 2.11951 11.3997 2.34416C11.7312 2.56881 11.9876 2.88787 12.1358 3.26L13.6552 7C13.8015 7.36355 13.8378 7.76208 13.7596 8.14609C13.6814 8.5301 13.4922 8.88267 13.2154 9.16L11.0862 11.31C11.4188 13.2007 12.3239 14.9437 13.6791 16.303C15.0343 17.6622 16.7742 18.5723 18.6634 18.91L20.8326 16.76C21.114 16.4862 21.4697 16.3013 21.8555 16.2283C22.2412 16.1554 22.6399 16.1977 23.0018 16.35L26.7704 17.86C27.1368 18.0129 27.4494 18.2714 27.6684 18.6027C27.8873 18.9339 28.0028 19.3229 28 19.72V25C28 25.7956 27.684 26.5587 27.1216 27.1213C26.5592 27.6839 25.7964 28 25.0011 28ZM5.00842 4C4.7433 4 4.48904 4.10536 4.30157 4.29289C4.1141 4.48043 4.00879 4.73478 4.00879 5V5.08C4.46862 11 7.41753 25 24.9411 26C25.0724 26.0081 25.204 25.9902 25.3284 25.9473C25.4528 25.9045 25.5675 25.8374 25.666 25.7501C25.7644 25.6628 25.8447 25.5568 25.9021 25.4384C25.9595 25.32 25.993 25.1914 26.0007 25.06V19.72L22.2321 18.21L19.3631 21.06L18.8833 21C10.1865 19.91 9.00694 11.21 9.00694 11.12L8.94697 10.64L11.7859 7.77L10.2865 4H5.00842Z"></path>
  </symbol>
  <symbol xmlns="http://www.w3.org/2000/svg" viewBox="0 0 30 30" id="arrow-left">
    <path fill-rule="evenodd" clip-rule="evenodd" d="M23 15C23 15.1929 22.9234 15.3779 22.787 15.5143C22.6506 15.6507 22.4656 15.7273 22.2727 15.7273H9.48421L12.6071 18.8487C12.6747 18.9163 12.7284 18.9966 12.765 19.085C12.8016 19.1733 12.8204 19.268 12.8204 19.3636C12.8204 19.4593 12.8016 19.554 12.765 19.6423C12.7284 19.7307 12.6747 19.8109 12.6071 19.8785C12.5395 19.9462 12.4592 19.9998 12.3709 20.0364C12.2825 20.073 12.1878 20.0918 12.0922 20.0918C11.9966 20.0918 11.9019 20.073 11.8135 20.0364C11.7252 19.9998 11.6449 19.9462 11.5773 19.8785L7.21366 15.5149C7.14594 15.4474 7.0922 15.3671 7.05554 15.2787C7.01887 15.1904 7 15.0957 7 15C7 14.9043 7.01887 14.8096 7.05554 14.7213C7.0922 14.6329 7.14594 14.5526 7.21366 14.4851L11.5773 10.1215C11.7139 9.98489 11.8991 9.90817 12.0922 9.90817C12.2853 9.90817 12.4706 9.98489 12.6071 10.1215C12.7437 10.258 12.8204 10.4432 12.8204 10.6364C12.8204 10.8295 12.7437 11.0147 12.6071 11.1513L9.48421 14.2727H22.2727C22.4656 14.2727 22.6506 14.3494 22.787 14.4857C22.9234 14.6221 23 14.8071 23 15Z"></path>
  </symbol>
  <symbol xmlns="http://www.w3.org/2000/svg" viewBox="0 0 30 30" id="arrow-right">
    <path fill-rule="evenodd" clip-rule="evenodd" d="M7 15C7 14.8071 7.07662 14.6221 7.21301 14.4857C7.3494 14.3494 7.53439 14.2727 7.72727 14.2727L20.5158 14.2727L17.3929 11.1513C17.3253 11.0837 17.2716 11.0034 17.235 10.915C17.1984 10.8267 17.1796 10.732 17.1796 10.6364C17.1796 10.5407 17.1984 10.446 17.235 10.3577C17.2716 10.2693 17.3253 10.1891 17.3929 10.1215C17.4605 10.0538 17.5408 10.0002 17.6291 9.9636C17.7175 9.92701 17.8122 9.90817 17.9078 9.90817C18.0034 9.90817 18.0981 9.92701 18.1865 9.9636C18.2748 10.0002 18.3551 10.0538 18.4227 10.1215L22.7863 14.4851C22.8541 14.5526 22.9078 14.6329 22.9445 14.7213C22.9811 14.8096 23 14.9043 23 15C23 15.0957 22.9811 15.1904 22.9445 15.2787C22.9078 15.3671 22.8541 15.4474 22.7863 15.5149L18.4227 19.8785C18.2861 20.0151 18.1009 20.0918 17.9078 20.0918C17.7147 20.0918 17.5294 20.0151 17.3929 19.8785C17.2563 19.742 17.1796 19.5568 17.1796 19.3636C17.1796 19.1705 17.2563 18.9853 17.3929 18.8487L20.5158 15.7273L7.72727 15.7273C7.53439 15.7273 7.3494 15.6506 7.21301 15.5143C7.07662 15.3779 7 15.1929 7 15Z"></path>
  </symbol>
</svg>