<?xml version="1.0" standalone="no"?>
<!DOCTYPE svg PUBLIC "-//W3C//DTD SVG 20010904//EN"
 "http://www.w3.org/TR/2001/REC-SVG-20010904/DTD/svg10.dtd">
<svg version="1.0" xmlns="http://www.w3.org/2000/svg"
 width="500.000000pt" height="500.000000pt" viewBox="0 0 500.000000 500.000000"
 preserveAspectRatio="xMidYMid meet">
<metadata>
Created by potrace 1.14, written by Peter Selinger 2001-2017
</metadata>
<g transform="translate(0.000000,500.000000) scale(0.100000,-0.100000)"
fill="#000000" stroke="none">
<path d="M4039 4236 l-456 -361 79 -5 c43 -3 79 -7 81 -10 3 -7 -1126 -2470
-1133 -2470 -3 0 -98 189 -212 420 l-207 420 -481 -2 -482 -3 -524 -900 c-288
-495 -524 -903 -524 -907 0 -5 217 -8 483 -8 l484 0 264 465 c145 255 267 465
271 465 3 0 113 -209 244 -465 l237 -465 467 0 466 0 13 36 c7 20 35 82 61
139 27 56 301 660 610 1341 309 682 634 1398 722 1592 l160 352 79 0 c44 0 79
3 79 7 0 7 -296 666 -314 699 -10 19 -41 -3 -467 -340z"/>
</g>
</svg>
