<svg width="30" height="30" viewBox="0 0 30 30" xmlns="http://www.w3.org/2000/svg"><path fill-rule="evenodd" clip-rule="evenodd" d="M23 15C23 15.1929 22.9234 15.3779 22.787 15.5143C22.6506 15.6507 22.4656 15.7273 22.2727 15.7273H9.48421L12.6071 18.8487C12.6747 18.9163 12.7284 18.9966 12.765 19.085C12.8016 19.1733 12.8204 19.268 12.8204 19.3636C12.8204 19.4593 12.8016 19.554 12.765 19.6423C12.7284 19.7307 12.6747 19.8109 12.6071 19.8785C12.5395 19.9462 12.4592 19.9998 12.3709 20.0364C12.2825 20.073 12.1878 20.0918 12.0922 20.0918C11.9966 20.0918 11.9019 20.073 11.8135 20.0364C11.7252 19.9998 11.6449 19.9462 11.5773 19.8785L7.21366 15.5149C7.14594 15.4474 7.0922 15.3671 7.05554 15.2787C7.01887 15.1904 7 15.0957 7 15C7 14.9043 7.01887 14.8096 7.05554 14.7213C7.0922 14.6329 7.14594 14.5526 7.21366 14.4851L11.5773 10.1215C11.7139 9.98489 11.8991 9.90817 12.0922 9.90817C12.2853 9.90817 12.4706 9.98489 12.6071 10.1215C12.7437 10.258 12.8204 10.4432 12.8204 10.6364C12.8204 10.8295 12.7437 11.0147 12.6071 11.1513L9.48421 14.2727H22.2727C22.4656 14.2727 22.6506 14.3494 22.787 14.4857C22.9234 14.6221 23 14.8071 23 15Z"/></svg>