<svg width="30" height="30" viewBox="0 0 30 30" xmlns="http://www.w3.org/2000/svg"><path d="M0 9.8988V22.8C0 24.1791 0.526784 25.5018 1.46447 26.477C2.40215 27.4521 3.67392 28 5 28H25C26.3261 28 27.5979 27.4521 28.5355 26.477C29.4732 25.5018 30 24.1791 30 22.8V7.2C30 5.82087 29.4732 4.49823 28.5355 3.52304C27.5979 2.54786 26.3261 2 25 2H5C3.67392 2 2.40215 2.54786 1.46447 3.52304C0.526784 4.49823 0 5.82087 0 7.2V9.8988ZM5 4.6H25C25.663 4.6 26.2989 4.87393 26.7678 5.36152C27.2366 5.84912 27.5 6.51044 27.5 7.2V9.124L15 16.1232L2.5 9.124V7.2C2.5 6.51044 2.76339 5.84912 3.23223 5.36152C3.70107 4.87393 4.33696 4.6 5 4.6V4.6ZM2.5 12.0776L14.4075 18.744C14.5896 18.8459 14.7932 18.8993 15 18.8993C15.2068 18.8993 15.4104 18.8459 15.5925 18.744L27.5 12.0776V22.8C27.5 23.4896 27.2366 24.1509 26.7678 24.6385C26.2989 25.1261 25.663 25.4 25 25.4H5C4.33696 25.4 3.70107 25.1261 3.23223 24.6385C2.76339 24.1509 2.5 23.4896 2.5 22.8V12.0776Z"/></svg>