<svg width="30" height="30" viewBox="0 0 30 30" xmlns="http://www.w3.org/2000/svg"><path fill-rule="evenodd" clip-rule="evenodd" d="M7 15C7 14.8071 7.07662 14.6221 7.21301 14.4857C7.3494 14.3494 7.53439 14.2727 7.72727 14.2727L20.5158 14.2727L17.3929 11.1513C17.3253 11.0837 17.2716 11.0034 17.235 10.915C17.1984 10.8267 17.1796 10.732 17.1796 10.6364C17.1796 10.5407 17.1984 10.446 17.235 10.3577C17.2716 10.2693 17.3253 10.1891 17.3929 10.1215C17.4605 10.0538 17.5408 10.0002 17.6291 9.9636C17.7175 9.92701 17.8122 9.90817 17.9078 9.90817C18.0034 9.90817 18.0981 9.92701 18.1865 9.9636C18.2748 10.0002 18.3551 10.0538 18.4227 10.1215L22.7863 14.4851C22.8541 14.5526 22.9078 14.6329 22.9445 14.7213C22.9811 14.8096 23 14.9043 23 15C23 15.0957 22.9811 15.1904 22.9445 15.2787C22.9078 15.3671 22.8541 15.4474 22.7863 15.5149L18.4227 19.8785C18.2861 20.0151 18.1009 20.0918 17.9078 20.0918C17.7147 20.0918 17.5294 20.0151 17.3929 19.8785C17.2563 19.742 17.1796 19.5568 17.1796 19.3636C17.1796 19.1705 17.2563 18.9853 17.3929 18.8487L20.5158 15.7273L7.72727 15.7273C7.53439 15.7273 7.3494 15.6506 7.21301 15.5143C7.07662 15.3779 7 15.1929 7 15Z"/></svg>