<svg width="30" height="30" viewBox="0 0 30 30" xmlns="http://www.w3.org/2000/svg"><path d="M25.0011 28H24.8311C5.18835 26.87 2.39938 10.29 2.00952 5.23C1.97811 4.83658 2.0246 4.44082 2.14635 4.06541C2.26809 3.69 2.46268 3.3423 2.71898 3.04225C2.97527 2.7422 3.28824 2.49569 3.63993 2.31684C3.99163 2.13799 4.37514 2.03032 4.76851 2H10.2765C10.6769 1.99961 11.0682 2.11951 11.3997 2.34416C11.7312 2.56881 11.9876 2.88787 12.1358 3.26L13.6552 7C13.8015 7.36355 13.8378 7.76208 13.7596 8.14609C13.6814 8.5301 13.4922 8.88267 13.2154 9.16L11.0862 11.31C11.4188 13.2007 12.3239 14.9437 13.6791 16.303C15.0343 17.6622 16.7742 18.5723 18.6634 18.91L20.8326 16.76C21.114 16.4862 21.4697 16.3013 21.8555 16.2283C22.2412 16.1554 22.6399 16.1977 23.0018 16.35L26.7704 17.86C27.1368 18.0129 27.4494 18.2714 27.6684 18.6027C27.8873 18.9339 28.0028 19.3229 28 19.72V25C28 25.7956 27.684 26.5587 27.1216 27.1213C26.5592 27.6839 25.7964 28 25.0011 28ZM5.00842 4C4.7433 4 4.48904 4.10536 4.30157 4.29289C4.1141 4.48043 4.00879 4.73478 4.00879 5V5.08C4.46862 11 7.41753 25 24.9411 26C25.0724 26.0081 25.204 25.9902 25.3284 25.9473C25.4528 25.9045 25.5675 25.8374 25.666 25.7501C25.7644 25.6628 25.8447 25.5568 25.9021 25.4384C25.9595 25.32 25.993 25.1914 26.0007 25.06V19.72L22.2321 18.21L19.3631 21.06L18.8833 21C10.1865 19.91 9.00694 11.21 9.00694 11.12L8.94697 10.64L11.7859 7.77L10.2865 4H5.00842Z"/></svg>